<svg width="212" height="295" viewBox="0 0 212 295" fill="none" xmlns="http://www.w3.org/2000/svg">
<path d="M155.131 18.3367C153.196 17.3738 149.551 15.9995 147.043 15.2968C139.782 13.3165 133.169 13.7705 124.223 16.8819C123.891 17.0061 121.14 18.8815 118.01 21.0985L112.381 25.1122L108.028 31.4378L103.687 37.8208L103.298 41.7966C103.102 44.0081 103.112 48.2041 103.323 51.1402C103.722 57.1957 102.918 61.9372 100.384 67.7003C97.4904 74.3669 94.0162 88.6195 93.5752 95.7019C93.4598 97.8679 93.2479 100.916 93.1018 102.463C92.9558 104.01 92.9401 106.692 93.0669 108.424C93.1938 110.156 93.3589 113.161 93.473 115.133C93.7512 120.259 95.3653 125.394 98.1914 130.202C99.503 132.388 100.702 134.298 100.838 134.391C100.975 134.483 100.578 135.96 99.9518 137.63C98.8153 140.65 98.8033 140.742 99.815 147.363C100.353 151.069 101.622 158.562 102.652 164.048L104.488 174.022L103.822 182.547C103.486 187.257 103.162 191.875 103.134 192.804C103.106 193.732 102.53 196.583 101.841 199.159C100.335 204.871 100.265 205.122 100.192 211.657C100.151 216.815 100.184 216.988 101.946 220.277C102.928 222.14 103.851 224.461 103.982 225.448C104.398 228.523 105.229 234.821 105.457 236.772C105.565 237.793 105.938 244.33 106.274 251.29C106.576 258.228 106.884 264.123 106.905 264.386C106.984 264.639 108.679 265.738 110.727 266.828L114.46 268.81L119.75 268.257C123.497 267.855 127.356 267.877 133.324 268.383C138.653 268.804 143.802 268.903 147.571 268.616C153.305 268.214 153.613 268.124 158.971 265.622C161.993 264.23 166.378 262.215 168.701 261.197C173.509 259.07 177.437 256.995 177.898 256.31C178.059 256.07 177.998 254.832 177.697 253.58C177.453 252.318 176.94 248.279 176.585 244.597C176.23 240.915 175.595 236.245 175.196 234.179C174.774 232.148 174.58 230.221 174.787 229.912C174.971 229.638 175.671 229.115 176.312 228.752C177.652 228.015 178.25 227.273 178.544 225.876C178.673 225.315 179.477 222.419 180.328 219.455C181.714 214.809 181.916 213.549 181.741 210.189C181.628 208.067 181.5 204.639 181.432 202.597C181.421 200.545 180.863 196.277 180.277 193.087C179.669 189.632 179.283 185.48 179.343 182.878C179.403 180.425 179.458 177.02 179.502 175.255C179.547 173.49 179.71 166.968 179.815 160.755C179.977 154.53 179.885 146.837 179.63 143.672C179.397 140.472 179.291 135.163 179.391 131.839L179.597 125.844L182.232 122.295L184.845 118.779L186.85 111.66L188.889 104.564L187.7 97.0251C186.73 91.0808 185.049 79.9161 184.282 74.4087C184.095 73.1351 178.995 66.685 176.36 64.3995L173.759 62.1371L173.076 57.834C172.713 55.4931 172.176 49.7922 171.872 45.1473C170.98 31.6256 171.158 32.5438 168.765 29.8241C165.34 25.9061 161.072 21.6162 159.821 20.8178C159.184 20.4357 157.067 19.2997 155.131 18.3367ZM166.376 36.0352C166.404 37.1015 166.61 38.937 166.798 40.0617C167.117 42.173 166.758 42.9275 166.036 41.4902C165.833 41.0534 165.064 39.8336 164.294 38.7629L162.855 36.8399L160.582 37.0443C159.097 37.1845 157.93 37.5904 157.15 38.308C156.484 38.8544 154.74 40.4147 153.271 41.713C151.044 43.6947 150.059 44.2735 147.348 45.1288C143.516 46.3214 139.015 46.8108 135.673 46.3898C129.991 45.6799 117.909 42.2267 115.487 40.5845C114.395 39.8443 112.596 40.9687 110.915 43.4695C109.395 45.7304 108.903 45.7963 108.938 43.8247C108.97 42.1511 110.418 36.7484 110.863 36.7511C111.045 36.7751 112.435 37.3679 113.926 38.0302C118.777 40.2714 121.285 40.825 126.218 40.728C128.821 40.6975 132.645 40.8462 134.71 41.0991C136.855 41.3066 140.361 41.1897 142.818 40.8603C146.451 40.3314 147.813 39.858 151.42 37.9647C153.791 36.7291 156.735 34.9351 158.008 34.0025C161.735 31.1928 161.176 31.2124 165.511 33.7028C166.046 34.0155 166.338 34.7624 166.376 36.0352ZM167.931 49.3086C168.316 49.9185 169.052 52.9608 169.559 56.0477C171.311 66.8116 171.291 66.3988 169.879 69.5317C169.14 71.075 168.2 73.5802 167.723 75.1021C167.246 76.624 166.679 77.9849 166.473 78.1442C165.876 78.5878 163.18 73.069 162.818 70.5792C162.576 68.8695 162.036 67.6053 161.027 66.3726C159.724 64.6912 159.553 64.5755 157.535 64.105C155.175 63.5523 151.932 63.6478 149.313 64.3661C147.541 64.8601 145.774 66.3056 144.174 68.612C142.769 70.7017 141.753 70.6613 137.805 68.3337C135.905 67.2448 133.559 66.1533 132.601 65.9528C131.609 65.7291 130.778 65.4147 130.721 65.2768C130.722 65.1277 131.33 64.5925 132.064 64.0924C133.829 62.9449 133.907 63.1976 130.055 56.1472C128.283 52.8007 127.156 50.1916 127.004 48.9411L126.741 46.9677L128.925 48.299C131.041 49.584 131.2 49.7913 133.05 53.6886C134.504 56.7696 134.986 58.3431 135.043 60.3267C135.108 62.8149 135.199 62.9759 136.508 63.6142C137.259 63.974 138.91 64.8436 140.162 65.493L142.415 66.7215L144.068 65.1491C145.619 63.6564 145.757 63.4509 146.289 60.3701C147.018 56.6256 148.584 52.4504 150.335 49.8468C151.671 47.8599 151.841 47.9755 151.835 51.0136C151.849 52.4696 149.531 58.4289 148.218 60.3815C147.297 61.7518 147.842 62.2709 149.206 61.3503C151.394 59.9417 155.351 58.9332 157.666 59.2564L159.823 59.5213L162.405 55.2374C163.789 52.884 165.323 50.2333 165.739 49.3186C166.594 47.604 166.834 47.6169 167.931 49.3086ZM180.733 79.9824C183.271 87.1396 185.293 96.6899 185.311 101.539L185.309 105.678L182.914 109.241C180.541 112.769 179.231 114.275 178.833 113.906C178.731 113.836 178.491 111.978 178.309 109.81C178.128 107.642 177.5 103.775 176.864 101.249C176.228 98.7229 175.716 96.3812 175.627 96.0711C175.328 94.5217 175.696 88.1382 176.505 80.6568C177.01 76.2116 177.186 75.433 177.918 75.231C178.364 75.0846 178.798 75.0298 178.901 75.0992C178.969 75.1455 179.778 77.3399 180.733 79.9824ZM159.998 70.5625C160.822 72.2182 160.807 72.757 160.142 75.1491C159.408 77.644 159.166 78.0782 157.063 80.3931C154.156 83.6089 150.652 85.4225 148.005 85.0744C145.757 84.7975 145.723 84.7744 146.322 83.8837C146.599 83.4726 147.061 82.4894 147.317 81.6655C149.768 74.5491 150.23 73.5659 152.884 70.7269C154.263 69.2676 155.48 68.0481 155.571 68.0601C155.639 68.1064 156.358 68.145 157.112 68.2068C158.949 68.3552 158.949 68.3552 159.998 70.5625ZM168.867 88.396C170.021 92.2204 170.044 92.1862 168.51 90.8473C167.443 89.9238 167.048 89.1075 166.648 87.1906C166.382 85.8133 166.229 84.5628 166.322 84.4258C166.736 83.8092 168.139 86.0071 168.867 88.396ZM129.36 63.7555C129.051 63.9944 128.408 64.5065 127.949 64.8936C127.123 65.6797 127.123 65.6797 128.311 65.5377C129.899 65.3178 129.462 65.8196 125.737 68.3313C123.983 69.5362 122.401 70.7077 122.217 70.9817C122.055 71.2215 121.816 71.2086 121.703 70.9328C121.556 70.6339 121.926 69.9367 122.776 68.9673C123.455 68.1803 124.041 67.3812 124.008 67.209C123.975 67.0369 123.027 67.0428 121.93 67.1968L119.942 67.4946L118.106 73.0325C117.061 76.0644 116.121 78.5695 116.03 78.5575C115.916 78.5798 115.312 78.3699 114.663 78.0794C113.695 77.6725 113.026 76.8202 111.67 74.4047C108.325 68.5955 107.184 62.5356 108.272 56.1907L108.698 53.4877L110.834 53.3398L112.936 53.1687L115.57 55.6032C117.047 56.9533 118.647 58.6365 119.111 59.35C119.575 60.0636 120.299 61.2028 120.728 61.8932C121.452 63.0324 121.578 63.0676 124.034 62.8871C127.951 62.6007 130.426 62.9822 129.36 63.7555ZM169.325 94.1423C171.639 96.6093 174.073 102.15 174.553 106.016C174.759 107.851 174.853 109.262 174.751 109.193C174.614 109.1 173.735 107.157 172.767 104.905C171.381 101.721 170.465 100.202 168.775 98.358C166.608 96.0408 166.471 95.9483 163.952 95.1883C162.528 94.7213 160.476 94.2277 159.347 94.0606C158.217 93.8934 156.221 93.5377 154.898 93.2891C150.611 92.427 147.299 92.6252 138.075 94.302C133.092 95.2127 127.001 96.22 124.544 96.5494C122.031 96.89 118.841 97.5705 117.389 98.032C114.884 98.877 114.7 99.0021 112.456 101.97C109.787 105.496 108.027 109.739 106.98 115.064C106.684 116.759 106.276 118.327 106.137 118.533C106.022 118.704 105.631 117.292 105.322 115.387C104.837 112.414 104.879 111.096 105.734 107.387C106.626 103.254 106.846 102.705 108.943 99.5872C110.785 96.8466 111.394 96.1623 112.275 95.9612C112.846 95.8499 115.935 94.8019 119.104 93.7086C123.691 92.1306 126.161 91.5605 131.05 91.0849C134.42 90.7265 138.339 90.291 139.812 90.0933C142.818 89.6869 152.088 89.7874 158.649 90.2961C162.381 90.5818 164.866 91.1697 167.531 92.3777C167.633 92.4471 168.462 93.2086 169.325 94.1423ZM130.573 74.9518C132.4 76.8886 136.696 84.2396 136.44 85.0635C136.393 85.2811 134.874 85.2492 133.049 85.0091C130.311 84.6491 129.229 84.2644 126.885 82.8748L124.064 81.1615L123.543 78.4643C123.033 75.8245 123.022 75.7671 124.261 74.6624C127.555 71.7584 127.464 71.7464 130.573 74.9518ZM168.518 107.161C169.412 108.416 171.127 111.923 172.342 114.991C174.222 119.656 174.702 121.528 175.311 126.679C175.835 130.775 175.903 134.662 175.629 138.615C175.393 141.847 175.081 144.528 174.932 144.527C174.304 144.649 170.026 140.153 165.684 134.865C165.174 134.22 163.399 129.326 161.651 123.652C159.959 118.116 158.433 113.59 158.319 113.613C158.205 113.635 158.277 114.931 158.485 116.468C158.8 119.176 158.753 119.393 157.324 121.666L155.826 124.042L153.844 123.297C150.654 122.131 148.443 119.436 147.099 115.083C145.978 111.43 145.546 111.187 145.54 114.225C145.507 115.899 145.345 116.288 143.62 118.41C141.952 120.521 141.585 120.771 140.341 120.775C139.404 120.838 138.413 120.466 137.253 119.679C135.752 118.661 135.503 118.293 135.172 116.422C134.74 114.035 134.228 113.837 133.702 115.875C133.222 117.844 130.062 123.282 129.619 122.982C129.414 122.843 128.731 122.529 128.116 122.262C127.114 121.832 126.888 121.429 126.547 119.203C126.304 117.792 126.025 116.655 125.911 116.677C125.797 116.7 125.577 117.249 125.447 117.959C125.283 118.646 124.468 121.335 123.631 123.909C122.294 128.04 121.6 129.515 117.898 135.833C115.557 139.832 113.518 143.087 113.346 143.12C112.752 143.266 110.605 137.372 109.716 133.228C108.172 125.847 108.908 117.219 111.59 111.457L113.198 107.958L115.879 106.335C117.345 105.484 118.628 104.757 118.651 104.723C118.731 104.678 119.54 105.026 120.496 105.525C121.931 106.198 122.453 106.752 123.73 108.915C124.567 110.33 125.337 111.4 125.406 111.298C125.475 111.195 125.675 110.233 125.772 109.202L126.023 107.277L128.257 105.949C129.506 105.2 130.697 104.611 130.879 104.635C131.119 104.648 131.945 105.856 132.736 107.34C133.492 108.8 134.25 109.963 134.365 109.94C134.513 109.941 135.174 108.294 135.916 106.304C136.658 104.313 137.551 102.026 137.898 101.214L138.592 99.7391L140.879 100.991C142.791 101.988 143.518 102.68 145.172 104.799C147.88 108.381 147.812 108.334 149.001 106.049C149.948 104.197 150.051 104.117 151.582 104.058L153.203 104.01L155.651 107.165C156.988 108.87 158.213 110.299 158.418 110.289C158.601 110.313 159.004 109.639 159.294 108.838C159.608 108.003 160.346 106.608 160.922 105.752C161.89 104.313 162.153 104.143 163.877 104.164C166.184 104.132 166.582 104.352 168.518 107.161ZM112.154 89.1965C109.296 93.8915 109.031 94.2109 108.968 93.2705C108.914 92.6855 109.138 91.5404 109.428 90.7396C109.707 89.8814 110.206 88.4742 110.543 87.6049C111.042 86.1978 111.363 85.8672 113.15 84.8345C114.307 84.2222 115.234 83.8035 115.222 83.8952C115.268 83.9757 113.895 86.3866 112.154 89.1965ZM102.94 79.558C103.274 80.9815 103.574 82.531 103.605 83.0012C103.637 83.4714 103.689 84.2055 103.767 84.6072C104.208 87.2007 104.82 97.8891 104.626 99.8025C104.577 100.318 104.408 101.899 104.229 103.274C104.083 104.672 103.912 106.7 103.872 107.72C103.793 109.462 101.031 120.956 100.478 121.778C99.5109 123.217 96.4363 114.05 96.0574 108.557C95.5738 101.446 97.558 86.2329 99.7748 80.0552C101.376 75.605 101.925 75.528 102.94 79.558ZM158.318 133.262C159.633 136.847 160.157 140.943 160.011 146.33C159.951 148.783 159.689 148.805 158.367 146.412C157.61 145.101 156.815 144.363 153.983 142.443C150.367 139.991 148.59 139.235 146.478 139.2C145.793 139.184 144.151 138.968 142.851 138.686L140.468 138.167L142.195 141.433C144.228 145.205 144.929 148.374 144.541 152.201C144.407 153.656 144.217 154.973 144.148 155.076C144.009 155.281 142.361 152.119 140.038 147.153C138.989 144.945 138.497 143.165 138.506 141.675C138.479 140.46 138.36 139.381 138.155 139.243C137.961 139.161 136.888 139.132 135.791 139.286C133.449 139.593 130.457 141.754 127.33 145.37C125.422 147.617 125.272 147.914 124.73 150.788C124.4 152.46 124.072 153.834 123.958 153.856C123.878 153.902 123.235 152.568 122.537 150.947C121.365 148.258 120.18 141.968 120.664 141.249C120.779 141.078 121.048 140.013 121.214 138.879C121.557 136.817 122.888 133.73 124.779 130.623C126.186 128.235 131.693 125.585 136.194 125.096C144.58 124.148 151.743 125.313 155.231 128.177C156.674 129.355 157.149 130.126 158.318 133.262ZM168.42 145.348C170.372 151.31 170.887 162.731 169.403 168.558C168.679 171.408 168.204 172.483 166.846 174.355L165.154 176.649L163.32 176.054C161.998 175.656 161.258 175.205 160.703 174.479C160.295 173.904 159.876 173.42 159.807 173.373C159.739 173.327 159.128 174.31 158.482 175.567C156.797 178.664 154.298 180.311 152.464 179.567C150.426 178.683 148.073 176.938 146.951 175.43C146.385 174.647 145.795 174.048 145.646 174.047C145.475 174.08 145.161 175.064 144.88 176.22C144.459 178.029 144.216 178.463 142.966 179.511C141.635 180.603 141.406 180.648 139.652 180.007C137.897 179.366 137.682 179.17 136.881 177.48C135.617 174.928 135.366 174.857 134.464 176.938C133.006 180.289 130.678 182.052 129.108 180.988C128.699 180.711 127.101 180.724 125.489 180.978C122.964 181.411 122.325 181.327 120.549 180.422C118.739 179.494 118.376 179.148 117.144 176.917C115.551 174.041 114.998 171.023 114.51 162.662C114.2 157.215 114.759 149.514 115.444 149.381C115.582 149.324 116.752 150.317 118.058 151.551C120.907 154.331 125.621 162.315 126.333 165.541C126.555 166.689 126.858 167.493 126.973 167.322C127.089 167.15 127.269 165.627 127.347 163.884C127.522 161.409 127.849 160.184 128.865 158.23C129.915 156.299 130.272 155.842 130.647 156.097C131.613 156.802 133.215 160.033 134.212 163.352C134.794 165.293 135.356 166.821 135.505 166.822C135.619 166.799 136.025 165.678 136.387 164.328C137.274 161.088 139.092 156.685 139.572 156.562C139.778 156.552 140.562 157.084 141.323 157.799C142.266 158.687 143.079 160.137 143.944 162.618C144.64 164.537 145.351 166.066 145.522 166.032C145.922 165.954 147.116 162.923 148.199 159.319C148.561 157.968 149.508 155.967 150.269 154.837C151.581 152.884 151.662 152.839 152.274 153.553C153.611 155.258 156.66 161.065 157.185 163.017C157.521 164.143 157.882 164.936 158.02 164.73C158.158 164.525 158.543 163.14 158.872 161.617C159.67 157.77 161.387 153.148 163.871 148.199C166.25 143.478 166.976 142.325 167.317 142.556C167.42 142.625 167.903 143.901 168.42 145.348ZM175.004 173.303C175.245 177.007 174.449 180.258 172.559 183.365C171.037 185.924 171.014 185.959 168.497 186.746C166.404 187.422 163.013 187.516 162.16 186.938C161.853 186.73 162.897 185.842 166.302 183.363C169.765 180.873 172.216 177.597 173.218 174.186C173.567 173.076 173.975 171.657 174.173 170.993C174.626 169.506 174.806 169.977 175.004 173.303ZM155.249 193.375C155.148 195.002 154.592 198.415 154.006 200.911C153.421 203.407 152.454 208.686 151.872 212.581C151.289 216.475 150.533 220.85 150.205 222.224C149.212 226.139 149.515 227.092 152.435 229.471C155.23 231.815 157.6 232.574 162.588 232.764C164.951 232.869 165.43 233.044 165.517 233.652C165.857 236.027 166.815 244.058 166.985 246.168C167.146 248.072 166.932 249.424 166.051 251.769C163.871 257.523 164.124 257.146 161.677 257.831L159.481 258.437L158.737 256.885C157.846 255.034 157.614 253.68 157.048 246.912C156.847 244.183 156.541 241.98 156.403 242.036C155.855 242.113 154.885 251.829 155.056 255.636C155.158 257.85 155.157 259.844 155.042 260.016C154.927 260.187 153.931 260.708 152.798 261.137C151.699 261.59 150.669 262.088 150.531 262.293C150.392 262.499 150.072 262.531 149.8 262.346C148.913 261.745 148.549 259.553 148.744 255.347C148.869 251.542 148.587 249.006 146.812 238.277C146.36 235.477 143.259 224.946 142.882 224.989C142.288 225.135 142.824 252.629 143.471 255.064C143.505 255.236 143.655 256.933 143.815 258.837C144.066 262.748 143.371 264.521 141.671 264.316C140.621 264.253 140.542 264 138.347 250.941C137.906 248.198 137.428 246.029 137.256 246.062C136.913 246.129 135.517 258.399 135.619 260.463C135.694 261.312 135.824 262.596 135.923 263.262L136.143 264.559L132.672 264.699C130.73 264.779 128.824 264.733 128.38 264.582C126.785 263.999 125.794 261.632 125.552 258.076C125.349 253.799 124.131 245.343 123.788 245.409C123.617 245.443 122.874 249.428 122.126 254.307C121.07 261.122 120.636 263.172 120.075 263.341C119.709 263.442 118.342 262.963 117.022 262.268C114.871 261.109 114.542 260.786 113.39 258.658C111.039 254.471 110.073 244.09 111.423 237.724C111.88 235.64 112.134 235.114 112.925 234.603C113.773 234.081 114.115 234.163 115.514 235.111C118.13 236.835 121.986 237.305 125.656 236.352C128.469 235.566 128.87 235.339 130.434 233.457C131.377 232.35 132.644 230.466 133.221 229.312C134.145 227.494 134.299 226.601 134.136 223.298C133.839 217.312 132.001 209.483 129.101 201.83C127.943 198.751 124.16 191.598 123.443 191.112C122.454 190.441 123.745 190.369 126.675 190.959C128.432 191.302 132.414 191.658 135.565 191.7C138.658 191.752 143.064 191.996 145.277 192.25C149.134 192.72 149.534 192.642 152.167 191.385C153.713 190.637 155.063 190.106 155.199 190.199C155.336 190.291 155.373 191.713 155.249 193.375ZM110.538 178.173C111.143 180.08 111.731 181.126 112.844 182.13C114.536 183.677 118.195 188.502 117.965 188.844C117.712 189.221 114.817 188.356 113.623 187.546C110.211 185.233 108.552 182.013 108.058 176.691C107.735 173.33 108.006 165.983 108.49 165.264C108.559 165.161 108.877 167.421 109.202 170.335C109.517 173.192 110.113 176.738 110.538 178.173Z" fill="#30303D"/>
<path d="M166.608 58.8849C164.708 59.7909 164.593 59.9622 164.529 63.0113C164.47 65.3153 165.277 67.8078 166.02 67.6631C166.192 67.6298 166.869 66.9918 167.513 66.1816C168.628 64.8927 168.71 64.5492 168.533 61.6363C168.429 59.8701 168.266 58.4132 168.164 58.3438C168.096 58.2976 167.375 58.557 166.608 58.8849Z" fill="#30303D"/>
<path d="M112.61 62.0746C111.625 62.5044 110.755 62.912 110.663 63.049C110.41 63.4259 111.611 70.8733 111.986 71.1277C112.225 71.2896 112.887 71.1904 113.517 70.9189C114.536 70.5122 114.72 70.2382 115.625 67.7099C116.623 65.0446 116.646 64.8613 115.674 63.2047C115.109 62.2727 114.623 61.4444 114.555 61.3982C114.486 61.3519 113.628 61.6679 112.61 62.0746Z" fill="#30303D"/>
</svg>
