<svg width="33" height="32" viewBox="0 0 33 32" fill="none" xmlns="http://www.w3.org/2000/svg">
<g clip-path="url(#clip0_29_36469)">
<path d="M10.7027 16.7099C10.6628 16.5949 10.614 16.4976 10.5918 16.4976C10.5385 16.4976 10.5829 14.9761 10.645 14.7019C10.6805 14.5559 10.6761 14.4852 10.6184 14.4055C10.5652 14.3259 10.5652 14.2507 10.5962 14.1048C10.6229 13.9632 10.6184 13.8438 10.574 13.6802C10.5208 13.5121 10.5119 13.3219 10.5385 12.8841C10.5563 12.5656 10.574 12.1277 10.5785 11.9022C10.5785 11.6766 10.5962 11.4156 10.6184 11.3272C10.645 11.1989 10.6362 11.0972 10.5785 10.9512C10.4942 10.7345 10.5075 10.5355 10.6184 10.3099C10.6717 10.2037 10.6761 9.72607 10.645 9.26608H10.6362V9.64203C10.5607 9.62434 10.4542 9.61549 10.3389 9.61107C10.1658 9.61107 9.97058 9.61107 9.90846 9.61107C9.8419 9.61107 9.68659 9.61992 9.55791 9.64203C9.42923 9.65972 9.27836 9.67299 9.2118 9.66857C8.35541 9.6553 7.7475 9.62434 7.67651 9.5978C7.6277 9.58011 7.57001 9.58896 7.52564 9.61992C7.4857 9.6553 7.37034 9.67299 7.2594 9.66857C6.94436 9.65088 6.82011 9.6553 6.23439 9.68184C5.91047 9.69953 5.64867 9.68626 5.59986 9.66415C5.48006 9.5978 4.5926 9.58011 4.45948 9.63761C4.41067 9.6553 4.34412 9.67299 4.22431 9.68626C4.21987 9.93395 4.23762 10.1595 4.28199 10.248C4.32193 10.3187 4.29087 11.2078 4.24206 11.6368C4.211 11.88 4.21543 12.0614 4.24206 12.141C4.33968 12.4196 4.36186 12.6187 4.31305 13.0964C4.28199 13.375 4.24206 13.689 4.20212 13.7908C4.14444 13.9854 4.14888 14.4984 4.20212 14.7284C4.25093 14.8832 4.25537 14.9938 4.29087 15.5909C4.32637 16.3251 4.32193 16.4445 4.2465 16.5861C4.10007 16.8603 4.08675 17.0328 4.17994 17.1566C4.20656 17.1832 4.21987 17.391 4.21543 17.6122C4.20656 17.851 4.22431 18.05 4.26424 18.112C4.29974 18.1872 4.30418 18.2535 4.27756 18.3066C4.22431 18.4172 4.15775 18.8816 4.17106 19.0364C4.18437 19.1071 4.20656 19.1823 4.22431 19.2089C4.29087 19.2929 4.29087 19.4831 4.22431 19.9563C4.1755 20.35 4.17994 20.3898 4.26868 20.5711C4.35299 20.7392 4.36186 20.8232 4.33524 21.1859C4.32193 21.4159 4.29531 21.6769 4.27756 21.7697C4.25093 21.8759 4.25537 21.9909 4.27756 22.0572C4.30418 22.1236 4.32637 22.3403 4.3308 22.5349C4.33968 22.8224 4.32193 22.9197 4.25537 23.0082C4.20212 23.0834 4.1755 23.1674 4.1755 23.2691H10.574C10.574 23.0303 10.5785 22.7251 10.5829 22.3138C10.5918 21.7874 10.5829 21.3319 10.5696 21.3053C10.5474 21.2744 10.5696 21.1903 10.6051 21.1151C10.6584 21.0134 10.6761 20.8055 10.6805 20.3058C10.6805 19.3548 10.6805 19.3681 10.6317 19.3062C10.6007 19.2708 10.5829 19.1735 10.5874 19.0806C10.5874 18.9921 10.5785 18.8683 10.5607 18.8064C10.5385 18.7445 10.543 18.6693 10.574 18.6383C10.5962 18.6073 10.6273 18.5056 10.6273 18.4172C10.6273 18.2535 10.5563 17.6741 10.5075 17.5414C10.4942 17.5104 10.543 17.3556 10.614 17.2053C10.7427 16.9355 10.7427 16.9178 10.6761 16.7099H10.7027ZM6.03915 10.5178L6.30539 10.5355C6.44738 10.5443 6.66037 10.5797 6.77574 10.6062C6.89111 10.6372 7.03754 10.6682 7.09966 10.677C7.16178 10.6903 7.34371 10.7168 7.49902 10.7478C7.70313 10.7832 7.8185 10.7832 7.91612 10.7478C8.04924 10.6947 8.31104 10.646 8.55065 10.6372H8.69264L8.70152 10.9424C8.70152 11.1149 8.71927 11.367 8.72814 11.5041C8.74145 11.7075 8.72814 11.7562 8.67489 11.7606C8.63052 11.765 8.46634 11.7739 8.30216 11.7872C8.13798 11.7916 7.94274 11.8093 7.86731 11.827C7.79188 11.8447 7.45908 11.8668 7.12629 11.8756C6.79793 11.8889 6.46069 11.911 6.38082 11.9243C6.1279 11.9685 6.07021 11.8137 6.0569 11.106L6.04803 10.5178H6.03915ZM6.06134 18.6825C6.0924 18.5189 6.17671 18.1164 6.20333 18.0766C6.21221 18.0589 6.32758 18.0677 6.46069 18.081C6.62044 18.1031 6.76243 18.0943 6.86892 18.05C6.95323 18.0191 7.0331 17.9881 7.03754 17.9881C7.05085 17.9881 7.14403 18.0368 7.24609 18.0899C7.4014 18.1739 7.50345 18.196 7.74307 18.1872C7.90281 18.1739 8.20011 18.165 8.38647 18.1606L8.73258 18.1518L8.71927 18.4437C8.71927 18.6073 8.72814 18.7931 8.7592 18.8639C8.79026 18.9568 8.78583 19.0939 8.75033 19.3239L8.69708 19.66L8.5329 19.6335C8.44416 19.6113 8.31991 19.576 8.25779 19.5406C8.13355 19.4787 6.66481 19.4787 6.3187 19.5406L6.14565 19.5715V19.2575C6.14565 19.0806 6.1279 18.9169 6.09684 18.886C6.06578 18.855 6.05247 18.7666 6.06578 18.6825H6.06134ZM8.3776 22.128C7.9738 22.1103 7.61439 22.0749 7.30821 22.0307C7.22834 22.0219 7.1396 22.0307 7.09522 22.0572C7.05085 22.0794 6.82899 22.1103 6.60269 22.1236L6.18115 22.1413L6.15009 21.6326C6.13677 21.3496 6.11015 21.0753 6.09684 21.0134C6.07909 20.925 6.09684 20.9073 6.19446 20.9073C6.26102 20.9073 6.3897 20.9692 6.48288 21.0444C6.64262 21.1726 6.687 21.1859 7.21947 21.2125C7.53008 21.2257 7.83181 21.2655 7.8895 21.2921C8.00043 21.3584 8.33766 21.3894 8.33766 21.3407C8.33766 21.3053 8.61277 21.1948 8.70596 21.1948C8.75033 21.1948 8.7592 21.2876 8.75476 21.5398C8.75476 21.7299 8.75477 21.9467 8.77695 22.0174L8.81689 22.1457L8.38203 22.128H8.3776ZM8.79026 16.5949L8.74589 16.732L8.37316 16.7099C8.16461 16.6966 7.95162 16.6789 7.90281 16.6878C7.854 16.6878 7.71201 16.6347 7.58332 16.5728C7.31709 16.4401 7.18841 16.4136 7.1041 16.4666C7.07748 16.4843 6.94436 16.5109 6.81124 16.5241C6.67368 16.533 6.55388 16.5595 6.545 16.5861C6.49619 16.6568 6.32314 16.7364 6.21664 16.7364C6.12346 16.7364 6.12346 16.7232 6.15009 16.1791C6.16783 15.8695 6.19002 15.6042 6.20333 15.5776C6.21664 15.5599 6.26989 15.5644 6.32758 15.582C6.38526 15.6086 6.48732 15.6174 6.54944 15.6042C6.61156 15.5953 6.77574 15.6263 6.91773 15.6794C7.18397 15.7855 7.35259 15.8076 7.39696 15.7413C7.42358 15.7059 7.57445 15.7103 8.04924 15.7634C8.19123 15.7767 8.36428 15.7634 8.50184 15.7192L8.71927 15.6484V15.7722C8.71927 15.843 8.74145 16.0243 8.78139 16.1791C8.83464 16.3826 8.83464 16.4932 8.79914 16.5949H8.79026ZM8.54621 14.3702C8.44416 14.3569 8.27554 14.3702 8.16904 14.3967C8.01374 14.4409 7.94718 14.4365 7.81406 14.3657C7.63214 14.2773 7.19284 14.2905 7.07748 14.3879C7.04198 14.4144 6.96654 14.4365 6.90442 14.4365C6.84674 14.4277 6.64706 14.4365 6.46957 14.4542L6.14565 14.4807L6.0924 14.2817C6.03915 14.0606 6.0569 13.3662 6.13234 13.2335C6.18558 13.1273 6.25658 13.1229 6.43407 13.2158C6.52725 13.2644 6.69143 13.291 6.89111 13.2865C7.06416 13.2821 7.45021 13.2998 7.73419 13.3263C8.20011 13.375 8.27554 13.375 8.3421 13.3087C8.43528 13.2246 8.65271 13.2644 8.67489 13.375C8.68821 13.4236 8.70152 13.5785 8.70596 13.72C8.70596 13.8659 8.75033 14.0561 8.78583 14.1402C8.87901 14.348 8.82132 14.4055 8.54621 14.3702Z" fill="#30303D"/>
<path d="M29.6854 16.7099C29.6455 16.5949 29.5966 16.4976 29.5745 16.4976C29.5212 16.4976 29.5656 14.9761 29.6277 14.7019C29.6632 14.5559 29.6588 14.4852 29.6011 14.4055C29.5478 14.3259 29.5478 14.2507 29.5789 14.1048C29.6055 13.9632 29.6011 13.8438 29.5567 13.6802C29.5035 13.5121 29.4946 13.3219 29.5212 12.8841C29.539 12.5656 29.5567 12.1277 29.5612 11.9022C29.5612 11.6766 29.5789 11.4156 29.6011 11.3272C29.6277 11.1989 29.6188 11.0972 29.5612 10.9512C29.4768 10.7345 29.4902 10.5355 29.6011 10.3099C29.6543 10.2037 29.6588 9.72607 29.6277 9.26608H29.6188V9.64203C29.5434 9.62434 29.4369 9.61549 29.3215 9.61107C29.1485 9.61107 28.9532 9.61107 28.8911 9.61107C28.8246 9.61107 28.6693 9.61992 28.5406 9.64203C28.4119 9.65972 28.261 9.67299 28.1945 9.66857C27.3381 9.6553 26.7302 9.62434 26.6592 9.5978C26.6104 9.58011 26.5527 9.58896 26.5083 9.61992C26.4684 9.6553 26.353 9.67299 26.2421 9.66857C25.927 9.65088 25.8028 9.6553 25.2171 9.68184C24.8931 9.69953 24.6313 9.68626 24.5825 9.66415C24.4627 9.5978 23.5753 9.58011 23.4422 9.63761C23.3933 9.6553 23.3268 9.67299 23.207 9.68626C23.2025 9.93395 23.2203 10.1595 23.2647 10.248C23.3046 10.3187 23.2735 11.2078 23.2247 11.6368C23.1937 11.88 23.1981 12.0614 23.2247 12.141C23.3223 12.4196 23.3445 12.6187 23.2957 13.0964C23.2647 13.375 23.2247 13.689 23.1848 13.7908C23.1271 13.9854 23.1315 14.4984 23.1848 14.7284C23.2336 14.8832 23.238 14.9938 23.2735 15.5909C23.309 16.3251 23.3046 16.4445 23.2292 16.5861C23.0827 16.8603 23.0694 17.0328 23.1626 17.1566C23.1892 17.1832 23.2025 17.391 23.1981 17.6122C23.1892 17.851 23.207 18.05 23.2469 18.112C23.2824 18.1872 23.2868 18.2535 23.2602 18.3066C23.207 18.4172 23.1404 18.8816 23.1537 19.0364C23.167 19.1071 23.1892 19.1823 23.207 19.2089C23.2735 19.2929 23.2735 19.4831 23.207 19.9563C23.1582 20.35 23.1626 20.3898 23.2513 20.5711C23.3357 20.7392 23.3445 20.8232 23.3179 21.1859C23.3046 21.4159 23.278 21.6769 23.2602 21.7697C23.2336 21.8759 23.238 21.9909 23.2602 22.0572C23.2868 22.1236 23.309 22.3403 23.3135 22.5349C23.3223 22.8224 23.3046 22.9197 23.238 23.0082C23.1848 23.0834 23.1582 23.1674 23.1582 23.2691H29.5567C29.5567 23.0303 29.5611 22.7251 29.5656 22.3138C29.5745 21.7874 29.5656 21.3319 29.5523 21.3053C29.5301 21.2744 29.5523 21.1903 29.5878 21.1151C29.641 21.0134 29.6588 20.8055 29.6632 20.3058C29.6632 19.3548 29.6632 19.3681 29.6144 19.3062C29.5833 19.2708 29.5656 19.1735 29.57 19.0806C29.57 18.9921 29.5612 18.8683 29.5434 18.8064C29.5212 18.7445 29.5257 18.6693 29.5567 18.6383C29.5789 18.6073 29.61 18.5056 29.61 18.4172C29.61 18.2535 29.539 17.6741 29.4902 17.5414C29.4768 17.5104 29.5257 17.3556 29.5966 17.2053C29.7253 16.9355 29.7253 16.9178 29.6588 16.7099H29.6854ZM25.0218 10.5178L25.2881 10.5355C25.43 10.5443 25.643 10.5797 25.7584 10.6062C25.8738 10.6372 26.0202 10.6682 26.0823 10.677C26.1444 10.6903 26.3264 10.7168 26.4817 10.7478C26.6858 10.7832 26.8012 10.7832 26.8988 10.7478C27.0319 10.6947 27.2937 10.646 27.5333 10.6372H27.6753L27.6842 10.9424C27.6842 11.1149 27.7019 11.367 27.7108 11.5041C27.7241 11.7075 27.7108 11.7562 27.6576 11.7606C27.6132 11.765 27.449 11.7739 27.2848 11.7872C27.1207 11.7916 26.9254 11.8093 26.85 11.827C26.7745 11.8447 26.4417 11.8668 26.109 11.8756C25.7806 11.8889 25.4434 11.911 25.3635 11.9243C25.1106 11.9685 25.0529 11.8137 25.0396 11.106L25.0307 10.5178H25.0218ZM25.044 18.6825C25.0751 18.5189 25.1594 18.1164 25.186 18.0766C25.1949 18.0589 25.3102 18.0677 25.4434 18.081C25.6031 18.1031 25.7451 18.0943 25.8516 18.05C25.9359 18.0191 26.0158 17.9881 26.0202 17.9881C26.0335 17.9881 26.1267 18.0368 26.2288 18.0899C26.3841 18.1739 26.4861 18.196 26.7257 18.1872C26.8855 18.1739 27.1828 18.165 27.3691 18.1606L27.7152 18.1518L27.7019 18.4437C27.7019 18.6073 27.7108 18.7931 27.7419 18.8639C27.7729 18.9568 27.7685 19.0939 27.733 19.3239L27.6797 19.66L27.5156 19.6335C27.4268 19.6113 27.3026 19.576 27.2405 19.5406C27.1162 19.4787 25.6475 19.4787 25.3014 19.5406L25.1283 19.5715V19.2575C25.1283 19.0806 25.1106 18.9169 25.0795 18.886C25.0484 18.855 25.0351 18.7666 25.0484 18.6825H25.044ZM27.3603 22.128C26.9565 22.1103 26.5971 22.0749 26.2909 22.0307C26.211 22.0219 26.1223 22.0307 26.0779 22.0572C26.0335 22.0794 25.8117 22.1103 25.5854 22.1236L25.1638 22.1413L25.1328 21.6326C25.1194 21.3496 25.0928 21.0753 25.0795 21.0134C25.0618 20.925 25.0795 20.9073 25.1771 20.9073C25.2437 20.9073 25.3724 20.9692 25.4655 21.0444C25.6253 21.1726 25.6697 21.1859 26.2021 21.2125C26.5127 21.2257 26.8145 21.2655 26.8722 21.2921C26.9831 21.3584 27.3203 21.3894 27.3203 21.3407C27.3203 21.3053 27.5954 21.1948 27.6886 21.1948C27.733 21.1948 27.7419 21.2876 27.7374 21.5398C27.7374 21.7299 27.7374 21.9467 27.7596 22.0174L27.7996 22.1457L27.3647 22.128H27.3603ZM27.7729 16.5949L27.7286 16.732L27.3558 16.7099C27.1473 16.6966 26.9343 16.6789 26.8855 16.6878C26.8367 16.6878 26.6947 16.6347 26.566 16.5728C26.2998 16.4401 26.1711 16.4136 26.0868 16.4666C26.0601 16.4843 25.927 16.5109 25.7939 16.5241C25.6564 16.533 25.5365 16.5595 25.5277 16.5861C25.4789 16.6568 25.3058 16.7364 25.1993 16.7364C25.1061 16.7364 25.1061 16.7232 25.1328 16.1791C25.1505 15.8695 25.1727 15.6042 25.186 15.5776C25.1993 15.5599 25.2526 15.5644 25.3102 15.582C25.3679 15.6086 25.47 15.6174 25.5321 15.6042C25.5942 15.5953 25.7584 15.6263 25.9004 15.6794C26.1666 15.7855 26.3353 15.8076 26.3796 15.7413C26.4062 15.7059 26.5571 15.7103 27.0319 15.7634C27.1739 15.7767 27.347 15.7634 27.4845 15.7192L27.7019 15.6484V15.7722C27.7019 15.843 27.7241 16.0243 27.7641 16.1791C27.8173 16.3826 27.8173 16.4932 27.7818 16.5949H27.7729ZM27.5289 14.3702C27.4268 14.3569 27.2582 14.3702 27.1517 14.3967C26.9964 14.4409 26.9298 14.4365 26.7967 14.3657C26.6148 14.2773 26.1755 14.2905 26.0601 14.3879C26.0246 14.4144 25.9492 14.4365 25.8871 14.4365C25.8294 14.4277 25.6297 14.4365 25.4522 14.4542L25.1283 14.4807L25.0751 14.2817C25.0218 14.0606 25.0396 13.3662 25.115 13.2335C25.1682 13.1273 25.2392 13.1229 25.4167 13.2158C25.5099 13.2644 25.6741 13.291 25.8738 13.2865C26.0468 13.2821 26.4329 13.2998 26.7169 13.3263C27.1828 13.375 27.2582 13.375 27.3248 13.3087C27.4179 13.2246 27.6354 13.2644 27.6576 13.375C27.6709 13.4236 27.6842 13.5785 27.6886 13.72C27.6886 13.8659 27.733 14.0561 27.7685 14.1402C27.8617 14.348 27.804 14.4055 27.5289 14.3702Z" fill="#30303D"/>
<path d="M17.3985 3.34374C17.1855 3.38355 17.0036 3.43662 17.0036 3.45431C17.0036 3.50739 14.1637 3.47643 13.6534 3.41893C13.3827 3.38797 13.2496 3.39239 13.0988 3.44547C12.9523 3.49854 12.8103 3.50297 12.5397 3.46758C12.2734 3.44547 12.0516 3.44989 11.7454 3.49412C11.4303 3.5472 11.0754 3.56047 10.2589 3.53393C9.66431 3.52066 8.84785 3.50739 8.42631 3.50297C8.00477 3.50297 7.51667 3.4897 7.35249 3.46758C7.11287 3.44105 6.92207 3.45431 6.6514 3.50739C6.24761 3.59585 5.87487 3.58258 5.45333 3.47201C5.25366 3.41893 4.36176 3.41893 3.50537 3.45431V3.46316H4.20646C4.1754 3.53835 4.15765 3.6445 4.14878 3.7595C4.14878 3.93199 4.14434 4.1266 4.14434 4.18852C4.13546 4.25487 4.16209 4.40967 4.20646 4.53794C4.24196 4.6662 4.26414 4.81658 4.25971 4.88293C4.24196 5.73655 4.17984 6.3425 4.13103 6.41326C4.09997 6.46192 4.11328 6.51941 4.1754 6.56364C4.24196 6.60345 4.27746 6.71845 4.26858 6.8246C4.23752 7.13863 4.2464 7.26247 4.29964 7.8463C4.33514 8.16917 4.31295 8.43013 4.27302 8.47878C4.14878 8.5982 4.12215 9.48279 4.23308 9.61548C4.26858 9.66413 4.29964 9.73047 4.32183 9.84989C4.78774 9.84989 5.20928 9.8322 5.36903 9.78797C5.50214 9.74816 7.16168 9.77028 7.96039 9.81451C8.413 9.84105 8.75466 9.83662 8.90109 9.80566C9.42026 9.70393 9.79299 9.68182 10.6849 9.72605C11.204 9.75259 11.7898 9.79239 11.9806 9.8322C12.3444 9.8897 13.3029 9.88085 13.7288 9.81893C14.0173 9.77028 14.2258 9.76143 15.3396 9.72163C16.7107 9.68182 16.9326 9.68624 17.1988 9.75701C17.7091 9.89854 18.033 9.91624 18.2637 9.81893C18.3125 9.79239 18.703 9.77912 19.1157 9.78355C19.5594 9.78797 19.9322 9.77028 20.0475 9.7349C20.1895 9.69951 20.3093 9.69509 20.4114 9.72163C20.6199 9.7747 21.4852 9.83662 21.7736 9.82335C21.9067 9.81008 22.0443 9.78797 22.0931 9.76586C22.2484 9.69509 22.6034 9.69509 23.4864 9.76143C24.223 9.80566 24.294 9.80124 24.6312 9.71278C24.9463 9.62874 25.1016 9.61548 25.776 9.64201C26.2065 9.65086 26.6901 9.6774 26.8676 9.69509C27.0673 9.72163 27.2803 9.71278 27.4045 9.69067C27.5288 9.66413 27.9326 9.64201 28.2964 9.63317C28.8333 9.62432 29.0153 9.63759 29.1794 9.70393C29.317 9.75701 29.4767 9.78355 29.6675 9.77912L29.6409 3.40124C29.1927 3.40124 28.6248 3.40124 27.8571 3.40124C26.8765 3.40124 26.0245 3.40124 25.9757 3.42335C25.918 3.44547 25.7627 3.42335 25.6207 3.39239C25.4299 3.34374 25.0439 3.32163 24.1121 3.32163C22.3372 3.33047 22.3638 3.32163 22.2484 3.3747C22.1819 3.40566 21.9999 3.42335 21.8269 3.41893C21.6627 3.41893 21.432 3.42778 21.3166 3.44547C21.2012 3.46758 21.0592 3.46316 21.0015 3.4322C20.9439 3.41009 20.7531 3.38355 20.5889 3.37912C20.2827 3.37912 19.2044 3.45874 18.956 3.50297C18.8983 3.51624 18.6098 3.47201 18.3303 3.40124C17.8245 3.2774 17.7934 3.2774 17.4073 3.33932L17.3985 3.34374ZM5.866 8.04091L5.89706 7.77553C5.91481 7.634 5.97693 7.4217 6.02574 7.3067C6.08343 7.1917 6.14111 7.04575 6.15442 6.98382C6.18105 6.9219 6.22986 6.74056 6.2831 6.58576C6.34966 6.3823 6.34966 6.26731 6.2831 6.17C6.18548 6.03731 6.0923 5.77636 6.07455 5.53752L6.06568 5.39599L6.64252 5.38714C6.96644 5.38272 7.43679 5.36503 7.68972 5.35618C8.07132 5.34291 8.16007 5.35176 8.16894 5.40926C8.17782 5.45349 8.19557 5.61713 8.22219 5.78078C8.23107 5.94443 8.26657 6.13904 8.29763 6.21423C8.33312 6.28942 8.37306 6.62114 8.39081 6.95286C8.41743 7.28016 8.46181 7.6163 8.48399 7.69592C8.5683 7.94803 8.27988 8.00552 6.95757 8.02322L5.86156 8.03648L5.866 8.04091ZM21.0992 7.95687C20.793 7.93033 20.0431 7.8463 19.9677 7.81976C19.9366 7.81091 19.9499 7.69592 19.9765 7.56323C20.0165 7.39958 19.9987 7.26247 19.9188 7.15632C19.8612 7.07228 19.8035 6.99267 19.8035 6.98825C19.8035 6.97498 19.8922 6.8821 19.9943 6.78037C20.1496 6.62557 20.1895 6.52384 20.1718 6.285C20.1451 6.12577 20.1274 5.82944 20.1185 5.64367L20.1008 5.29868L20.6466 5.30753C20.9527 5.30753 21.2988 5.29426 21.432 5.26772C21.605 5.23676 21.8624 5.24118 22.2883 5.27214L22.914 5.32522L22.8652 5.48887C22.8253 5.57733 22.7587 5.70117 22.6921 5.76751C22.5768 5.89136 22.5812 7.35535 22.701 7.70034L22.7587 7.87284H22.173C21.8446 7.87284 21.5384 7.89495 21.4808 7.92591C21.4231 7.95687 21.2589 7.97014 21.0992 7.95687ZM27.5199 5.62156C27.4888 6.02405 27.4223 6.3823 27.3424 6.68749C27.3247 6.7671 27.3424 6.85556 27.3912 6.89979C27.4311 6.94402 27.4933 7.16516 27.5155 7.39073L27.551 7.81091L26.6014 7.8463C26.0733 7.85957 25.5631 7.89053 25.4477 7.9038C25.2835 7.92149 25.248 7.9038 25.248 7.80649C25.248 7.74015 25.3634 7.61188 25.5009 7.51458C25.7405 7.35093 25.7627 7.31112 25.8115 6.78037C25.8337 6.47076 25.9092 6.17 25.958 6.1125C26.0822 6.00193 26.1355 5.66579 26.0467 5.66579C25.9802 5.66579 25.7716 5.39156 25.7716 5.30311C25.7716 5.25888 25.9447 5.24561 26.415 5.25445C26.77 5.25445 27.1738 5.24561 27.3069 5.22792L27.5465 5.18811L27.5155 5.62156H27.5199ZM17.1944 5.25445L17.4517 5.29426L17.4118 5.67021C17.3896 5.87809 17.3541 6.09039 17.3718 6.13904C17.3718 6.18769 17.2742 6.32923 17.1589 6.45749C16.9104 6.72729 16.8616 6.85556 16.9636 6.93517C16.9947 6.96171 17.0479 7.0944 17.0701 7.22709C17.0879 7.3642 17.1367 7.48362 17.1855 7.49246C17.3186 7.53669 17.465 7.71361 17.4695 7.81976C17.4695 7.91264 17.4473 7.91264 16.4311 7.89053C15.8543 7.87726 15.3573 7.85514 15.3085 7.8463C15.2775 7.83303 15.2819 7.77995 15.3174 7.72246C15.3662 7.66496 15.384 7.56323 15.3573 7.50131C15.3396 7.43939 15.3973 7.27574 15.4949 7.1342C15.6901 6.86883 15.7345 6.70076 15.6103 6.65653C15.5437 6.62999 15.5526 6.47961 15.6502 6.00635C15.6724 5.86482 15.6502 5.69232 15.5659 5.55521L15.4328 5.33849H15.6635C15.7966 5.33849 16.1338 5.31637 16.4223 5.27214C16.8039 5.21907 17.008 5.21465 17.1988 5.25003L17.1944 5.25445ZM13.0455 5.51541C13.0233 5.61713 13.0455 5.78521 13.0988 5.89136C13.1831 6.04174 13.1742 6.1125 13.0411 6.24519C12.8769 6.42653 12.9035 6.8644 13.0854 6.9794C13.1343 7.01478 13.1786 7.08997 13.1786 7.1519C13.1609 7.20939 13.1875 7.40843 13.2141 7.58534L13.2629 7.90822L12.8902 7.96129C12.4775 8.01879 11.1819 8.0011 10.9334 7.93033C10.7337 7.87726 10.7248 7.80649 10.8979 7.62957C10.9866 7.53669 11.0354 7.37304 11.0265 7.17401C11.0177 7.00152 11.0487 6.61672 11.0975 6.33365C11.1863 5.86924 11.1863 5.79405 11.062 5.72771C10.9067 5.63483 10.9777 5.4181 11.1863 5.39599C11.275 5.38272 11.5679 5.36945 11.8297 5.36503C12.1004 5.3606 12.4554 5.3208 12.6151 5.28099C13.0011 5.18811 13.1121 5.24561 13.0455 5.51541Z" fill="#30303D"/>
<path d="M17.3985 23.0037C17.1855 23.0435 17.0036 23.0966 17.0036 23.1143C17.0036 23.1674 14.1637 23.1364 13.6534 23.0789C13.3827 23.0479 13.2496 23.0524 13.0988 23.1054C12.9523 23.1585 12.8103 23.1629 12.5397 23.1276C12.2734 23.1054 12.0516 23.1099 11.7454 23.1541C11.4303 23.2072 11.0754 23.2204 10.2589 23.1939C9.66431 23.1806 8.84785 23.1674 8.42631 23.1629C8.00477 23.1629 7.51667 23.1497 7.35249 23.1276C7.11287 23.101 6.92207 23.1143 6.6514 23.1674C6.24761 23.2558 5.87487 23.2426 5.45333 23.132C5.25366 23.0789 4.36176 23.0789 3.50537 23.1143V23.1231H4.20646C4.1754 23.1983 4.15765 23.3045 4.14878 23.4195C4.14878 23.592 4.14434 23.7866 4.14434 23.8485C4.13546 23.9148 4.16209 24.0696 4.20646 24.1979C4.24196 24.3262 4.26414 24.4766 4.25971 24.5429C4.24196 25.3965 4.17984 26.0025 4.13103 26.0732C4.09997 26.1219 4.11328 26.1794 4.1754 26.2236C4.24196 26.2634 4.27746 26.3784 4.26858 26.4846C4.23752 26.7986 4.2464 26.9224 4.29964 27.5063C4.33514 27.8291 4.31295 28.0901 4.27302 28.1388C4.14878 28.2582 4.12215 29.1428 4.23308 29.2754C4.26858 29.3241 4.29964 29.3904 4.32183 29.5099C4.78774 29.5099 5.20928 29.4922 5.36903 29.4479C5.50214 29.4081 7.16168 29.4303 7.96039 29.4745C8.413 29.501 8.75466 29.4966 8.90109 29.4656C9.42026 29.3639 9.79299 29.3418 10.6849 29.386C11.204 29.4126 11.7898 29.4524 11.9806 29.4922C12.3444 29.5497 13.3029 29.5408 13.7288 29.4789C14.0173 29.4303 14.2258 29.4214 15.3396 29.3816C16.7107 29.3418 16.9326 29.3462 17.1988 29.417C17.7091 29.5585 18.033 29.5762 18.2637 29.4789C18.3125 29.4524 18.703 29.4391 19.1157 29.4435C19.5594 29.4479 19.9322 29.4303 20.0475 29.3949C20.1895 29.3595 20.3093 29.3551 20.4114 29.3816C20.6199 29.4347 21.4852 29.4966 21.7736 29.4833C21.9067 29.4701 22.0443 29.4479 22.0931 29.4258C22.2484 29.3551 22.6034 29.3551 23.4864 29.4214C24.223 29.4656 24.294 29.4612 24.6312 29.3728C24.9463 29.2887 25.1016 29.2754 25.776 29.302C26.2065 29.3108 26.6901 29.3374 26.8676 29.3551C27.0673 29.3816 27.2803 29.3728 27.4045 29.3506C27.5288 29.3241 27.9326 29.302 28.2964 29.2931C28.8333 29.2843 29.0153 29.2976 29.1794 29.3639C29.317 29.417 29.4767 29.4435 29.6675 29.4391L29.6409 23.0612C29.1927 23.0612 28.6248 23.0612 27.8571 23.0612C26.8765 23.0612 26.0245 23.0612 25.9757 23.0833C25.918 23.1054 25.7627 23.0833 25.6207 23.0524C25.4299 23.0037 25.0439 22.9816 24.1121 22.9816C22.3372 22.9904 22.3638 22.9816 22.2484 23.0347C22.1819 23.0656 21.9999 23.0833 21.8269 23.0789C21.6627 23.0789 21.432 23.0878 21.3166 23.1054C21.2012 23.1276 21.0592 23.1231 21.0015 23.0922C20.9439 23.0701 20.7531 23.0435 20.5889 23.0391C20.2827 23.0391 19.2044 23.1187 18.956 23.1629C18.8983 23.1762 18.6098 23.132 18.3303 23.0612C17.8245 22.9374 17.7934 22.9374 17.4073 22.9993L17.3985 23.0037ZM5.866 27.7009L5.89706 27.4355C5.91481 27.294 5.97693 27.0817 6.02574 26.9667C6.08343 26.8517 6.14111 26.7057 6.15442 26.6438C6.18105 26.5819 6.22986 26.4005 6.2831 26.2457C6.34966 26.0423 6.34966 25.9273 6.2831 25.83C6.18548 25.6973 6.0923 25.4363 6.07455 25.1975L6.06568 25.056L6.64252 25.0471C6.96644 25.0427 7.43679 25.025 7.68972 25.0162C8.07132 25.0029 8.16007 25.0117 8.16894 25.0692C8.17782 25.1135 8.19557 25.2771 8.22219 25.4408C8.23107 25.6044 8.26657 25.799 8.29763 25.8742C8.33312 25.9494 8.37306 26.2811 8.39081 26.6128C8.41743 26.9401 8.46181 27.2763 8.48399 27.3559C8.5683 27.608 8.27988 27.6655 6.95757 27.6832L5.86156 27.6965L5.866 27.7009ZM21.0992 27.6168C20.793 27.5903 20.0431 27.5063 19.9677 27.4797C19.9366 27.4709 19.9499 27.3559 19.9765 27.2232C20.0165 27.0596 19.9987 26.9224 19.9188 26.8163C19.8612 26.7323 19.8035 26.6526 19.8035 26.6482C19.8035 26.635 19.8922 26.5421 19.9943 26.4403C20.1496 26.2855 20.1895 26.1838 20.1718 25.945C20.1451 25.7857 20.1274 25.4894 20.1185 25.3036L20.1008 24.9587L20.6466 24.9675C20.9527 24.9675 21.2988 24.9542 21.432 24.9277C21.605 24.8967 21.8624 24.9012 22.2883 24.9321L22.914 24.9852L22.8652 25.1488C22.8253 25.2373 22.7587 25.3611 22.6921 25.4275C22.5768 25.5513 22.5812 27.0153 22.701 27.3603L22.7587 27.5328H22.173C21.8446 27.5328 21.5384 27.5549 21.4808 27.5859C21.4231 27.6168 21.2589 27.6301 21.0992 27.6168ZM27.5199 25.2815C27.4888 25.684 27.4223 26.0423 27.3424 26.3475C27.3247 26.4271 27.3424 26.5155 27.3912 26.5598C27.4311 26.604 27.4933 26.8251 27.5155 27.0507L27.551 27.4709L26.6014 27.5063C26.0733 27.5195 25.5631 27.5505 25.4477 27.5638C25.2835 27.5815 25.248 27.5638 25.248 27.4665C25.248 27.4001 25.3634 27.2719 25.5009 27.1745C25.7405 27.0109 25.7627 26.9711 25.8115 26.4403C25.8337 26.1307 25.9092 25.83 25.958 25.7725C26.0822 25.6619 26.1355 25.3258 26.0467 25.3258C25.9802 25.3258 25.7716 25.0515 25.7716 24.9631C25.7716 24.9188 25.9447 24.9056 26.415 24.9144C26.77 24.9144 27.1738 24.9056 27.3069 24.8879L27.5465 24.8481L27.5155 25.2815H27.5199ZM17.1944 24.9144L17.4517 24.9542L17.4118 25.3302C17.3896 25.5381 17.3541 25.7504 17.3718 25.799C17.3718 25.8477 17.2742 25.9892 17.1589 26.1175C16.9104 26.3873 16.8616 26.5155 16.9636 26.5951C16.9947 26.6217 17.0479 26.7544 17.0701 26.8871C17.0879 27.0242 17.1367 27.1436 17.1855 27.1524C17.3186 27.1967 17.465 27.3736 17.4695 27.4797C17.4695 27.5726 17.4473 27.5726 16.4311 27.5505C15.8543 27.5372 15.3573 27.5151 15.3085 27.5063C15.2775 27.493 15.2819 27.4399 15.3174 27.3824C15.3662 27.3249 15.384 27.2232 15.3573 27.1613C15.3396 27.0994 15.3973 26.9357 15.4949 26.7942C15.6901 26.5288 15.7345 26.3607 15.6103 26.3165C15.5437 26.29 15.5526 26.1396 15.6502 25.6663C15.6724 25.5248 15.6502 25.3523 15.5659 25.2152L15.4328 24.9985H15.6635C15.7966 24.9985 16.1338 24.9763 16.4223 24.9321C16.8039 24.879 17.008 24.8746 17.1988 24.91L17.1944 24.9144ZM13.0455 25.1754C13.0233 25.2771 13.0455 25.4452 13.0988 25.5513C13.1831 25.7017 13.1742 25.7725 13.0411 25.9052C12.8769 26.0865 12.9035 26.5244 13.0854 26.6394C13.1343 26.6748 13.1786 26.7499 13.1786 26.8119C13.1609 26.8694 13.1875 27.0684 13.2141 27.2453L13.2629 27.5682L12.8902 27.6213C12.4775 27.6788 11.1819 27.6611 10.9334 27.5903C10.7337 27.5372 10.7248 27.4665 10.8979 27.2895C10.9866 27.1967 11.0354 27.033 11.0265 26.834C11.0177 26.6615 11.0487 26.2767 11.0975 25.9936C11.1863 25.5292 11.1863 25.454 11.062 25.3877C10.9067 25.2948 10.9777 25.0781 11.1863 25.056C11.275 25.0427 11.5679 25.0294 11.8297 25.025C12.1004 25.0206 12.4554 24.9808 12.6151 24.941C13.0011 24.8481 13.1121 24.9056 13.0455 25.1754Z" fill="#30303D"/>
</g>
<defs>
<clipPath id="clip0_29_36469">
<rect width="33" height="32" fill="white"/>
</clipPath>
</defs>
</svg>
