<svg width="231" height="120" viewBox="0 0 231 120" fill="none" xmlns="http://www.w3.org/2000/svg">
<path d="M9.24994 95.69C9.95994 95.95 10.5799 95.98 11.2599 95.78C11.7199 95.65 12.0399 95.63 12.4399 95.69C12.4699 95.69 12.5299 95.7 12.5799 95.71L12.4999 95.2C12.3599 94.42 12.3599 93.96 12.4999 93.27C12.6899 92.23 12.6499 92.26 13.3599 92.36C13.8899 92.43 14.7999 92.48 16.4799 92.51C17.1199 92.51 19.6099 92.34 19.7099 92.26C19.8499 92.18 19.8899 92.17 20.3199 92.25C20.6699 92.32 20.6699 92.13 20.4899 94.75C20.4699 94.99 20.1966 95.11 19.6699 95.11C19.2499 95.11 18.8499 95.17 18.7999 95.22C18.7399 95.3 18.6099 95.29 18.3999 95.21C18.0499 95.08 16.8499 95.13 16.3799 95.31C15.7299 95.54 15.0099 95.7 14.3799 95.71C14.1499 95.71 13.8599 95.74 13.5899 95.77C13.8099 95.77 14.0299 95.78 14.2499 95.78C14.9599 95.78 16.3299 95.83 17.3299 95.87C18.6999 95.94 19.2999 95.91 19.8199 95.79C20.3299 95.69 20.7099 95.68 21.1499 95.74C21.6099 95.82 21.8399 95.81 22.0899 95.69C22.3399 95.56 22.5599 95.55 23.0199 95.63C23.5099 95.71 25.2599 95.78 26.6799 95.8C26.6699 95.75 26.6599 95.7 26.6499 95.65C26.5299 95.19 26.4999 94.75 26.5699 94.67C26.7399 94.45 26.8599 87.85 26.7199 86.73C26.6599 86.25 26.6799 85.69 26.7499 85.48C26.9899 84.86 27.0399 83.54 26.8499 83.38C26.6399 83.2 26.5199 81.31 26.6999 81.06C27.0199 80.66 27.4499 79.86 27.4499 79.7C27.4499 79.6 27.3399 79.34 27.1899 79.12C27.0099 78.86 26.9399 78.57 26.9999 78.29C27.0299 78.05 27.0599 77.66 27.0599 77.42C27.0499 77.19 27.0499 76.8 27.0499 76.56C27.0399 76.32 27.0399 75.87 27.0399 75.58C27.0399 74.15 26.8999 72.18 26.7899 72.06C26.5399 71.76 26.4599 70.38 26.6499 69.65C26.7699 69.11 26.7899 68.82 26.6799 68.6C26.5399 68.33 26.5599 68.25 26.8699 68.02C27.3299 67.68 27.3999 66.9 26.9499 66.64C26.6699 66.46 26.6499 66.16 26.7399 64.1C26.7499 63.74 26.7499 63.02 26.7099 62.5C26.6799 61.9 26.7099 61.51 26.8099 61.47C26.9599 61.39 27.1999 60.91 27.2299 60.58C27.2399 60.5 27.1299 60.29 26.9899 60.14C26.6899 59.8 26.6999 58.26 27.0199 57.35C27.1699 56.94 27.1899 56.73 27.0599 56.6C26.9499 56.47 26.9599 56.26 27.1299 55.85C27.3699 55.25 27.2999 54.85 26.9399 54.59C26.8299 54.5 26.6499 54.21 26.5499 53.94C26.3799 53.51 26.3999 53.43 26.7199 53.05C27.0499 52.68 27.0499 52.62 26.8699 51.91C26.6599 51.09 26.6499 50.7 26.7199 47.41C26.7499 46.22 26.7299 45.19 26.6799 45.13C26.6099 45.06 26.6799 44.87 26.7899 44.7C26.9599 44.47 27.0299 44 27.0399 42.87C27.0399 40.72 27.0499 40.75 26.8899 40.61C26.7899 40.53 26.7399 40.31 26.7499 40.1C26.7499 39.9 26.7199 39.62 26.6699 39.48C26.5999 39.34 26.6099 39.17 26.7099 39.1C26.7799 39.03 26.8799 38.8 26.8899 38.6C26.8999 38.23 26.6499 36.92 26.4999 36.62C26.4599 36.55 26.6099 36.2 26.8499 35.86C27.2699 35.25 27.2699 35.21 27.0599 34.74C26.9399 34.48 26.7699 34.26 26.6999 34.26C26.5199 34.26 26.6699 30.82 26.8699 30.2C26.9799 29.87 26.9699 29.71 26.7899 29.53C26.6199 29.35 26.6099 29.18 26.7199 28.85C26.7999 28.53 26.7899 28.26 26.6499 27.89C26.4799 27.51 26.4399 27.08 26.5399 26.09C26.5999 25.37 26.6499 24.38 26.6599 23.87C26.6599 23.36 26.7199 22.77 26.7799 22.57C26.8599 22.28 26.8399 22.05 26.6599 21.72C26.3799 21.23 26.4199 20.78 26.7799 20.27C26.7899 20.25 26.8099 20.22 26.8199 20.19C26.5599 20.19 26.2699 20.21 25.9399 20.22C24.0699 20.3 23.7199 20.32 23.2399 20.43C22.5199 20.57 20.9099 20.58 20.2999 20.44C19.9799 20.35 18.9999 20.25 18.1199 20.18C16.6199 20.07 15.9999 20.12 15.1299 20.35C14.8799 20.42 14.3099 20.43 13.5499 20.36C12.2099 20.25 9.41994 20.18 9.19994 20.27C8.84994 20.4 7.80994 20.44 6.79994 20.38C6.60994 20.35 6.39994 20.38 6.21994 20.41C6.24994 21.04 6.16994 22.47 6.04994 23.24C5.94994 23.79 5.96994 24.2 6.05994 24.38C6.37994 25.01 6.44994 25.46 6.29994 26.54C6.19994 27.17 6.05994 27.88 5.93994 28.11C5.74994 28.55 5.75994 29.71 5.94994 30.23C6.09994 30.58 6.12994 30.83 6.23994 32.18C6.34994 33.84 6.33994 34.11 6.09994 34.43C5.62994 35.05 5.56994 35.44 5.87994 35.72C5.95994 35.78 5.99994 36.25 5.98994 36.75C5.95994 37.29 6.01994 37.74 6.13994 37.88C6.24994 38.05 6.25994 38.2 6.17994 38.32C5.99994 38.57 5.78994 39.62 5.82994 39.97C5.86994 40.13 5.93994 40.3 6.00994 40.36C6.22994 40.55 6.22994 40.98 6.00994 42.05C5.85994 42.94 5.86994 43.03 6.14994 43.44C6.42994 43.82 6.44994 44.01 6.36994 44.83C6.32994 45.35 6.24994 45.94 6.17994 46.15C6.09994 46.39 6.10994 46.65 6.18994 46.8C6.26994 46.95 6.33994 47.44 6.36994 47.88C6.39994 48.53 6.33994 48.75 6.11994 48.95C5.78994 49.26 5.76994 49.65 6.05994 50.23C6.17994 50.52 6.22994 50.72 6.11994 50.85C6.04994 50.95 5.93994 51.37 5.89994 51.78C5.81994 52.42 5.86994 52.56 6.14994 52.84C6.47994 53.17 6.47994 53.19 6.25994 53.7C6.07994 54.09 6.06994 54.36 6.15994 54.81C6.22994 55.14 6.23994 55.43 6.16994 55.46C5.97994 55.56 5.95994 56 6.13994 56.38C6.43994 57.04 6.30994 63.03 5.98994 63.31C5.77994 63.49 5.92994 64.62 6.23994 65.31C6.40994 65.64 6.41994 65.82 6.29994 65.91C6.21994 65.99 6.10994 66.19 6.05994 66.36C5.99994 66.53 5.94994 66.68 5.91994 66.7C5.88994 66.73 5.92994 66.88 6.02994 67.04C6.10994 67.19 6.17994 67.59 6.21994 67.92C6.22994 68.24 6.28994 68.64 6.33994 68.8C6.41994 68.97 6.40994 69.24 6.30994 69.41C6.15994 69.75 6.34994 70.91 6.60994 71.13C6.78994 71.3 6.64994 71.77 6.25994 72.36C6.01994 72.7 5.97994 72.88 6.10994 73.17C6.18994 73.36 6.21994 74.03 6.18994 74.63C6.14994 75.51 6.18994 75.79 6.37994 76C6.56994 76.22 6.59994 76.45 6.48994 77.48C6.36994 78.99 6.23994 80.99 6.24994 81.35C6.31994 82.64 6.38994 83.06 6.50994 83.3C6.68994 83.62 6.62994 85.7 6.42994 85.98C6.35994 86.09 6.31994 86.71 6.36994 87.47C6.44994 88.85 6.46994 89.14 6.40994 89.88C6.39994 90.13 6.44994 90.41 6.55994 90.5C6.65994 90.6 6.67994 90.74 6.62994 90.85C6.54994 91.01 6.43994 92.44 6.38994 94.45C6.37994 94.6 6.41994 94.96 6.46994 95.26C6.49994 95.37 6.51994 95.49 6.52994 95.6C7.77994 95.55 8.94994 95.57 9.22994 95.68L9.24994 95.69ZM20.7299 33.52C20.8999 33.98 20.9099 34.23 20.7899 34.46L20.6499 34.77L19.4299 34.72C18.7499 34.69 18.0599 34.65 17.9099 34.67C17.7599 34.67 17.2899 34.55 16.8699 34.41C15.9999 34.11 15.5799 34.05 15.3199 34.17C15.2399 34.21 14.7899 34.27 14.3599 34.3C13.9199 34.32 13.5299 34.38 13.4899 34.44C13.3399 34.6 12.7699 34.78 12.4199 34.78C12.1199 34.78 12.1199 34.75 12.1999 33.52C12.2599 32.82 12.3199 32.22 12.3699 32.16C12.4099 32.12 12.5899 32.13 12.7699 32.17C12.9599 32.23 13.2799 32.25 13.4899 32.22C13.6999 32.2 14.2199 32.27 14.6799 32.39C15.5399 32.63 16.0899 32.68 16.2299 32.53C16.3099 32.45 16.8099 32.46 18.3499 32.58C18.8099 32.61 19.3799 32.58 19.8199 32.48L20.5299 32.32V32.6C20.5199 32.76 20.5999 33.17 20.7399 33.52H20.7299ZM20.6999 58.14L20.8099 58.48L20.2299 58.43C19.9399 58.4 19.2499 58.45 18.7099 58.56C18.1799 58.66 17.1699 58.76 16.4899 58.79C15.7799 58.82 15.1299 58.88 15.0299 58.95C14.8899 59.02 14.7399 59.02 14.5199 58.94C14.1999 58.82 13.7399 58.83 12.7999 59C12.5199 59.06 12.3399 59.02 12.2499 58.93C12.0699 58.72 12.0799 58.21 12.2799 57.94C12.3799 57.82 12.4499 57.33 12.4499 56.85C12.4499 55.73 12.5999 55.42 13.0699 55.53C13.2499 55.57 13.6399 55.62 13.9199 55.66C14.2099 55.69 14.7899 55.83 15.2399 55.97C16.1499 56.27 17.2599 56.31 19.0899 56.07C20.6599 55.87 20.9199 55.96 20.7399 56.59C20.5899 57.17 20.5699 57.71 20.7099 58.14H20.6999ZM19.4399 46.97C18.1199 46.93 16.9599 46.85 15.9599 46.75C15.6999 46.73 15.4099 46.75 15.2699 46.81C15.1299 46.86 14.3999 46.93 13.6599 46.96L12.2899 47L12.1899 45.85C12.1499 45.21 12.0699 44.59 12.0199 44.45C11.9599 44.25 12.0199 44.21 12.3399 44.21C12.5599 44.21 12.9799 44.35 13.2799 44.52C13.8099 44.81 13.9499 44.84 15.6799 44.9C16.6899 44.93 17.6799 45.02 17.8599 45.08C18.2199 45.23 19.3199 45.3 19.3199 45.19C19.3199 45.11 20.2199 44.86 20.5099 44.86C20.6499 44.86 20.6899 45.07 20.6599 45.64C20.6499 46.07 20.6699 46.56 20.7299 46.72L20.8499 47.01L19.4399 46.97ZM12.3599 37.81C12.3599 37.81 12.7599 37.79 13.1899 37.82C13.7199 37.87 14.1699 37.85 14.5199 37.75C14.7999 37.68 15.0599 37.61 15.0699 37.61C15.1099 37.61 15.4199 37.72 15.7499 37.84C16.2499 38.03 16.5799 38.08 17.3699 38.06C17.8999 38.03 18.8499 38.01 19.4599 38L20.5799 37.98L20.5399 38.64C20.5299 39.01 20.5699 39.43 20.6599 39.59C20.7599 39.8 20.7399 40.11 20.6299 40.63L20.4499 41.39L19.9099 41.33C19.6199 41.28 19.2199 41.2 19.0099 41.12C18.6099 40.98 13.8299 40.98 12.6999 41.12L12.1299 41.19V40.48C12.1399 40.08 12.0699 39.71 11.9799 39.64C11.8799 39.57 11.8399 39.37 11.8799 39.18C11.9799 38.81 12.2499 37.9 12.3399 37.81H12.3599ZM12.0999 50.09C12.3499 49.62 12.5399 49.48 12.8799 49.58C12.9899 49.62 13.7399 49.7 14.5299 49.75C16.0799 49.87 16.5999 49.88 17.3899 49.85C17.6699 49.83 18.3299 49.85 18.8499 49.89C19.5999 49.96 19.8499 49.94 20.1499 49.8C20.6499 49.57 20.6199 49.57 20.7499 49.96C20.8099 50.18 20.7499 50.38 20.5999 50.55C20.4099 50.76 20.3799 50.96 20.4499 51.39C20.5099 51.7 20.5699 52.22 20.5999 52.55L20.6599 53.14H19.0699C18.1999 53.14 16.2999 53.18 14.8799 53.21L12.2599 53.27L12.3599 52.94C12.6399 51.7 12.6199 51.39 12.2799 50.94C11.9499 50.54 11.9299 50.48 12.1299 50.09H12.0999ZM20.6899 69.63C20.7899 69.94 20.8399 70.23 20.7699 70.27C20.7299 70.3 19.8299 70.34 18.7599 70.36C16.8099 70.4 15.2799 70.53 14.0599 70.79C13.6899 70.86 13.1499 70.91 12.8399 70.88L12.3099 70.83L12.2299 70.11C12.1899 69.71 12.1899 69.14 12.2399 68.85L12.3399 68.31L13.1399 68.28C13.6099 68.27 14.1199 68.33 14.3699 68.41C14.9199 68.63 15.6599 68.62 15.9599 68.4C16.1399 68.28 16.3299 68.25 16.6699 68.31C17.2399 68.41 17.4599 68.4 18.7799 68.28C19.6899 68.2 20.6199 68.21 20.7999 68.32C20.8299 68.34 20.7599 68.51 20.6799 68.71C20.5399 68.97 20.5399 69.19 20.6799 69.63H20.6899ZM12.6199 73.88C12.8599 73.94 13.2699 73.99 13.5499 73.99C13.8999 73.99 14.0999 74.06 14.1699 74.17C14.2399 74.32 14.4299 74.33 15.5099 74.27C16.2999 74.24 16.9099 74.25 17.0799 74.33C17.6099 74.52 18.4699 74.51 18.7699 74.3C18.9399 74.19 19.2299 74.1 19.4099 74.1C19.5899 74.1 19.8399 74.07 19.9599 74.04C20.1299 73.99 20.2199 74.12 20.3599 74.56C20.4699 74.87 20.5799 75.17 20.6499 75.24C20.6899 75.29 20.7299 75.72 20.7499 76.19C20.7566 76.7434 20.6333 77.02 20.3799 77.02C19.3999 77.02 17.7699 77.14 17.5099 77.24C17.1499 77.38 16.2999 77.38 15.8099 77.24C15.5299 77.18 15.1699 77.19 14.5599 77.31C14.0699 77.4 13.4199 77.49 13.0799 77.51L12.4699 77.56L12.4299 76.88C12.3699 76.07 12.3699 75.88 12.3999 75.45C12.4099 75.27 12.3699 74.83 12.3299 74.45L12.2299 73.78L12.6199 73.88ZM20.1499 89.09C19.7499 89.09 19.0299 89.07 18.5699 89.06C17.4299 89.04 15.0899 89.12 14.8099 89.2C14.6999 89.23 14.0599 89.26 13.4399 89.28C12.2899 89.32 12.2799 89.32 12.3599 89.08C12.4699 88.74 12.4699 88.45 12.3599 87.78C12.1799 86.84 12.2499 86.77 13.5399 86.77C14.1599 86.77 15.0499 86.85 15.5199 86.93C16.0899 87.04 16.7699 87.08 17.4699 87.04C18.1099 87.01 18.5799 87.03 18.6499 87.1C18.7899 87.27 19.9499 87.23 20.2199 87.04C20.6399 86.77 20.7699 87.04 20.8399 88.13L20.8999 89.1H20.1499V89.09ZM20.8799 82.81C21.0499 83.38 20.8899 83.43 18.6999 83.48C16.4099 83.53 15.6899 83.53 14.7399 83.49C14.2399 83.47 14.0299 83.5 13.8699 83.65C13.7299 83.79 13.5199 83.85 13.1599 83.82L12.6299 83.78L12.5999 82.86C12.5899 82.35 12.5699 81.79 12.5899 81.62C12.5899 81.43 12.5999 81.04 12.5999 80.75C12.6099 80.45 12.6799 80.18 12.7499 80.14C12.9199 80.06 13.6199 80.16 13.8599 80.29C14.1499 80.45 18.1999 80.44 18.4799 80.27C18.6199 80.19 18.7199 80.18 18.7799 80.26C18.8999 80.4 19.6799 80.4 20.3499 80.26C20.9199 80.14 21.0799 80.19 20.8599 80.39C20.7099 80.55 20.7099 82.27 20.8699 82.81H20.8799ZM21.0199 64C21.0499 64.3 21.0299 64.6 20.9899 64.65C20.8199 64.82 20.2299 64.86 19.9599 64.73C19.6599 64.58 15.5099 64.55 15.3199 64.69C15.2599 64.74 14.9599 64.78 14.6399 64.78C14.3199 64.78 14.0299 64.82 13.9899 64.88C13.9499 64.94 13.4599 64.99 12.9399 64.99H11.9799L12.0499 64.64C12.1099 64.45 12.2299 63.97 12.3399 63.58C12.5299 62.86 12.5099 62.18 12.2599 61.84C12.0399 61.55 12.0799 61.49 12.4499 61.58C12.6299 61.62 13.1799 61.7 13.6799 61.74C14.1799 61.79 14.7599 61.89 14.9799 61.98C15.2799 62.1 15.8899 62.13 17.5399 62.11C18.7199 62.1 19.9399 62.06 20.2599 62.01C20.6799 61.96 20.8099 61.97 20.8299 62.08C20.8399 62.17 20.8699 62.5 20.8999 62.83C20.9299 63.15 20.9799 63.68 21.0099 64H21.0199ZM19.9899 29.42C19.6599 29.39 19.0999 29.42 18.7599 29.48C18.2599 29.58 18.0399 29.57 17.6099 29.41C17.0099 29.21 15.5899 29.24 15.2099 29.46C15.0999 29.52 14.8499 29.57 14.6399 29.57C14.4499 29.55 13.8099 29.57 13.2299 29.61L12.1799 29.67L12.0099 29.22C11.8299 28.72 11.8999 27.15 12.1299 26.85C12.3099 26.61 12.5299 26.6 13.1099 26.81C13.4099 26.92 13.9399 26.98 14.5899 26.97C15.1599 26.96 16.4099 27 17.3299 27.06C18.8399 27.17 19.0899 27.17 19.3099 27.02C19.6099 26.83 20.3199 26.92 20.3899 27.17C20.4299 27.28 20.4699 27.63 20.4899 27.95C20.4999 28.28 20.6299 28.71 20.7499 28.9C21.0499 29.37 20.8599 29.5 19.9699 29.42H19.9899ZM12.6899 20.75C13.1499 20.77 13.8399 20.85 14.2099 20.91C14.5799 20.98 15.0599 21.05 15.2599 21.07C15.4699 21.1 16.0499 21.16 16.5599 21.23C17.2299 21.31 17.5999 21.31 17.9199 21.23C18.3499 21.11 19.2099 21 19.9899 20.98H20.4499L20.4799 21.67C20.4899 22.06 20.5399 22.63 20.5599 22.94C20.5999 23.4 20.5699 23.51 20.3799 23.52C20.2399 23.53 19.6999 23.55 19.1599 23.58C18.6199 23.59 17.9999 23.63 17.7499 23.67C17.4999 23.71 16.4199 23.76 15.3399 23.78C14.2699 23.81 13.1799 23.86 12.9099 23.89C12.0899 23.99 11.8999 23.64 11.8599 22.04L11.8299 20.71L12.6899 20.75Z" fill="#30303D"/>
<path d="M5.8999 17.88C5.9599 18.01 6.0099 18.21 5.9699 18.37C5.8999 19.01 5.9399 19.64 6.0699 19.96V17.88H5.8999Z" fill="#30303D"/>
<path d="M225.98 80.62C225.98 80.52 225.87 80.26 225.72 80.04C225.54 79.78 225.47 79.49 225.53 79.21C225.56 78.97 225.59 78.58 225.59 78.34C225.58 78.11 225.58 77.72 225.58 77.48C225.57 77.24 225.57 76.79 225.57 76.5C225.57 75.07 225.43 73.1 225.32 72.98C225.07 72.68 224.99 71.3 225.18 70.57C225.3 70.03 225.32 69.74 225.21 69.52C225.07 69.25 225.09 69.17 225.4 68.94C225.86 68.6 225.93 67.82 225.48 67.56C225.2 67.38 225.18 67.08 225.27 65.02C225.28 64.66 225.28 63.94 225.24 63.42C225.21 62.82 225.24 62.43 225.34 62.39C225.49 62.31 225.73 61.83 225.76 61.5C225.77 61.42 225.66 61.21 225.52 61.06C225.22 60.72 225.23 59.18 225.55 58.27C225.7 57.86 225.72 57.65 225.59 57.52C225.48 57.39 225.49 57.18 225.66 56.77C225.9 56.17 225.83 55.77 225.47 55.51C225.36 55.42 225.18 55.13 225.08 54.86C224.91 54.43 224.93 54.35 225.25 53.97C225.58 53.6 225.58 53.54 225.4 52.83C225.19 52.01 225.18 51.62 225.25 48.33C225.28 47.14 225.26 46.11 225.21 46.05C225.14 45.98 225.21 45.79 225.32 45.62C225.49 45.39 225.56 44.92 225.57 43.79C225.57 41.64 225.58 41.67 225.42 41.53C225.32 41.45 225.27 41.23 225.28 41.02C225.28 40.82 225.25 40.54 225.2 40.4C225.13 40.26 225.14 40.09 225.24 40.02C225.31 39.95 225.41 39.72 225.42 39.52C225.43 39.15 225.18 37.84 225.03 37.54C224.99 37.47 225.14 37.12 225.38 36.78C225.8 36.17 225.8 36.13 225.59 35.66C225.47 35.4 225.3 35.18 225.23 35.18C225.05 35.18 225.2 31.74 225.4 31.12C225.51 30.79 225.5 30.63 225.32 30.45C225.15 30.27 225.14 30.1 225.25 29.77C225.33 29.45 225.32 29.18 225.18 28.81C225.01 28.43 224.97 28 225.07 27.01C225.13 26.29 225.18 25.3 225.19 24.79C225.19 24.28 225.25 23.69 225.31 23.49C225.39 23.2 225.37 22.97 225.19 22.64C224.91 22.15 224.95 21.7 225.31 21.19C225.49 20.95 225.5 19.87 225.39 18.83H225.36V19.68C225.11 19.64 224.77 19.62 224.39 19.61C223.82 19.61 223.2 19.61 222.99 19.61C222.77 19.61 222.27 19.63 221.85 19.68C221.43 19.72 220.94 19.75 220.73 19.74C217.94 19.71 215.96 19.64 215.74 19.58C215.59 19.54 215.39 19.56 215.26 19.63C215.14 19.71 214.75 19.75 214.4 19.74C213.37 19.7 212.97 19.71 211.06 19.77C210.01 19.81 209.15 19.78 208.99 19.73C208.6 19.58 205.72 19.54 205.28 19.67C205.12 19.71 204.9 19.75 204.52 19.78C204.5 20.34 204.56 20.85 204.7 21.05C204.82 21.21 204.73 23.22 204.58 24.19C204.48 24.74 204.5 25.15 204.59 25.33C204.91 25.96 204.98 26.41 204.83 27.49C204.73 28.12 204.59 28.83 204.47 29.06C204.28 29.5 204.29 30.66 204.48 31.18C204.63 31.53 204.66 31.78 204.77 33.13C204.88 34.79 204.87 35.06 204.63 35.38C204.16 36 204.1 36.39 204.41 36.67C204.49 36.73 204.53 37.2 204.52 37.7C204.49 38.24 204.55 38.69 204.67 38.83C204.78 39 204.79 39.15 204.71 39.27C204.53 39.52 204.32 40.57 204.36 40.92C204.4 41.08 204.47 41.25 204.54 41.31C204.76 41.5 204.76 41.93 204.54 43C204.39 43.89 204.4 43.98 204.68 44.39C204.96 44.77 204.98 44.96 204.9 45.78C204.86 46.3 204.78 46.89 204.71 47.1C204.63 47.34 204.64 47.6 204.72 47.75C204.8 47.9 204.87 48.39 204.9 48.83C204.93 49.48 204.87 49.7 204.65 49.9C204.32 50.21 204.3 50.6 204.59 51.18C204.71 51.47 204.76 51.67 204.65 51.8C204.58 51.9 204.47 52.32 204.43 52.73C204.35 53.37 204.4 53.51 204.68 53.79C205.01 54.12 205.01 54.14 204.79 54.65C204.61 55.04 204.6 55.31 204.69 55.76C204.76 56.09 204.77 56.38 204.7 56.41C204.51 56.51 204.49 56.95 204.67 57.33C204.97 57.99 204.84 63.98 204.52 64.26C204.31 64.44 204.46 65.57 204.77 66.26C204.94 66.59 204.95 66.77 204.83 66.86C204.75 66.94 204.64 67.14 204.59 67.31C204.53 67.48 204.48 67.63 204.45 67.65C204.42 67.68 204.46 67.83 204.56 67.99C204.64 68.14 204.71 68.54 204.75 68.87C204.76 69.19 204.82 69.59 204.87 69.75C204.95 69.92 204.94 70.19 204.84 70.36C204.69 70.7 204.88 71.86 205.14 72.08C205.32 72.25 205.18 72.72 204.79 73.31C204.55 73.65 204.51 73.83 204.64 74.12C204.72 74.31 204.75 74.98 204.72 75.58C204.68 76.46 204.72 76.74 204.91 76.95C205.1 77.17 205.13 77.4 205.02 78.43C204.9 79.94 204.77 81.94 204.78 82.3C204.85 83.59 204.92 84.01 205.04 84.25C205.22 84.57 205.16 86.65 204.96 86.93C204.89 87.04 204.85 87.66 204.9 88.42C204.98 89.8 205 90.09 204.94 90.83C204.93 91.08 204.98 91.36 205.09 91.45C205.19 91.55 205.21 91.69 205.16 91.8C205.08 91.96 204.97 93.38 204.93 95.37C205.07 95.35 205.17 95.33 205.21 95.31C205.43 95.17 207.26 95.21 208.12 95.38C208.41 95.43 209.19 95.44 209.85 95.4C210.07 95.39 210.45 95.38 210.93 95.37C210.91 94.99 210.93 94.65 211.02 94.22C211.21 93.18 211.17 93.21 211.88 93.31C212.41 93.38 213.32 93.43 215 93.46C215.64 93.46 218.13 93.29 218.23 93.21C218.37 93.13 218.41 93.12 218.84 93.2C219.17 93.27 219.19 93.1 219.03 95.41C220.06 95.43 220.78 95.46 220.86 95.49C220.97 95.54 221.58 95.52 222.22 95.43C222.87 95.36 223.58 95.27 223.83 95.24C224.13 95.2 224.69 95.18 225.15 95.2C225.28 93.73 225.36 88.63 225.24 87.66C225.18 87.18 225.2 86.62 225.27 86.41C225.51 85.79 225.56 84.47 225.37 84.31C225.16 84.13 225.04 82.24 225.22 81.99C225.54 81.59 225.97 80.79 225.97 80.63L225.98 80.62ZM218.55 30.37C218.22 30.34 217.66 30.37 217.32 30.43C216.82 30.53 216.6 30.52 216.17 30.36C215.57 30.16 214.15 30.19 213.77 30.41C213.66 30.47 213.41 30.52 213.2 30.52C213.01 30.5 212.37 30.52 211.79 30.56L210.74 30.62L210.57 30.17C210.39 29.67 210.46 28.1 210.69 27.8C210.87 27.56 211.09 27.55 211.67 27.76C211.97 27.87 212.5 27.93 213.15 27.92C213.72 27.91 214.97 27.95 215.89 28.01C217.4 28.12 217.65 28.12 217.87 27.97C218.17 27.78 218.88 27.87 218.95 28.12C218.99 28.23 219.03 28.58 219.05 28.9C219.06 29.23 219.19 29.66 219.31 29.85C219.61 30.32 219.42 30.45 218.53 30.37H218.55ZM219.26 59.08L219.37 59.42L218.79 59.37C218.5 59.34 217.81 59.39 217.27 59.5C216.74 59.6 215.73 59.7 215.05 59.73C214.34 59.76 213.69 59.82 213.59 59.89C213.45 59.96 213.3 59.96 213.08 59.88C212.76 59.76 212.3 59.77 211.36 59.94C211.08 60 210.9 59.96 210.81 59.87C210.63 59.66 210.64 59.15 210.84 58.88C210.94 58.76 211.01 58.27 211.01 57.79C211.01 56.67 211.16 56.36 211.63 56.47C211.81 56.51 212.2 56.56 212.48 56.6C212.77 56.63 213.35 56.77 213.8 56.91C214.71 57.21 215.82 57.25 217.65 57.01C219.22 56.81 219.48 56.9 219.3 57.53C219.15 58.11 219.13 58.65 219.27 59.08H219.26ZM218 47.91C216.68 47.87 215.52 47.79 214.52 47.69C214.26 47.67 213.97 47.69 213.83 47.75C213.69 47.8 212.96 47.87 212.22 47.9L210.85 47.94L210.75 46.79C210.71 46.15 210.63 45.53 210.58 45.39C210.52 45.19 210.58 45.15 210.9 45.15C211.12 45.15 211.54 45.29 211.84 45.46C212.37 45.75 212.51 45.78 214.24 45.84C215.25 45.87 216.24 45.96 216.42 46.02C216.78 46.17 217.88 46.24 217.88 46.13C217.88 46.05 218.78 45.8 219.07 45.8C219.21 45.8 219.25 46.01 219.22 46.58C219.21 47.01 219.23 47.5 219.29 47.66L219.41 47.95L218 47.91ZM219.34 35.4L219.2 35.71L217.98 35.66C217.3 35.63 216.61 35.59 216.46 35.61C216.31 35.61 215.84 35.49 215.42 35.35C214.55 35.05 214.13 34.99 213.87 35.11C213.79 35.15 213.34 35.21 212.91 35.24C212.47 35.26 212.08 35.32 212.04 35.38C211.89 35.54 211.32 35.72 210.97 35.72C210.67 35.72 210.67 35.69 210.75 34.46C210.81 33.76 210.87 33.16 210.92 33.1C210.96 33.06 211.14 33.07 211.32 33.11C211.51 33.17 211.83 33.19 212.04 33.16C212.25 33.14 212.77 33.21 213.23 33.33C214.09 33.57 214.64 33.62 214.78 33.47C214.86 33.39 215.36 33.4 216.9 33.52C217.36 33.55 217.93 33.52 218.37 33.42L219.08 33.26V33.54C219.07 33.7 219.15 34.11 219.29 34.46C219.46 34.92 219.47 35.17 219.35 35.4H219.34ZM210.39 21.66L211.25 21.7C211.71 21.72 212.4 21.8 212.77 21.86C213.14 21.93 213.62 22 213.82 22.02C214.03 22.05 214.61 22.11 215.12 22.18C215.79 22.26 216.16 22.26 216.48 22.18C216.91 22.06 217.77 21.95 218.55 21.93H219.01L219.04 22.62C219.05 23.01 219.1 23.58 219.12 23.89C219.16 24.35 219.13 24.46 218.94 24.47C218.8 24.48 218.26 24.5 217.72 24.53C217.18 24.54 216.56 24.58 216.31 24.62C216.06 24.66 214.98 24.71 213.9 24.73C212.83 24.76 211.74 24.81 211.47 24.84C210.65 24.94 210.46 24.59 210.42 22.99L210.39 21.66ZM210.46 40.12C210.56 39.75 210.83 38.84 210.92 38.75C210.95 38.71 211.32 38.73 211.75 38.76C212.28 38.81 212.73 38.79 213.08 38.69C213.36 38.62 213.62 38.55 213.63 38.55C213.67 38.55 213.98 38.66 214.31 38.78C214.81 38.97 215.14 39.02 215.93 39C216.46 38.97 217.41 38.95 218.02 38.94L219.14 38.92L219.1 39.58C219.09 39.95 219.13 40.37 219.22 40.53C219.32 40.74 219.3 41.05 219.19 41.57L219.01 42.33L218.47 42.27C218.18 42.22 217.78 42.14 217.57 42.06C217.17 41.92 212.39 41.92 211.26 42.06L210.69 42.13V41.42C210.7 41.02 210.63 40.65 210.54 40.58C210.44 40.51 210.4 40.31 210.44 40.12H210.46ZM210.65 51.03C210.9 50.56 211.09 50.42 211.43 50.52C211.54 50.56 212.29 50.64 213.08 50.69C214.63 50.81 215.15 50.82 215.93 50.79C216.21 50.77 216.87 50.79 217.39 50.83C218.14 50.9 218.39 50.88 218.69 50.74C219.19 50.51 219.16 50.51 219.29 50.9C219.35 51.12 219.29 51.32 219.14 51.49C218.95 51.7 218.92 51.9 218.99 52.33C219.05 52.64 219.11 53.16 219.14 53.49L219.2 54.08H217.61C216.74 54.08 214.84 54.12 213.42 54.15L210.8 54.21L210.9 53.88C211.18 52.64 211.16 52.33 210.82 51.88C210.49 51.48 210.47 51.42 210.67 51.03H210.65ZM219.24 70.57C219.34 70.88 219.39 71.17 219.32 71.21C219.28 71.24 218.38 71.28 217.31 71.3C215.36 71.34 213.83 71.47 212.61 71.73C212.24 71.8 211.7 71.85 211.39 71.82L210.86 71.77L210.78 71.05C210.74 70.65 210.74 70.08 210.79 69.79L210.89 69.25L211.69 69.22C212.16 69.21 212.67 69.27 212.92 69.35C213.47 69.57 214.21 69.56 214.51 69.34C214.69 69.22 214.88 69.19 215.22 69.25C215.79 69.35 216.01 69.34 217.33 69.22C218.24 69.14 219.17 69.15 219.35 69.26C219.38 69.28 219.31 69.45 219.23 69.65C219.09 69.91 219.09 70.13 219.23 70.57H219.24ZM211.17 74.82C211.41 74.88 211.82 74.93 212.1 74.93C212.45 74.93 212.65 75 212.72 75.11C212.79 75.26 212.98 75.27 214.06 75.21C214.85 75.18 215.46 75.19 215.63 75.27C216.16 75.46 217.02 75.45 217.32 75.24C217.49 75.13 217.78 75.04 217.96 75.04C218.14 75.04 218.39 75.01 218.51 74.98C218.68 74.93 218.77 75.06 218.91 75.5C219.02 75.81 219.13 76.11 219.2 76.18C219.24 76.23 219.28 76.66 219.3 77.13C219.307 77.6833 219.183 77.96 218.93 77.96C217.95 77.96 216.32 78.08 216.06 78.18C215.7 78.32 214.85 78.32 214.36 78.18C214.08 78.12 213.72 78.13 213.11 78.25C212.62 78.34 211.97 78.43 211.63 78.45L211.02 78.5L210.98 77.82C210.92 77.01 210.92 76.82 210.95 76.39C210.96 76.21 210.92 75.77 210.88 75.39L210.78 74.72L211.17 74.82ZM218.7 90.03C218.3 90.03 217.58 90.01 217.12 90C215.98 89.98 213.64 90.06 213.36 90.14C213.25 90.17 212.61 90.2 211.99 90.22C210.84 90.26 210.83 90.26 210.91 90.02C211.02 89.68 211.02 89.39 210.91 88.72C210.73 87.78 210.8 87.71 212.09 87.71C212.71 87.71 213.6 87.79 214.07 87.87C214.64 87.98 215.32 88.02 216.02 87.98C216.66 87.95 217.13 87.97 217.2 88.04C217.34 88.21 218.5 88.17 218.77 87.98C219.19 87.71 219.32 87.98 219.39 89.07L219.45 90.04H218.7V90.03ZM219.43 83.75C219.6 84.32 219.44 84.37 217.25 84.42C214.96 84.47 214.24 84.47 213.29 84.43C212.79 84.41 212.58 84.44 212.42 84.59C212.28 84.73 212.07 84.79 211.71 84.76L211.18 84.72L211.15 83.8C211.14 83.29 211.12 82.73 211.14 82.56C211.14 82.37 211.15 81.98 211.15 81.69C211.16 81.39 211.23 81.12 211.3 81.08C211.47 81 212.17 81.1 212.41 81.23C212.7 81.39 216.75 81.38 217.03 81.21C217.17 81.13 217.27 81.12 217.33 81.2C217.45 81.34 218.23 81.34 218.9 81.2C219.47 81.08 219.63 81.13 219.41 81.33C219.26 81.49 219.26 83.21 219.42 83.75H219.43ZM219.54 65.59C219.37 65.76 218.78 65.8 218.51 65.67C218.21 65.52 214.06 65.49 213.87 65.63C213.81 65.68 213.51 65.72 213.19 65.72C212.87 65.72 212.58 65.76 212.54 65.82C212.5 65.88 212.01 65.93 211.49 65.93H210.53L210.6 65.58C210.66 65.39 210.78 64.91 210.89 64.52C211.08 63.8 211.06 63.12 210.81 62.78C210.59 62.49 210.63 62.43 211 62.52C211.18 62.56 211.73 62.64 212.23 62.68C212.73 62.73 213.31 62.83 213.53 62.92C213.83 63.04 214.44 63.07 216.09 63.05C217.27 63.04 218.49 63 218.81 62.95C219.23 62.9 219.36 62.91 219.38 63.02C219.39 63.11 219.42 63.44 219.45 63.77C219.48 64.09 219.53 64.62 219.56 64.94C219.59 65.24 219.57 65.54 219.53 65.59H219.54Z" fill="#30303D"/>
<path d="M225.51 98.74C225.54 98.4 225.51 97.96 225.45 97.73C225.42 97.59 225.33 97.24 225.25 96.88V98.74H225.5H225.51Z" fill="#30303D"/>
<path d="M6.75008 20.38C7.76008 20.44 8.80008 20.4 9.15008 20.27C9.37008 20.18 12.1601 20.25 13.5001 20.36C14.2601 20.43 14.8301 20.42 15.0801 20.35C15.9501 20.12 16.5801 20.07 18.0701 20.18C18.9401 20.25 19.9301 20.35 20.2501 20.44C20.8601 20.58 22.4701 20.57 23.1901 20.43C23.6701 20.32 24.0201 20.3 25.8901 20.22C26.2301 20.21 26.5101 20.2 26.7701 20.19C28.2901 20.14 28.6301 20.17 29.0101 20.32C29.8701 20.66 30.4101 20.7 30.8001 20.48C30.8801 20.42 31.5301 20.39 32.2301 20.4C32.9801 20.42 33.6001 20.38 33.8001 20.29C34.0401 20.21 34.2401 20.2 34.4101 20.26C34.7601 20.39 36.2101 20.54 36.7001 20.51C36.9201 20.48 37.1601 20.43 37.2401 20.38C37.5001 20.22 38.1001 20.22 39.5801 20.38C40.8101 20.49 40.9401 20.48 41.5101 20.28C42.0401 20.08 42.3001 20.06 43.4401 20.12C44.1601 20.15 44.9801 20.21 45.2701 20.26C45.6001 20.32 45.9601 20.31 46.1701 20.25C46.3801 20.19 47.0601 20.14 47.6701 20.12C48.5701 20.1 48.8801 20.14 49.1501 20.3C49.5801 20.54 50.1201 20.55 50.9201 20.34C51.3201 20.25 51.6001 20.22 51.7801 20.3C51.9201 20.35 52.5001 20.43 53.0701 20.46C53.9601 20.52 54.1501 20.48 54.5401 20.28C55.0001 20.04 55.0201 20.04 55.7301 20.2C56.2701 20.33 56.6501 20.34 57.2701 20.27C57.7301 20.22 58.1301 20.21 58.1701 20.26C58.3101 20.4 58.9201 20.41 59.4501 20.28C60.3601 20.06 68.6701 20.15 69.0501 20.38C69.3001 20.53 70.8701 20.42 71.8201 20.2C72.2801 20.08 72.5301 20.07 72.6501 20.16C72.7601 20.22 73.0401 20.3 73.2701 20.33C73.5101 20.37 73.7101 20.41 73.7401 20.43C73.7801 20.45 73.9901 20.42 74.2101 20.35C74.4201 20.29 74.9701 20.24 75.4301 20.21C75.8701 20.2 76.4301 20.16 76.6501 20.12C76.8901 20.06 77.2601 20.07 77.5001 20.14C77.9701 20.25 79.5801 20.11 79.8801 19.92C80.1201 19.79 80.7701 19.89 81.5901 20.17C82.0601 20.34 82.3101 20.37 82.7101 20.28C82.9701 20.22 83.9001 20.2 84.7301 20.22C85.9501 20.25 86.3401 20.22 86.6301 20.08C86.9301 19.94 87.2501 19.92 88.6801 20C90.7701 20.09 93.5501 20.17 94.0401 20.16C95.8301 20.11 96.4101 20.06 96.7401 19.97C97.1801 19.84 100.07 19.88 100.45 20.03C100.6 20.08 101.46 20.11 102.52 20.07C104.43 20.01 104.83 20 105.86 20.04C106.21 20.04 106.59 20.01 106.72 19.93C106.86 19.86 107.05 19.84 107.2 19.88C107.42 19.94 109.4 20.02 112.19 20.04C112.4 20.04 112.9 20.02 113.31 19.98C113.73 19.93 114.22 19.9 114.45 19.91C114.48 19.91 114.54 19.91 114.59 19.91V15.65C114.62 15.57 114.62 15.46 114.59 15.28C114.59 15.23 114.58 15.18 114.56 15.13C114.49 14.83 114.36 14.45 114.27 14.29C114.16 14.06 114.13 13.91 114.27 13.68C114.45 13.37 114.46 12.92 114.39 11.57C114.36 11.1 114.39 10.7 114.46 10.67C114.53 10.64 114.58 10.32 114.58 9.97998V5.25998C114.32 5.28998 114.06 5.31998 113.79 5.34998C113.15 5.43998 112.54 5.45998 112.43 5.40998C112.12 5.28998 102.98 5.20998 101.43 5.30998C100.76 5.34998 99.9901 5.33998 99.7001 5.28998C98.8401 5.11998 97.0101 5.07998 96.7901 5.21998C96.5401 5.36998 93.9201 5.45998 93.5701 5.32998C93.0201 5.09998 91.9101 4.78998 91.6801 4.78998C91.5401 4.78998 91.1801 4.86998 90.8801 4.97998C90.5201 5.10998 90.1201 5.15998 89.7301 5.11998C89.4001 5.09998 88.8601 5.07998 88.5201 5.07998C88.2001 5.08998 87.6601 5.08998 87.3301 5.08998C87.0001 5.09998 86.3701 5.09998 85.9701 5.09998C83.9901 5.09998 81.2601 5.20998 81.0901 5.28998C80.6701 5.46998 78.7601 5.52998 77.7501 5.38998C77.0001 5.29998 76.6001 5.28998 76.2901 5.36998C75.9201 5.46998 75.8101 5.45998 75.4901 5.22998C75.0201 4.89998 73.9401 4.84998 73.5801 5.16998C73.3301 5.36998 72.9201 5.38998 70.0601 5.31998C69.5601 5.31998 68.5601 5.31998 67.8401 5.33998C67.0101 5.35998 66.4701 5.33998 66.4101 5.26998C66.3001 5.15998 65.6301 4.98998 65.1801 4.96998C65.0701 4.96998 64.7801 5.03998 64.5701 5.13998C64.1001 5.35998 61.9601 5.34998 60.7001 5.11998C60.1301 5.00998 59.8401 4.99998 59.6601 5.08998C59.4801 5.16998 59.1901 5.15998 58.6201 5.03998C57.7901 4.86998 57.2301 4.91998 56.8701 5.17998C56.7501 5.25998 56.3401 5.38998 55.9701 5.45998C55.3701 5.57998 55.2601 5.56998 54.7401 5.33998C54.2301 5.09998 54.1401 5.09998 53.1601 5.22998C52.0201 5.37998 51.4801 5.38998 46.9201 5.34998C45.2701 5.32998 43.8401 5.34998 43.7601 5.37998C43.6601 5.42998 43.4001 5.37998 43.1601 5.29998C42.8401 5.17998 42.1901 5.12998 40.6201 5.11998C37.6401 5.11998 37.6801 5.11998 37.4901 5.22998C37.3801 5.29998 37.0701 5.33998 36.7801 5.32998C36.5001 5.32998 36.1101 5.34998 35.9201 5.38998C35.7301 5.43998 35.4901 5.42998 35.3901 5.35998C35.2901 5.30998 34.9701 5.23998 34.7001 5.22998C34.1901 5.22998 32.3701 5.39998 31.9601 5.50998C31.8601 5.53998 31.3801 5.42998 30.9101 5.25998C30.0601 4.95998 30.0101 4.95998 29.3601 5.10998C29.0001 5.19998 28.7001 5.31998 28.7001 5.36998C28.7001 5.49998 23.9301 5.39998 23.0701 5.25998C22.6101 5.17998 22.3901 5.18998 22.1401 5.31998C21.8901 5.43998 21.6601 5.44998 21.2001 5.36998C20.7601 5.30998 20.3801 5.31998 19.8701 5.41998C19.3401 5.53998 18.7501 5.56998 17.3801 5.49998C16.3801 5.45998 15.0101 5.41998 14.3001 5.40998C13.5901 5.40998 12.7801 5.36998 12.5001 5.31998C12.1001 5.25998 11.7801 5.27998 11.3201 5.40998C10.6401 5.60998 10.0201 5.57998 9.31008 5.31998C8.98008 5.18998 7.48008 5.17998 6.04008 5.25998V10.02C6.05008 10.36 6.00008 10.68 5.93008 10.71C5.86008 10.74 5.83008 11.14 5.86008 11.61C5.93008 12.96 5.92008 13.41 5.74008 13.72C5.60008 13.95 5.63008 14.1 5.74008 14.33C5.84008 14.49 5.96008 14.87 6.03008 15.17C6.04008 15.22 6.06008 15.27 6.06008 15.32C6.10008 15.5 6.10008 15.61 6.06008 15.69V17.81V19.89V20.35C6.06008 20.35 6.13008 20.34 6.16008 20.33C6.33008 20.3 6.55008 20.27 6.74008 20.3L6.75008 20.38ZM109.11 9.90998C109.21 9.65998 108.94 9.65998 112.57 9.78998C112.903 9.80331 113.07 9.99998 113.07 10.38C113.07 10.68 113.15 10.97 113.22 11.01C113.33 11.05 113.32 11.15 113.21 11.3C113.03 11.55 113.1 12.42 113.35 12.76C113.67 13.23 113.89 13.75 113.91 14.2C113.92 14.47 113.99 14.86 114.06 15.08L114.16 15.47L113.2 15.55C112.12 15.65 111.48 15.65 110.53 15.55C109.09 15.41 109.13 15.44 109.27 14.93C109.37 14.55 109.43 13.89 109.47 12.68C109.48 12.22 109.23 10.42 109.12 10.35C109.01 10.25 109 10.22 109.11 9.90998ZM101.74 13.38C101.89 12.97 101.95 12.48 101.89 11.97C101.85 11.51 101.87 11.17 101.97 11.12C102.21 11.02 102.15 10.18 101.88 9.98998C101.51 9.68998 101.88 9.58998 103.39 9.53998L104.73 9.49998V10.04C104.7 10.33 104.69 10.85 104.68 11.18C104.65 12 104.77 13.69 104.88 13.89C104.92 13.97 104.96 14.43 104.99 14.88C105.05 15.71 105.05 15.72 104.71 15.66C104.24 15.58 103.84 15.58 102.91 15.66C101.61 15.79 101.51 15.74 101.51 14.81C101.51 14.36 101.62 13.72 101.73 13.38H101.74ZM92.5201 11.25C92.4101 11.15 92.3901 11.08 92.5101 11.03C92.7001 10.94 92.7001 10.38 92.5101 9.89998C92.3401 9.48998 92.4101 9.36998 92.6901 9.52998C92.9101 9.63998 95.3001 9.63998 96.0401 9.51998C96.8301 9.39998 96.9001 9.50998 96.9701 11.09C97.0401 12.74 97.0401 13.26 96.9901 13.95C96.9601 14.31 97.0001 14.46 97.2101 14.58C97.4001 14.68 97.4901 14.83 97.4501 15.09L97.4001 15.47L96.1201 15.49C95.4101 15.5 94.6401 15.51 94.4001 15.5C94.1401 15.5 93.6001 15.5 93.1901 15.5C92.7701 15.5 92.4001 15.44 92.3401 15.39C92.2301 15.27 92.3701 14.76 92.5501 14.59C92.7701 14.38 92.7501 11.46 92.5201 11.26V11.25ZM83.6601 15.49C83.7401 15.32 83.8101 15.02 83.8101 14.82C83.8101 14.57 83.9101 14.42 84.0601 14.37C84.2701 14.32 84.2801 14.18 84.2001 13.4C84.1601 12.83 84.1701 12.39 84.2801 12.27C84.5401 11.89 84.5301 11.27 84.2401 11.05C84.0901 10.93 83.9601 10.72 83.9601 10.59C83.9601 10.46 83.9201 10.28 83.8801 10.19C83.8101 10.07 83.9901 9.99998 84.6001 9.89998C85.0301 9.81998 85.4501 9.73998 85.5401 9.68998C85.6101 9.65998 86.2101 9.62998 86.8601 9.61998C87.6268 9.61331 88.0101 9.70331 88.0101 9.88998C88.0001 10.6 88.1801 11.77 88.3201 11.96C88.5101 12.22 88.5201 12.83 88.3201 13.19C88.2401 13.39 88.2501 13.65 88.4201 14.09C88.5501 14.44 88.6701 14.91 88.7001 15.16L88.7701 15.6L87.8301 15.63C86.7101 15.67 86.4401 15.67 85.8501 15.65C85.6001 15.65 84.9901 15.67 84.4601 15.7L83.5301 15.77L83.6701 15.49H83.6601ZM75.9401 9.58998C75.9401 9.58998 76.2001 9.61998 76.4801 9.67998C76.8401 9.77998 77.1501 9.77998 77.7601 9.67998C78.1901 9.60998 78.5901 9.56998 78.6501 9.61998C78.6901 9.64998 78.7501 10.3 78.7801 11.07C78.8401 12.48 79.0201 13.58 79.3801 14.46C79.4801 14.73 79.5501 15.12 79.5101 15.34L79.4401 15.72L78.4401 15.78C77.8901 15.81 77.1001 15.81 76.6901 15.78L75.9401 15.71L75.9001 15.13C75.8901 14.79 75.9701 14.42 76.0801 14.24C76.3801 13.84 76.3701 13.31 76.0601 13.09C75.8901 12.96 75.8501 12.82 75.9301 12.58C76.0701 12.17 76.0501 12.01 75.8901 11.06C75.7801 10.4 75.7901 9.72998 75.9401 9.59998V9.58998ZM66.6301 15.63C66.6901 15.5 66.8001 15.1 66.8501 14.74C66.9201 14.38 67.0601 13.96 67.1801 13.8C67.3501 13.58 67.3901 13.14 67.3601 11.95C67.3401 11.1 67.2901 10.22 67.2201 9.98998C67.1501 9.68998 67.1601 9.58998 67.3201 9.57998C67.4401 9.56998 67.9001 9.54998 68.3601 9.52998C68.8001 9.50998 69.5401 9.46998 69.9801 9.44998C70.4001 9.42998 70.8101 9.43998 70.8801 9.46998C71.1201 9.58998 71.1701 10.02 70.9901 10.21C70.7801 10.43 70.7501 13.42 70.9401 13.56C71.0101 13.6 71.0701 13.82 71.0701 14.05C71.0701 14.27 71.1301 14.49 71.2101 14.52C71.2901 14.55 71.3601 14.9 71.3601 15.28V15.97L70.8801 15.92C70.6201 15.88 69.9501 15.79 69.4101 15.71C68.4101 15.57 67.4701 15.59 67.0001 15.77C66.6001 15.93 66.5201 15.9 66.6401 15.63H66.6301ZM58.2301 15.2C58.2901 15.07 58.3501 14.79 58.4101 14.59C58.4501 14.38 58.6401 13.96 58.8401 13.64C59.2501 12.98 59.3101 12.18 58.9701 10.86C58.6901 9.72998 58.8101 9.53998 59.6901 9.66998C60.4901 9.77998 61.2401 9.78998 61.8401 9.68998L62.3101 9.60998L62.2401 10.03C62.2001 10.24 62.2701 10.74 62.4201 11.13C62.5601 11.51 62.7001 12.24 62.7401 12.73C62.7801 13.24 62.8701 13.71 62.9601 13.78C63.0601 13.88 63.0601 13.99 62.9501 14.15C62.7801 14.38 62.8001 14.71 63.0401 15.39C63.1201 15.59 63.0701 15.72 62.9401 15.79C62.6501 15.92 61.9401 15.91 61.5701 15.77C61.4001 15.7 60.7201 15.65 60.0601 15.65C58.5101 15.65 58.0801 15.54 58.2301 15.2ZM49.9801 15.35C50.0401 15.27 50.1401 14.73 50.2101 14.16C50.3701 13.04 50.3901 12.67 50.3401 12.1C50.3101 11.9 50.3401 11.42 50.3901 11.05C50.4901 10.51 50.4601 10.33 50.2601 10.11C49.9401 9.74998 49.9401 9.76998 50.4801 9.67998C50.7801 9.63998 51.0601 9.67998 51.3001 9.78998C51.5901 9.92998 51.8701 9.94998 52.4601 9.89998C52.8901 9.85998 53.6101 9.80998 54.0701 9.78998L54.8901 9.74998V10.9C54.9101 11.53 54.9501 12.9 55.0001 13.92L55.0901 15.81L54.6301 15.74C52.9101 15.54 52.4801 15.55 51.8601 15.8C51.3101 16.04 51.2201 16.05 50.6801 15.91C50.0301 15.73 49.8301 15.59 49.9701 15.35H49.9801ZM42.9701 15.06C43.3701 14.68 43.4101 14.58 43.4901 13.33C43.5301 12.6 43.6501 11.89 43.7401 11.76C43.9501 11.5 44.0401 10.71 43.8901 10.71C43.7801 10.71 43.4301 10.06 43.4301 9.84998C43.4301 9.74998 43.7201 9.71998 44.5101 9.73998C45.1101 9.73998 45.7901 9.72998 46.0101 9.68998L46.4101 9.59998L46.3601 10.62C46.3101 11.57 46.2001 12.41 46.0601 13.13C46.0301 13.32 46.0601 13.53 46.1401 13.63C46.2101 13.73 46.3101 14.26 46.3501 14.79L46.4101 15.78L44.8201 15.85C43.9301 15.88 43.0701 15.94 42.8801 15.97C42.6001 16.01 42.5501 15.97 42.5501 15.74C42.5501 15.58 42.7401 15.28 42.9801 15.06H42.9701ZM33.7101 13.29C33.9701 12.93 34.0401 12.69 34.0101 12.12C33.9701 11.74 33.9401 11.05 33.9201 10.61L33.8901 9.79998L34.8001 9.82998C35.3101 9.82998 35.8901 9.80998 36.1201 9.73998C36.4101 9.66998 36.8401 9.67998 37.5601 9.75998L38.6101 9.88998L38.5301 10.28C38.4601 10.49 38.3501 10.78 38.2401 10.93C38.0501 11.22 38.0501 14.67 38.2401 15.48L38.3401 15.89H37.3601C36.8101 15.89 36.2901 15.93 36.2001 16C36.1001 16.07 35.8301 16.1 35.5601 16.07C35.0501 16 33.7901 15.8 33.6601 15.74C33.6001 15.72 33.6301 15.45 33.6701 15.14C33.7401 14.76 33.7101 14.43 33.5701 14.18C33.4701 13.98 33.3801 13.79 33.3801 13.78C33.3801 13.75 33.5301 13.53 33.7001 13.29H33.7101ZM25.8601 15.46C25.9401 15.32 25.9701 15.09 25.9301 14.94C25.9001 14.79 26.0001 14.41 26.1601 14.08C26.4901 13.46 26.5601 13.06 26.3501 12.96C26.2401 12.9 26.2501 12.54 26.4201 11.43C26.4601 11.1 26.4201 10.69 26.2801 10.37L26.0601 9.85998H26.4501C26.6701 9.85998 27.2401 9.80998 27.7201 9.70998C28.3601 9.58998 28.7001 9.57998 29.0201 9.66998L29.4501 9.76998L29.3801 10.65C29.3401 11.14 29.2901 11.64 29.3101 11.75C29.3101 11.86 29.1401 12.2 28.9501 12.5C28.5401 13.13 28.4501 13.43 28.6201 13.62C28.6801 13.68 28.7601 14 28.8001 14.31C28.8301 14.63 28.9101 14.91 29.0001 14.94C29.2201 15.05 29.4701 15.46 29.4701 15.71C29.4701 15.93 29.4301 15.93 27.7201 15.87C26.7501 15.83 25.9201 15.78 25.8301 15.75C25.7701 15.72 25.7901 15.59 25.8401 15.46H25.8601ZM18.4401 15.21C18.5901 14.99 18.6701 14.61 18.6601 14.14C18.6501 13.73 18.7001 12.83 18.7801 12.16C18.9301 11.07 18.9301 10.89 18.7201 10.73C18.4601 10.51 18.5801 9.99998 18.9301 9.94998C19.0801 9.91998 19.5701 9.88998 20.0101 9.87998C20.4701 9.86998 21.0601 9.77998 21.3301 9.68998C21.9801 9.46998 22.1601 9.60998 22.0501 10.25C22.0101 10.49 22.0501 10.89 22.1401 11.14C22.2801 11.5 22.2701 11.66 22.0401 11.97C21.7601 12.4 21.8101 13.43 22.1101 13.7C22.1901 13.78 22.2601 13.96 22.2601 14.11C22.2301 14.25 22.2801 14.71 22.3201 15.13L22.4001 15.89L21.7801 16.01C21.0901 16.14 18.9101 16.09 18.5001 15.92C18.1701 15.79 18.1501 15.63 18.4401 15.21ZM10.0401 15.53C10.0701 15.2 10.1801 14.7 10.2601 14.43C10.3601 14.16 10.4501 13.82 10.4801 13.67C10.5201 13.52 10.6001 13.1 10.7001 12.73C10.8101 12.25 10.8101 11.98 10.7001 11.75C10.5301 11.44 10.3801 10.82 10.3501 10.26V9.92998L11.3101 9.90998C11.8501 9.89998 12.6401 9.86998 13.0701 9.84998C13.7101 9.81998 13.8601 9.83998 13.8701 9.97998C13.8801 10.08 13.9101 10.47 13.9601 10.86C13.9701 11.25 14.0301 11.7 14.0901 11.88C14.1501 12.06 14.2201 12.84 14.2501 13.62C14.2901 14.39 14.3601 15.18 14.4101 15.37C14.5501 15.96 14.0701 16.1 11.8501 16.13L10.0101 16.15L10.0601 15.53H10.0401Z" fill="#30303D"/>
<path d="M114.44 10.58C114.37 10.61 114.34 11.01 114.37 11.48C114.44 12.83 114.43 13.28 114.25 13.59C114.11 13.82 114.14 13.97 114.25 14.2C114.35 14.36 114.47 14.74 114.54 15.04C114.55 15.09 114.57 15.14 114.57 15.19C114.61 15.37 114.61 15.48 114.57 15.56V19.82V20.22C114.75 20.18 115.03 20.14 115.25 20.17C116.26 20.23 117.3 20.19 117.65 20.06C117.87 19.97 120.66 20.04 122 20.15C122.76 20.22 123.33 20.21 123.58 20.14C124.45 19.91 125.08 19.86 126.57 19.97C127.44 20.04 128.43 20.14 128.75 20.23C129.36 20.37 130.97 20.36 131.69 20.22C132.17 20.11 132.52 20.09 134.39 20.01C136.69 19.93 137.06 19.94 137.51 20.11C138.37 20.45 138.91 20.49 139.3 20.27C139.38 20.21 140.03 20.18 140.73 20.19C141.48 20.21 142.1 20.17 142.3 20.08C142.54 20 142.74 19.99 142.91 20.05C143.26 20.18 144.71 20.33 145.2 20.3C145.42 20.27 145.66 20.22 145.74 20.17C146 20.01 146.6 20.01 148.08 20.17C149.31 20.28 149.44 20.27 150.01 20.07C150.54 19.87 150.8 19.85 151.94 19.91C152.66 19.94 153.48 20 153.77 20.05C154.1 20.11 154.46 20.1 154.67 20.04C154.88 19.98 155.56 19.93 156.17 19.91C157.07 19.89 157.38 19.93 157.65 20.09C158.08 20.33 158.62 20.34 159.42 20.13C159.82 20.04 160.1 20.01 160.28 20.09C160.42 20.14 161 20.22 161.57 20.25C162.46 20.31 162.65 20.27 163.04 20.07C163.5 19.83 163.52 19.83 164.23 19.99C164.77 20.12 165.15 20.13 165.77 20.06C166.23 20.01 166.63 20 166.67 20.05C166.81 20.19 167.42 20.2 167.95 20.07C168.86 19.85 177.17 19.94 177.55 20.17C177.8 20.32 179.37 20.21 180.32 19.99C180.78 19.87 181.03 19.86 181.15 19.95C181.26 20.01 181.54 20.09 181.77 20.12C182.01 20.16 182.21 20.2 182.24 20.22C182.28 20.24 182.49 20.21 182.71 20.14C182.92 20.08 183.47 20.03 183.93 20C184.37 19.99 184.93 19.95 185.15 19.91C185.39 19.85 185.76 19.86 186 19.93C186.47 20.04 188.08 19.9 188.38 19.71C188.62 19.58 189.27 19.68 190.09 19.96C190.56 20.13 190.81 20.16 191.21 20.07C191.47 20.01 192.4 19.99 193.23 20.01C194.45 20.04 194.84 20.01 195.13 19.87C195.43 19.73 195.75 19.71 197.18 19.79C199.27 19.88 202.05 19.96 202.54 19.95C203.47 19.92 204.07 19.9 204.48 19.86C204.86 19.83 205.08 19.8 205.24 19.75C205.68 19.62 208.57 19.66 208.95 19.81C209.1 19.86 209.96 19.89 211.02 19.85C212.93 19.79 213.33 19.78 214.36 19.82C214.71 19.82 215.09 19.79 215.22 19.71C215.36 19.64 215.55 19.62 215.7 19.66C215.92 19.72 217.9 19.8 220.69 19.82C220.9 19.82 221.4 19.8 221.81 19.76C222.23 19.71 222.72 19.68 222.95 19.69C223.16 19.69 223.78 19.69 224.35 19.69C224.72 19.69 225.07 19.72 225.32 19.76V18.91L225.29 4.98002C224.82 4.96002 224.21 4.98002 223.89 5.02002C223.64 5.05002 222.93 5.14002 222.28 5.21002C221.64 5.30002 221.03 5.32002 220.92 5.27002C220.61 5.15002 211.47 5.07002 209.92 5.17002C209.25 5.21002 208.48 5.20002 208.19 5.15002C207.33 4.98002 205.5 4.94002 205.28 5.08002C205.03 5.23002 202.41 5.32002 202.06 5.19002C201.51 4.96002 200.4 4.65002 200.17 4.65002C200.03 4.65002 199.67 4.73002 199.37 4.84002C199.01 4.97002 198.61 5.02002 198.22 4.98002C197.89 4.96002 197.35 4.94002 197.01 4.94002C196.69 4.95002 196.15 4.95002 195.82 4.95002C195.49 4.96002 194.86 4.96002 194.46 4.96002C192.48 4.96002 189.75 5.07002 189.58 5.15002C189.16 5.33002 187.25 5.39002 186.24 5.25002C185.49 5.16002 185.09 5.15002 184.78 5.23002C184.41 5.33002 184.3 5.32002 183.98 5.09002C183.51 4.76002 182.43 4.71002 182.07 5.03002C181.82 5.23002 181.41 5.25002 178.55 5.18002C178.05 5.18002 177.05 5.18002 176.33 5.20002C175.5 5.22002 174.96 5.20002 174.9 5.13002C174.79 5.02002 174.12 4.85002 173.67 4.83002C173.56 4.83002 173.27 4.90002 173.06 5.00002C172.59 5.22002 170.45 5.21002 169.19 4.98002C168.62 4.87002 168.33 4.86002 168.15 4.95002C167.97 5.03002 167.68 5.02002 167.11 4.90002C166.28 4.73002 165.72 4.78002 165.36 5.04002C165.24 5.12002 164.83 5.25002 164.46 5.32002C163.86 5.44002 163.75 5.43002 163.23 5.20002C162.72 4.96002 162.63 4.96002 161.65 5.09002C160.51 5.24002 159.97 5.25002 155.41 5.21002C153.76 5.19002 152.33 5.21002 152.25 5.24002C152.15 5.29002 151.89 5.24002 151.65 5.16002C151.33 5.04002 150.68 4.99002 149.11 4.98002C146.13 4.98002 146.17 4.98002 145.98 5.09002C145.87 5.16002 145.56 5.20002 145.27 5.19002C144.99 5.19002 144.6 5.21002 144.41 5.25002C144.22 5.30002 143.98 5.29002 143.88 5.22002C143.78 5.17002 143.46 5.10002 143.19 5.09002C142.68 5.09002 140.86 5.26002 140.45 5.37002C140.35 5.40002 139.87 5.29002 139.4 5.12002C138.55 4.82002 138.5 4.82002 137.85 4.97002C137.49 5.06002 137.19 5.18002 137.19 5.23002C137.19 5.36002 132.42 5.26002 131.56 5.12002C131.1 5.04002 130.88 5.05002 130.63 5.18002C130.38 5.30002 130.15 5.31002 129.69 5.23002C129.25 5.17002 128.87 5.18002 128.36 5.28002C127.83 5.40002 127.24 5.43002 125.87 5.36002C124.87 5.32002 123.5 5.28002 122.79 5.27002C122.08 5.27002 121.27 5.23002 120.99 5.18002C120.59 5.12002 120.27 5.14002 119.81 5.27002C119.13 5.47002 118.51 5.44002 117.8 5.18002C117.47 5.05002 115.97 5.04002 114.53 5.12002V5.25002L114.54 9.88002C114.54 10.22 114.49 10.54 114.42 10.57L114.44 10.58ZM217.62 9.71002C217.72 9.46002 217.45 9.46002 221.08 9.59002C221.413 9.60336 221.58 9.80002 221.58 10.18C221.58 10.48 221.66 10.77 221.73 10.81C221.84 10.85 221.83 10.95 221.72 11.1C221.54 11.35 221.61 12.22 221.86 12.56C222.18 13.03 222.4 13.55 222.42 14C222.43 14.27 222.5 14.66 222.57 14.88L222.67 15.27L221.71 15.35C220.63 15.45 219.99 15.45 219.04 15.35C217.6 15.21 217.64 15.24 217.78 14.73C217.88 14.35 217.94 13.69 217.98 12.48C217.99 12.02 217.74 10.22 217.63 10.15C217.52 10.05 217.5 10.02 217.62 9.71002ZM210.25 13.18C210.4 12.77 210.46 12.28 210.4 11.77C210.36 11.31 210.38 10.97 210.48 10.92C210.72 10.82 210.66 9.98002 210.39 9.79002C210.01 9.49002 210.39 9.39002 211.9 9.34002L213.24 9.30002V9.84002C213.21 10.13 213.2 10.65 213.19 10.98C213.16 11.8 213.28 13.49 213.39 13.69C213.43 13.77 213.47 14.23 213.5 14.68C213.56 15.51 213.56 15.52 213.22 15.46C212.75 15.38 212.35 15.38 211.42 15.46C210.12 15.59 210.02 15.54 210.02 14.61C210.02 14.16 210.13 13.52 210.24 13.18H210.25ZM201.03 11.05C200.92 10.95 200.9 10.88 201.02 10.83C201.21 10.74 201.21 10.18 201.02 9.70002C200.85 9.29002 200.92 9.17002 201.2 9.33002C201.42 9.44002 203.81 9.44002 204.55 9.32002C205.34 9.20002 205.41 9.31002 205.48 10.89C205.55 12.54 205.55 13.06 205.5 13.75C205.47 14.11 205.51 14.26 205.72 14.38C205.91 14.48 206 14.63 205.96 14.89L205.91 15.27L204.64 15.29C203.93 15.3 203.16 15.31 202.92 15.3C202.66 15.3 202.12 15.3 201.71 15.3C201.29 15.3 200.92 15.24 200.86 15.19C200.75 15.07 200.89 14.56 201.07 14.39C201.29 14.18 201.27 11.26 201.04 11.06L201.03 11.05ZM192.17 15.29C192.25 15.12 192.32 14.82 192.32 14.62C192.32 14.37 192.42 14.22 192.57 14.17C192.78 14.12 192.79 13.98 192.71 13.2C192.67 12.63 192.68 12.19 192.79 12.07C193.05 11.69 193.04 11.07 192.75 10.85C192.6 10.73 192.47 10.52 192.47 10.39C192.47 10.26 192.43 10.08 192.39 9.99002C192.32 9.87002 192.5 9.80002 193.11 9.70002C193.54 9.62002 193.96 9.54002 194.05 9.49002C194.12 9.46002 194.72 9.43002 195.37 9.42002C196.137 9.41336 196.52 9.50336 196.52 9.69002C196.51 10.4 196.69 11.57 196.83 11.76C197.02 12.02 197.03 12.63 196.83 12.99C196.75 13.19 196.76 13.45 196.93 13.89C197.06 14.24 197.18 14.71 197.21 14.96L197.28 15.4L196.34 15.43C195.22 15.47 194.95 15.47 194.36 15.45C194.11 15.45 193.5 15.47 192.97 15.5L192.04 15.57L192.18 15.29H192.17ZM184.45 9.39002C184.45 9.39002 184.71 9.42002 184.99 9.48002C185.35 9.58002 185.66 9.58002 186.27 9.48002C186.7 9.41002 187.1 9.37002 187.16 9.42002C187.2 9.45002 187.26 10.1 187.29 10.87C187.35 12.28 187.53 13.38 187.89 14.26C187.99 14.53 188.06 14.92 188.02 15.14L187.95 15.52L186.95 15.58C186.4 15.61 185.61 15.61 185.2 15.58L184.45 15.51L184.41 14.93C184.4 14.59 184.48 14.22 184.59 14.04C184.89 13.64 184.88 13.11 184.57 12.89C184.4 12.76 184.36 12.62 184.44 12.38C184.58 11.97 184.56 11.81 184.4 10.86C184.29 10.2 184.3 9.53002 184.45 9.40002V9.39002ZM175.14 15.43C175.2 15.3 175.31 14.9 175.36 14.54C175.43 14.18 175.57 13.76 175.69 13.6C175.86 13.38 175.9 12.94 175.87 11.75C175.85 10.9 175.8 10.02 175.73 9.79002C175.66 9.49002 175.67 9.39002 175.83 9.38002C175.95 9.37002 176.41 9.35002 176.87 9.33002C177.31 9.31002 178.05 9.27002 178.49 9.25002C178.91 9.23002 179.32 9.24002 179.39 9.27002C179.63 9.39002 179.68 9.82002 179.5 10.01C179.29 10.23 179.26 13.22 179.45 13.36C179.52 13.4 179.58 13.62 179.58 13.85C179.58 14.07 179.64 14.29 179.72 14.32C179.8 14.35 179.87 14.7 179.87 15.08V15.77L179.39 15.72C179.13 15.68 178.46 15.59 177.92 15.51C176.92 15.37 175.98 15.39 175.51 15.57C175.11 15.73 175.03 15.7 175.15 15.43H175.14ZM166.74 15C166.8 14.87 166.86 14.59 166.92 14.39C166.96 14.18 167.15 13.76 167.35 13.44C167.76 12.78 167.82 11.98 167.48 10.66C167.2 9.53002 167.32 9.34002 168.2 9.47002C169 9.58002 169.75 9.59002 170.35 9.49002L170.82 9.41002L170.75 9.83002C170.71 10.04 170.78 10.54 170.93 10.93C171.07 11.31 171.21 12.04 171.25 12.53C171.29 13.04 171.38 13.51 171.47 13.58C171.57 13.68 171.57 13.79 171.46 13.95C171.29 14.18 171.31 14.51 171.55 15.19C171.63 15.39 171.58 15.52 171.45 15.59C171.16 15.72 170.45 15.71 170.08 15.57C169.91 15.5 169.23 15.45 168.57 15.45C167.02 15.45 166.59 15.34 166.74 15ZM158.49 15.15C158.55 15.07 158.66 14.53 158.72 13.96C158.88 12.84 158.9 12.47 158.85 11.9C158.82 11.7 158.85 11.22 158.9 10.85C159 10.31 158.97 10.13 158.77 9.91002C158.45 9.55002 158.45 9.57002 158.99 9.48002C159.29 9.44002 159.57 9.48002 159.81 9.59002C160.1 9.73002 160.38 9.75002 160.97 9.70002C161.4 9.66002 162.12 9.61002 162.58 9.59002L163.4 9.55002V10.7C163.42 11.33 163.46 12.7 163.51 13.72L163.6 15.61L163.14 15.54C161.42 15.34 160.99 15.35 160.37 15.6C159.82 15.84 159.73 15.85 159.19 15.71C158.54 15.53 158.34 15.39 158.48 15.15H158.49ZM151.48 14.86C151.88 14.48 151.92 14.38 152 13.13C152.04 12.4 152.16 11.69 152.25 11.56C152.46 11.3 152.55 10.51 152.4 10.51C152.29 10.51 151.94 9.86002 151.94 9.65002C151.94 9.55002 152.23 9.52002 153.02 9.54002C153.62 9.54002 154.3 9.53002 154.52 9.49002L154.92 9.40002L154.87 10.42C154.82 11.37 154.71 12.21 154.57 12.93C154.54 13.12 154.57 13.33 154.65 13.43C154.72 13.53 154.82 14.06 154.86 14.59L154.92 15.58L153.33 15.65C152.44 15.68 151.58 15.74 151.39 15.77C151.11 15.81 151.06 15.77 151.06 15.54C151.06 15.38 151.25 15.08 151.49 14.86H151.48ZM142.22 13.09C142.48 12.73 142.55 12.49 142.52 11.92C142.48 11.54 142.45 10.85 142.43 10.41L142.4 9.60002L143.31 9.63002C143.82 9.63002 144.4 9.61002 144.63 9.54002C144.92 9.47002 145.35 9.48002 146.07 9.56002L147.12 9.69002L147.04 10.08C146.97 10.29 146.86 10.58 146.75 10.73C146.56 11.02 146.56 14.47 146.75 15.28L146.85 15.69H145.87C145.32 15.69 144.8 15.73 144.71 15.8C144.61 15.87 144.34 15.9 144.07 15.87C143.56 15.8 142.3 15.6 142.17 15.54C142.11 15.52 142.14 15.25 142.18 14.94C142.25 14.56 142.22 14.23 142.08 13.98C141.98 13.78 141.89 13.59 141.89 13.58C141.89 13.55 142.04 13.33 142.21 13.09H142.22ZM134.37 15.26C134.45 15.12 134.48 14.89 134.44 14.74C134.41 14.59 134.51 14.21 134.67 13.88C135 13.26 135.07 12.86 134.86 12.76C134.75 12.7 134.76 12.34 134.93 11.23C134.97 10.9 134.93 10.49 134.79 10.17L134.57 9.66002H134.96C135.18 9.66002 135.75 9.61002 136.23 9.51002C136.87 9.39002 137.21 9.38002 137.53 9.47002L137.96 9.57002L137.89 10.45C137.85 10.94 137.8 11.44 137.82 11.55C137.82 11.66 137.65 12 137.46 12.3C137.05 12.93 136.96 13.23 137.13 13.42C137.19 13.48 137.27 13.8 137.31 14.11C137.34 14.43 137.42 14.71 137.51 14.74C137.73 14.85 137.98 15.26 137.98 15.51C137.98 15.73 137.94 15.73 136.23 15.67C135.26 15.63 134.43 15.58 134.34 15.55C134.28 15.52 134.3 15.39 134.35 15.26H134.37ZM126.95 15.01C127.1 14.79 127.18 14.41 127.17 13.94C127.16 13.53 127.21 12.63 127.29 11.96C127.44 10.87 127.44 10.69 127.23 10.53C126.97 10.31 127.09 9.80002 127.44 9.75002C127.59 9.72002 128.08 9.69002 128.52 9.68002C128.98 9.67002 129.57 9.58002 129.84 9.49002C130.49 9.27002 130.67 9.41002 130.56 10.05C130.52 10.29 130.56 10.69 130.65 10.94C130.79 11.3 130.78 11.46 130.55 11.77C130.27 12.2 130.32 13.23 130.62 13.5C130.7 13.58 130.77 13.76 130.77 13.91C130.74 14.05 130.79 14.51 130.83 14.93L130.91 15.69L130.29 15.81C129.6 15.94 127.42 15.89 127.01 15.72C126.68 15.59 126.66 15.43 126.95 15.01ZM118.55 15.33C118.58 15 118.69 14.5 118.77 14.23C118.87 13.96 118.96 13.62 118.99 13.47C119.03 13.32 119.11 12.9 119.21 12.53C119.32 12.05 119.32 11.78 119.21 11.55C119.04 11.24 118.89 10.62 118.86 10.06V9.73002L119.82 9.71002C120.36 9.70002 121.15 9.67002 121.58 9.65002C122.22 9.62002 122.37 9.64002 122.38 9.78002C122.39 9.88002 122.42 10.27 122.46 10.66C122.47 11.05 122.53 11.5 122.59 11.68C122.65 11.86 122.72 12.64 122.75 13.42C122.79 14.19 122.86 14.98 122.91 15.17C123.05 15.76 122.57 15.9 120.35 15.93L118.51 15.95L118.56 15.33H118.55Z" fill="#30303D"/>
<path d="M114.52 105.48C114.52 105.43 114.51 105.38 114.49 105.33C114.42 105.03 114.29 104.65 114.2 104.49C114.09 104.26 114.06 104.11 114.2 103.88C114.38 103.57 114.39 103.12 114.32 101.77C114.29 101.3 114.32 100.9 114.39 100.87C114.46 100.84 114.51 100.52 114.51 100.18V95.55C114.25 95.58 113.99 95.61 113.72 95.64C113.08 95.73 112.47 95.75 112.36 95.7C112.05 95.58 102.91 95.5 101.36 95.6C100.69 95.64 99.92 95.63 99.63 95.58C98.77 95.41 96.94 95.37 96.72 95.51C96.47 95.66 93.85 95.75 93.5 95.62C92.95 95.39 91.84 95.08 91.61 95.08C91.47 95.08 91.11 95.16 90.81 95.27C90.45 95.4 90.05 95.45 89.66 95.41C89.33 95.39 88.79 95.37 88.45 95.37C88.13 95.38 87.59 95.38 87.26 95.38C86.93 95.39 86.3 95.39 85.9 95.39C83.92 95.39 81.19 95.5 81.02 95.58C80.6 95.76 78.69 95.82 77.68 95.68C76.93 95.59 76.53 95.58 76.22 95.66C75.85 95.76 75.74 95.75 75.42 95.52C74.95 95.19 73.87 95.14 73.51 95.46C73.26 95.66 72.85 95.68 69.99 95.61C69.49 95.61 68.49 95.61 67.77 95.63C66.94 95.65 66.4 95.63 66.34 95.56C66.23 95.45 65.56 95.28 65.11 95.26C65 95.26 64.71 95.33 64.5 95.43C64.03 95.65 61.89 95.64 60.63 95.41C60.06 95.3 59.77 95.29 59.59 95.38C59.41 95.46 59.12 95.45 58.55 95.33C57.72 95.16 57.16 95.21 56.8 95.47C56.68 95.55 56.27 95.68 55.9 95.75C55.3 95.87 55.19 95.86 54.67 95.63C54.16 95.39 54.07 95.39 53.09 95.52C51.95 95.67 51.41 95.68 46.85 95.64C45.2 95.62 43.77 95.64 43.69 95.67C43.59 95.72 43.33 95.67 43.09 95.59C42.77 95.47 42.12 95.42 40.55 95.41C37.57 95.41 37.61 95.41 37.42 95.52C37.31 95.59 37 95.63 36.71 95.62C36.43 95.62 36.04 95.64 35.85 95.68C35.66 95.73 35.42 95.72 35.32 95.65C35.22 95.6 34.9 95.53 34.63 95.52C34.12 95.52 32.3 95.69 31.89 95.8C31.79 95.83 31.31 95.72 30.84 95.55C29.99 95.25 29.94 95.25 29.29 95.4C28.93 95.49 28.63 95.61 28.63 95.66C28.63 95.72 27.74 95.73 26.66 95.71C25.24 95.69 23.49 95.62 23 95.54C22.54 95.46 22.32 95.47 22.07 95.6C21.82 95.72 21.59 95.73 21.13 95.65C20.69 95.59 20.31 95.6 19.8 95.7C19.27 95.82 18.68 95.85 17.31 95.78C16.31 95.74 14.94 95.7 14.23 95.69C14.01 95.69 13.79 95.69 13.57 95.68C13.16 95.67 12.8 95.65 12.57 95.62C12.52 95.62 12.46 95.61 12.43 95.6C12.03 95.54 11.71 95.56 11.25 95.69C10.57 95.89 9.95001 95.86 9.24001 95.6C8.95001 95.49 7.78001 95.47 6.54001 95.52C6.35001 95.52 6.16001 95.54 5.97001 95.55V100.31C5.98001 100.65 5.93001 100.97 5.86001 101C5.79001 101.03 5.76001 101.43 5.79001 101.9C5.86001 103.25 5.85001 103.7 5.67001 104.01C5.53001 104.24 5.56001 104.39 5.67001 104.62C5.77001 104.78 5.89001 105.16 5.96001 105.46C5.97001 105.51 5.99001 105.56 5.99001 105.61C6.03001 105.79 6.03001 105.9 5.99001 105.98V110.64C6.18001 110.6 6.46001 110.56 6.68001 110.59C7.69001 110.65 8.73001 110.61 9.08001 110.48C9.30001 110.39 12.09 110.46 13.43 110.57C14.19 110.64 14.76 110.63 15.01 110.56C15.88 110.33 16.51 110.28 18 110.39C18.87 110.46 19.86 110.56 20.18 110.65C20.79 110.79 22.4 110.78 23.12 110.64C23.6 110.53 23.95 110.51 25.82 110.43C28.12 110.35 28.49 110.36 28.94 110.53C29.8 110.87 30.34 110.91 30.73 110.69C30.81 110.63 31.46 110.6 32.16 110.61C32.91 110.63 33.53 110.59 33.73 110.5C33.97 110.42 34.17 110.41 34.34 110.47C34.69 110.6 36.14 110.75 36.63 110.72C36.85 110.69 37.09 110.64 37.17 110.59C37.43 110.43 38.03 110.43 39.51 110.59C40.74 110.7 40.87 110.69 41.44 110.49C41.97 110.29 42.23 110.27 43.37 110.33C44.09 110.36 44.91 110.42 45.2 110.47C45.53 110.53 45.89 110.52 46.1 110.46C46.31 110.4 46.99 110.35 47.6 110.33C48.5 110.31 48.81 110.35 49.08 110.51C49.51 110.75 50.05 110.76 50.85 110.55C51.25 110.46 51.53 110.43 51.71 110.51C51.85 110.56 52.43 110.64 53 110.67C53.89 110.73 54.08 110.69 54.47 110.49C54.93 110.25 54.95 110.25 55.66 110.41C56.2 110.54 56.58 110.55 57.2 110.48C57.66 110.43 58.06 110.42 58.1 110.47C58.24 110.61 58.85 110.62 59.38 110.49C60.29 110.27 68.6 110.36 68.98 110.59C69.23 110.74 70.8 110.63 71.75 110.41C72.21 110.29 72.46 110.28 72.58 110.37C72.69 110.43 72.97 110.51 73.2 110.54C73.44 110.58 73.64 110.62 73.67 110.64C73.71 110.66 73.92 110.63 74.14 110.56C74.35 110.5 74.9 110.45 75.36 110.42C75.8 110.41 76.36 110.37 76.58 110.33C76.82 110.27 77.19 110.28 77.43 110.35C77.9 110.46 79.51 110.32 79.81 110.13C80.05 110 80.7 110.1 81.52 110.38C81.99 110.55 82.24 110.58 82.64 110.49C82.9 110.43 83.83 110.41 84.66 110.43C85.88 110.46 86.27 110.43 86.56 110.29C86.86 110.15 87.18 110.13 88.61 110.21C90.7 110.3 93.48 110.38 93.97 110.37C95.76 110.32 96.34 110.27 96.67 110.18C97.11 110.05 100 110.09 100.38 110.24C100.53 110.29 101.39 110.32 102.45 110.28C104.36 110.22 104.76 110.21 105.79 110.25C106.14 110.25 106.52 110.22 106.65 110.14C106.79 110.07 106.98 110.05 107.13 110.09C107.35 110.15 109.33 110.23 112.12 110.25C112.33 110.25 112.83 110.23 113.24 110.19C113.66 110.14 114.15 110.11 114.38 110.12C114.41 110.12 114.47 110.12 114.52 110.12V105.86C114.55 105.78 114.55 105.67 114.52 105.49V105.48ZM11.77 106.42L9.93001 106.44L9.98001 105.82C10.01 105.49 10.12 104.99 10.2 104.72C10.3 104.45 10.39 104.11 10.42 103.96C10.46 103.81 10.54 103.39 10.64 103.02C10.75 102.54 10.75 102.27 10.64 102.04C10.47 101.73 10.32 101.11 10.29 100.55V100.22L11.25 100.2C11.79 100.19 12.58 100.16 13.01 100.14C13.65 100.11 13.8 100.13 13.81 100.27C13.82 100.37 13.85 100.76 13.9 101.15C13.91 101.54 13.97 101.99 14.03 102.17C14.09 102.35 14.16 103.13 14.19 103.91C14.23 104.68 14.3 105.47 14.35 105.66C14.49 106.25 14.01 106.39 11.79 106.42H11.77ZM21.72 106.3C21.03 106.43 18.85 106.38 18.44 106.21C18.11 106.08 18.09 105.92 18.38 105.5C18.53 105.28 18.61 104.9 18.6 104.43C18.59 104.02 18.64 103.12 18.72 102.45C18.87 101.36 18.87 101.18 18.66 101.02C18.4 100.8 18.52 100.29 18.87 100.24C19.02 100.21 19.51 100.18 19.95 100.17C20.41 100.16 21 100.07 21.27 99.98C21.92 99.76 22.1 99.9 21.99 100.54C21.95 100.78 21.99 101.18 22.08 101.43C22.22 101.79 22.21 101.95 21.98 102.26C21.7 102.69 21.75 103.72 22.05 103.99C22.13 104.07 22.2 104.25 22.2 104.4C22.17 104.54 22.22 105 22.26 105.42L22.34 106.18L21.72 106.3ZM27.67 106.16C26.7 106.12 25.87 106.07 25.78 106.04C25.72 106.01 25.74 105.88 25.79 105.75C25.87 105.61 25.9 105.38 25.86 105.23C25.83 105.08 25.93 104.7 26.09 104.37C26.42 103.75 26.49 103.35 26.28 103.25C26.17 103.19 26.18 102.83 26.35 101.72C26.39 101.39 26.35 100.98 26.21 100.66L25.99 100.15H26.38C26.6 100.15 27.17 100.1 27.65 100C28.29 99.88 28.63 99.87 28.95 99.96L29.38 100.06L29.31 100.94C29.27 101.43 29.22 101.93 29.24 102.04C29.24 102.15 29.07 102.49 28.88 102.79C28.47 103.42 28.38 103.72 28.55 103.91C28.61 103.97 28.69 104.29 28.73 104.6C28.76 104.92 28.84 105.2 28.93 105.23C29.15 105.34 29.4 105.75 29.4 106C29.4 106.22 29.36 106.22 27.65 106.16H27.67ZM38.48 100.57C38.41 100.78 38.3 101.07 38.19 101.22C38 101.51 38 104.96 38.19 105.77L38.29 106.18H37.31C36.76 106.18 36.24 106.22 36.15 106.29C36.05 106.36 35.78 106.39 35.51 106.36C35 106.29 33.74 106.09 33.61 106.03C33.55 106.01 33.58 105.74 33.62 105.43C33.69 105.05 33.66 104.72 33.52 104.47C33.42 104.27 33.33 104.08 33.33 104.07C33.33 104.04 33.48 103.82 33.65 103.58C33.91 103.22 33.98 102.98 33.95 102.41C33.91 102.03 33.88 101.34 33.86 100.9L33.83 100.09L34.74 100.12C35.25 100.12 35.83 100.1 36.06 100.03C36.35 99.96 36.78 99.97 37.5 100.05L38.55 100.18L38.47 100.57H38.48ZM46.08 103.92C46.15 104.02 46.25 104.55 46.29 105.08L46.35 106.07L44.76 106.14C43.87 106.17 43.01 106.23 42.82 106.26C42.54 106.3 42.49 106.26 42.49 106.03C42.49 105.87 42.68 105.57 42.92 105.35C43.32 104.97 43.36 104.87 43.44 103.62C43.48 102.89 43.6 102.18 43.69 102.05C43.9 101.79 43.99 101 43.84 101C43.73 101 43.38 100.35 43.38 100.14C43.38 100.04 43.67 100.01 44.46 100.03C45.06 100.03 45.74 100.02 45.96 99.98L46.36 99.89L46.31 100.91C46.26 101.86 46.15 102.7 46.01 103.42C45.98 103.61 46.01 103.82 46.09 103.92H46.08ZM54.58 106.03C52.86 105.83 52.43 105.84 51.81 106.09C51.26 106.33 51.17 106.34 50.63 106.2C49.98 106.02 49.78 105.88 49.92 105.64C49.98 105.56 50.09 105.02 50.15 104.45C50.31 103.33 50.33 102.96 50.28 102.39C50.25 102.19 50.28 101.71 50.33 101.34C50.43 100.8 50.4 100.62 50.2 100.4C49.88 100.04 49.88 100.06 50.42 99.97C50.72 99.93 51 99.97 51.24 100.08C51.53 100.22 51.81 100.24 52.4 100.19C52.83 100.15 53.55 100.1 54.01 100.08L54.83 100.04V101.19C54.85 101.82 54.89 103.19 54.94 104.21L55.03 106.1L54.57 106.03H54.58ZM62.88 106.08C62.59 106.21 61.88 106.2 61.51 106.06C61.34 105.99 60.66 105.94 60 105.94C58.45 105.94 58.02 105.83 58.17 105.49C58.23 105.36 58.29 105.08 58.35 104.88C58.39 104.67 58.58 104.25 58.78 103.93C59.19 103.27 59.25 102.47 58.91 101.15C58.63 100.02 58.75 99.83 59.63 99.96C60.43 100.07 61.18 100.08 61.78 99.98L62.25 99.9L62.18 100.32C62.14 100.53 62.21 101.03 62.36 101.42C62.5 101.8 62.64 102.53 62.68 103.02C62.72 103.53 62.81 104 62.9 104.07C63 104.17 63 104.28 62.89 104.44C62.72 104.67 62.74 105 62.98 105.68C63.06 105.88 63.01 106.01 62.88 106.08ZM70.81 106.21C70.55 106.17 69.88 106.08 69.34 106C68.34 105.86 67.4 105.88 66.93 106.06C66.53 106.22 66.45 106.19 66.57 105.92C66.63 105.79 66.74 105.39 66.79 105.03C66.86 104.67 67 104.25 67.12 104.09C67.29 103.87 67.33 103.43 67.3 102.24C67.28 101.39 67.23 100.51 67.16 100.28C67.09 99.98 67.1 99.88 67.26 99.87C67.38 99.86 67.84 99.84 68.3 99.82C68.74 99.8 69.48 99.76 69.92 99.74C70.34 99.72 70.75 99.73 70.82 99.76C71.06 99.88 71.11 100.31 70.93 100.5C70.72 100.72 70.69 103.71 70.88 103.85C70.95 103.89 71.01 104.11 71.01 104.34C71.01 104.56 71.07 104.78 71.15 104.81C71.23 104.84 71.3 105.19 71.3 105.57V106.26L70.82 106.21H70.81ZM79.44 105.63L79.37 106.01L78.37 106.07C77.82 106.1 77.03 106.1 76.62 106.07L75.87 106L75.83 105.42C75.82 105.08 75.9 104.71 76.01 104.53C76.31 104.13 76.3 103.6 75.99 103.38C75.82 103.25 75.78 103.11 75.86 102.87C76 102.46 75.98 102.3 75.82 101.35C75.71 100.69 75.72 100.02 75.87 99.89C75.9 99.87 76.13 99.92 76.41 99.98C76.77 100.08 77.08 100.08 77.69 99.98C78.12 99.91 78.52 99.87 78.58 99.92C78.62 99.95 78.68 100.6 78.71 101.37C78.77 102.78 78.95 103.88 79.31 104.76C79.41 105.03 79.48 105.42 79.44 105.64V105.63ZM87.76 105.92C86.64 105.96 86.37 105.96 85.78 105.94C85.53 105.94 84.92 105.96 84.39 105.99L83.46 106.06L83.6 105.78C83.68 105.61 83.75 105.31 83.75 105.11C83.75 104.86 83.85 104.71 84 104.66C84.21 104.61 84.22 104.47 84.14 103.69C84.1 103.12 84.11 102.68 84.22 102.56C84.48 102.18 84.47 101.56 84.18 101.34C84.03 101.22 83.9 101.01 83.9 100.88C83.9 100.75 83.86 100.57 83.82 100.48C83.75 100.36 83.93 100.29 84.54 100.19C84.97 100.11 85.39 100.03 85.48 99.98C85.55 99.95 86.15 99.92 86.8 99.91C87.5667 99.9033 87.95 99.9933 87.95 100.18C87.94 100.89 88.12 102.06 88.26 102.25C88.45 102.51 88.46 103.12 88.26 103.48C88.18 103.68 88.19 103.94 88.36 104.38C88.49 104.73 88.61 105.2 88.64 105.45L88.71 105.89L87.77 105.92H87.76ZM97.34 105.76L96.06 105.78C95.35 105.79 94.58 105.8 94.34 105.79C94.08 105.79 93.54 105.79 93.13 105.79C92.71 105.79 92.34 105.73 92.28 105.68C92.17 105.56 92.31 105.05 92.49 104.88C92.71 104.67 92.69 101.75 92.46 101.55C92.35 101.45 92.33 101.38 92.45 101.33C92.64 101.24 92.64 100.68 92.45 100.2C92.28 99.79 92.35 99.67 92.63 99.83C92.85 99.94 95.24 99.94 95.98 99.82C96.77 99.7 96.84 99.81 96.91 101.39C96.98 103.04 96.98 103.56 96.93 104.25C96.9 104.61 96.94 104.76 97.15 104.88C97.34 104.98 97.43 105.13 97.39 105.39L97.34 105.77V105.76ZM104.67 105.95C104.2 105.87 103.8 105.87 102.87 105.95C101.57 106.08 101.47 106.03 101.47 105.1C101.47 104.65 101.58 104.01 101.69 103.67C101.84 103.26 101.9 102.77 101.84 102.26C101.8 101.8 101.82 101.46 101.92 101.41C102.16 101.31 102.1 100.47 101.83 100.28C101.46 99.98 101.83 99.88 103.34 99.83L104.68 99.79V100.33C104.65 100.62 104.64 101.14 104.63 101.47C104.6 102.29 104.72 103.98 104.83 104.18C104.87 104.26 104.91 104.72 104.94 105.17C105 106 105 106.01 104.66 105.95H104.67ZM113.15 105.84C112.07 105.94 111.43 105.94 110.48 105.84C109.04 105.7 109.08 105.73 109.22 105.22C109.32 104.84 109.38 104.18 109.42 102.97C109.43 102.51 109.18 100.71 109.07 100.64C108.96 100.54 108.94 100.51 109.06 100.2C109.16 99.95 108.89 99.95 112.52 100.08C112.853 100.093 113.02 100.29 113.02 100.67C113.02 100.97 113.1 101.26 113.17 101.3C113.28 101.34 113.27 101.44 113.16 101.59C112.98 101.84 113.05 102.71 113.3 103.05C113.62 103.52 113.84 104.04 113.86 104.49C113.87 104.76 113.94 105.15 114.01 105.37L114.11 105.76L113.15 105.84Z" fill="#30303D"/>
<path d="M223.85 95.24C223.6 95.27 222.89 95.36 222.24 95.43C221.6 95.52 220.99 95.54 220.88 95.49C220.8 95.46 220.08 95.43 219.05 95.41C216.77 95.36 212.95 95.33 210.96 95.36C210.48 95.36 210.1 95.38 209.88 95.39C209.21 95.43 208.44 95.42 208.15 95.37C207.29 95.2 205.46 95.16 205.24 95.3C205.2 95.32 205.09 95.34 204.96 95.36C204.22 95.47 202.32 95.52 202.03 95.41C201.48 95.18 200.37 94.87 200.14 94.87C200 94.87 199.64 94.95 199.34 95.06C198.98 95.19 198.58 95.24 198.19 95.2C197.86 95.18 197.32 95.16 196.98 95.16C196.66 95.17 196.12 95.17 195.79 95.17C195.46 95.18 194.83 95.18 194.43 95.18C192.45 95.18 189.72 95.29 189.55 95.37C189.13 95.55 187.22 95.61 186.21 95.47C185.46 95.38 185.06 95.37 184.75 95.45C184.38 95.55 184.27 95.54 183.95 95.31C183.48 94.98 182.4 94.93 182.04 95.25C181.79 95.45 181.38 95.47 178.52 95.4C178.02 95.4 177.02 95.4 176.3 95.42C175.47 95.44 174.93 95.42 174.87 95.35C174.76 95.24 174.09 95.07 173.64 95.05C173.53 95.05 173.24 95.12 173.03 95.22C172.56 95.44 170.42 95.43 169.16 95.2C168.59 95.09 168.3 95.08 168.12 95.17C167.94 95.25 167.65 95.24 167.08 95.12C166.25 94.95 165.69 95 165.33 95.26C165.21 95.34 164.8 95.47 164.43 95.54C163.83 95.66 163.72 95.65 163.2 95.42C162.69 95.18 162.6 95.18 161.62 95.31C160.48 95.46 159.94 95.47 155.38 95.43C153.73 95.41 152.3 95.43 152.22 95.46C152.12 95.51 151.86 95.46 151.62 95.38C151.3 95.26 150.65 95.21 149.08 95.2C146.1 95.2 146.14 95.2 145.95 95.31C145.84 95.38 145.53 95.42 145.24 95.41C144.96 95.41 144.57 95.43 144.38 95.47C144.19 95.52 143.95 95.51 143.85 95.44C143.75 95.39 143.43 95.32 143.16 95.31C142.65 95.31 140.83 95.48 140.42 95.59C140.32 95.62 139.84 95.51 139.37 95.34C138.52 95.04 138.47 95.04 137.82 95.19C137.46 95.28 137.16 95.4 137.16 95.45C137.16 95.58 132.39 95.48 131.53 95.34C131.07 95.26 130.85 95.27 130.6 95.4C130.35 95.52 130.12 95.53 129.66 95.45C129.22 95.39 128.84 95.4 128.33 95.5C127.8 95.62 127.21 95.65 125.84 95.58C124.84 95.54 123.47 95.5 122.76 95.49C122.05 95.49 121.24 95.45 120.96 95.4C120.56 95.34 120.24 95.36 119.78 95.49C119.1 95.69 118.48 95.66 117.77 95.4C117.44 95.27 115.94 95.26 114.5 95.34V95.47L114.51 100.1C114.51 100.44 114.46 100.76 114.39 100.79C114.32 100.82 114.29 101.22 114.32 101.69C114.39 103.04 114.38 103.49 114.2 103.8C114.06 104.03 114.09 104.18 114.2 104.41C114.3 104.57 114.42 104.95 114.49 105.25C114.5 105.3 114.52 105.35 114.52 105.4C114.56 105.58 114.56 105.69 114.52 105.77V110.03V110.43C114.7 110.39 114.98 110.35 115.2 110.38C116.21 110.44 117.25 110.4 117.6 110.27C117.82 110.18 120.61 110.25 121.95 110.36C122.71 110.43 123.28 110.42 123.53 110.35C124.4 110.12 125.03 110.07 126.52 110.18C127.39 110.25 128.38 110.35 128.7 110.44C129.31 110.58 130.92 110.57 131.64 110.43C132.12 110.32 132.47 110.3 134.34 110.22C136.64 110.14 137.01 110.15 137.46 110.32C138.32 110.66 138.86 110.7 139.25 110.48C139.33 110.42 139.98 110.39 140.68 110.4C141.43 110.42 142.05 110.38 142.25 110.29C142.49 110.21 142.69 110.2 142.86 110.26C143.21 110.39 144.66 110.54 145.15 110.51C145.37 110.48 145.61 110.43 145.69 110.38C145.95 110.22 146.55 110.22 148.03 110.38C149.26 110.49 149.39 110.48 149.96 110.28C150.49 110.08 150.75 110.06 151.89 110.12C152.61 110.15 153.43 110.21 153.72 110.26C154.05 110.32 154.41 110.31 154.62 110.25C154.83 110.19 155.51 110.14 156.12 110.12C157.02 110.1 157.33 110.14 157.6 110.3C158.03 110.54 158.57 110.55 159.37 110.34C159.77 110.25 160.05 110.22 160.23 110.3C160.37 110.35 160.95 110.43 161.52 110.46C162.41 110.52 162.6 110.48 162.99 110.28C163.45 110.04 163.47 110.04 164.18 110.2C164.72 110.33 165.1 110.34 165.72 110.27C166.18 110.22 166.58 110.21 166.62 110.26C166.76 110.4 167.37 110.41 167.9 110.28C168.81 110.06 177.12 110.15 177.5 110.38C177.75 110.53 179.32 110.42 180.27 110.2C180.73 110.08 180.98 110.07 181.1 110.16C181.21 110.22 181.49 110.3 181.72 110.33C181.96 110.37 182.16 110.41 182.19 110.43C182.23 110.45 182.44 110.42 182.66 110.35C182.87 110.29 183.42 110.24 183.88 110.21C184.32 110.2 184.88 110.16 185.1 110.12C185.34 110.06 185.71 110.07 185.95 110.14C186.42 110.25 188.03 110.11 188.33 109.92C188.57 109.79 189.22 109.89 190.04 110.17C190.51 110.34 190.76 110.37 191.16 110.28C191.42 110.22 192.35 110.2 193.18 110.22C194.4 110.25 194.79 110.22 195.08 110.08C195.38 109.94 195.7 109.92 197.13 110C199.22 110.09 202 110.17 202.49 110.16C204.28 110.11 204.86 110.06 205.19 109.97C205.63 109.84 208.52 109.88 208.9 110.03C209.05 110.08 209.91 110.11 210.97 110.07C212.88 110.01 213.28 110 214.31 110.04C214.66 110.04 215.04 110.01 215.17 109.93C215.31 109.86 215.5 109.84 215.65 109.88C215.87 109.94 217.85 110.02 220.64 110.04C220.85 110.04 221.35 110.02 221.76 109.98C222.18 109.93 222.67 109.9 222.9 109.91C223.11 109.91 223.73 109.91 224.3 109.91C224.67 109.91 225.02 109.94 225.27 109.98L225.25 98.75V96.89V95.21C225.22 95.21 225.19 95.21 225.17 95.21C224.71 95.2 224.15 95.21 223.85 95.25V95.24ZM120.29 106.2L118.45 106.22L118.5 105.6C118.53 105.27 118.64 104.77 118.72 104.5C118.82 104.23 118.91 103.89 118.94 103.74C118.98 103.59 119.06 103.17 119.16 102.8C119.27 102.32 119.27 102.05 119.16 101.82C118.99 101.51 118.84 100.89 118.81 100.33V100L119.77 99.98C120.31 99.97 121.1 99.94 121.53 99.92C122.17 99.89 122.32 99.91 122.33 100.05C122.34 100.15 122.37 100.54 122.42 100.93C122.43 101.32 122.49 101.77 122.55 101.95C122.61 102.13 122.68 102.91 122.71 103.69C122.75 104.46 122.82 105.25 122.87 105.44C123.01 106.03 122.53 106.17 120.31 106.2H120.29ZM130.24 106.08C129.55 106.21 127.37 106.16 126.96 105.99C126.63 105.86 126.61 105.7 126.9 105.28C127.05 105.06 127.13 104.68 127.12 104.21C127.11 103.8 127.16 102.9 127.24 102.23C127.39 101.14 127.39 100.96 127.18 100.8C126.92 100.58 127.04 100.07 127.39 100.02C127.54 99.99 128.03 99.96 128.47 99.95C128.93 99.94 129.52 99.85 129.79 99.76C130.44 99.54 130.62 99.68 130.51 100.32C130.47 100.56 130.51 100.96 130.6 101.21C130.74 101.57 130.73 101.73 130.5 102.04C130.22 102.47 130.27 103.5 130.57 103.77C130.65 103.85 130.72 104.03 130.72 104.18C130.69 104.32 130.74 104.78 130.78 105.2L130.86 105.96L130.24 106.08ZM136.19 105.94C135.22 105.9 134.39 105.85 134.3 105.82C134.24 105.79 134.26 105.66 134.31 105.53C134.39 105.39 134.42 105.16 134.38 105.01C134.35 104.86 134.45 104.48 134.61 104.15C134.94 103.53 135.01 103.13 134.8 103.03C134.69 102.97 134.7 102.61 134.87 101.5C134.91 101.17 134.87 100.76 134.73 100.44L134.51 99.93H134.9C135.12 99.93 135.69 99.88 136.17 99.78C136.81 99.66 137.15 99.65 137.47 99.74L137.9 99.84L137.83 100.72C137.79 101.21 137.74 101.71 137.76 101.82C137.76 101.93 137.59 102.27 137.4 102.57C136.99 103.2 136.9 103.5 137.07 103.69C137.13 103.75 137.21 104.07 137.25 104.38C137.28 104.7 137.36 104.98 137.45 105.01C137.67 105.12 137.92 105.53 137.92 105.78C137.92 106 137.88 106 136.17 105.94H136.19ZM147 100.35C146.93 100.56 146.82 100.85 146.71 101C146.52 101.29 146.52 104.74 146.71 105.55L146.81 105.96H145.83C145.28 105.96 144.76 106 144.67 106.07C144.57 106.14 144.3 106.17 144.03 106.14C143.52 106.07 142.26 105.87 142.13 105.81C142.07 105.79 142.1 105.52 142.14 105.21C142.21 104.83 142.18 104.5 142.04 104.25C141.94 104.05 141.85 103.86 141.85 103.85C141.85 103.82 142 103.6 142.17 103.36C142.43 103 142.5 102.76 142.47 102.19C142.43 101.81 142.4 101.12 142.38 100.68L142.35 99.87L143.26 99.9C143.77 99.9 144.35 99.88 144.58 99.81C144.87 99.74 145.3 99.75 146.02 99.83L147.07 99.96L146.99 100.35H147ZM154.6 103.7C154.67 103.8 154.77 104.33 154.81 104.86L154.87 105.85L153.28 105.92C152.39 105.95 151.53 106.01 151.34 106.04C151.06 106.08 151.01 106.04 151.01 105.81C151.01 105.65 151.2 105.35 151.44 105.13C151.84 104.75 151.88 104.65 151.96 103.4C152 102.67 152.12 101.96 152.21 101.83C152.42 101.57 152.51 100.78 152.36 100.78C152.25 100.78 151.9 100.13 151.9 99.92C151.9 99.82 152.19 99.79 152.98 99.81C153.58 99.81 154.26 99.8 154.48 99.76L154.88 99.67L154.83 100.69C154.78 101.64 154.67 102.48 154.53 103.2C154.5 103.39 154.53 103.6 154.61 103.7H154.6ZM163.1 105.81C161.38 105.61 160.95 105.62 160.33 105.87C159.78 106.11 159.69 106.12 159.15 105.98C158.5 105.8 158.3 105.66 158.44 105.42C158.5 105.34 158.61 104.8 158.67 104.23C158.83 103.11 158.85 102.74 158.8 102.17C158.77 101.97 158.8 101.49 158.85 101.12C158.95 100.58 158.92 100.4 158.72 100.18C158.4 99.82 158.4 99.84 158.94 99.75C159.24 99.71 159.52 99.75 159.76 99.86C160.05 100 160.33 100.02 160.92 99.97C161.35 99.93 162.07 99.88 162.53 99.86L163.35 99.82V100.97C163.37 101.6 163.41 102.97 163.46 103.99L163.55 105.88L163.09 105.81H163.1ZM171.4 105.86C171.11 105.99 170.4 105.98 170.03 105.84C169.86 105.77 169.18 105.72 168.52 105.72C166.97 105.72 166.54 105.61 166.69 105.27C166.75 105.14 166.81 104.86 166.87 104.66C166.91 104.45 167.1 104.03 167.3 103.71C167.71 103.05 167.77 102.25 167.43 100.93C167.15 99.8 167.27 99.61 168.15 99.74C168.95 99.85 169.7 99.86 170.3 99.76L170.77 99.68L170.7 100.1C170.66 100.31 170.73 100.81 170.88 101.2C171.02 101.58 171.16 102.31 171.2 102.8C171.24 103.31 171.33 103.78 171.42 103.85C171.52 103.95 171.52 104.06 171.41 104.22C171.24 104.45 171.26 104.78 171.5 105.46C171.58 105.66 171.53 105.79 171.4 105.86ZM179.33 105.99C179.07 105.95 178.4 105.86 177.86 105.78C176.86 105.64 175.92 105.66 175.45 105.84C175.05 106 174.97 105.97 175.09 105.7C175.15 105.57 175.26 105.17 175.31 104.81C175.38 104.45 175.52 104.03 175.64 103.87C175.81 103.65 175.85 103.21 175.82 102.02C175.8 101.17 175.75 100.29 175.68 100.06C175.61 99.76 175.62 99.66 175.78 99.65C175.9 99.64 176.36 99.62 176.82 99.6C177.26 99.58 178 99.54 178.44 99.52C178.86 99.5 179.27 99.51 179.34 99.54C179.58 99.66 179.63 100.09 179.45 100.28C179.24 100.5 179.21 103.49 179.4 103.63C179.47 103.67 179.53 103.89 179.53 104.12C179.53 104.34 179.59 104.56 179.67 104.59C179.75 104.62 179.82 104.97 179.82 105.35V106.04L179.34 105.99H179.33ZM187.96 105.41L187.89 105.79L186.89 105.85C186.34 105.88 185.55 105.88 185.14 105.85L184.39 105.78L184.35 105.2C184.34 104.86 184.42 104.49 184.53 104.31C184.83 103.91 184.82 103.38 184.51 103.16C184.34 103.03 184.3 102.89 184.38 102.65C184.52 102.24 184.5 102.08 184.34 101.13C184.23 100.47 184.24 99.8 184.39 99.67C184.42 99.65 184.65 99.7 184.93 99.76C185.29 99.86 185.6 99.86 186.21 99.76C186.64 99.69 187.04 99.65 187.1 99.7C187.14 99.73 187.2 100.38 187.23 101.15C187.29 102.56 187.47 103.66 187.83 104.54C187.93 104.81 188 105.2 187.96 105.42V105.41ZM196.28 105.7C195.16 105.74 194.89 105.74 194.3 105.72C194.05 105.72 193.44 105.74 192.91 105.77L191.98 105.84L192.12 105.56C192.2 105.39 192.27 105.09 192.27 104.89C192.27 104.64 192.37 104.49 192.52 104.44C192.73 104.39 192.74 104.25 192.66 103.47C192.62 102.9 192.63 102.46 192.74 102.34C193 101.96 192.99 101.34 192.7 101.12C192.55 101 192.42 100.79 192.42 100.66C192.42 100.53 192.38 100.35 192.34 100.26C192.27 100.14 192.45 100.07 193.06 99.97C193.49 99.89 193.9 99.81 194 99.76C194.07 99.73 194.67 99.7 195.32 99.69C196.087 99.6833 196.47 99.7733 196.47 99.96C196.46 100.67 196.64 101.84 196.78 102.03C196.97 102.29 196.98 102.9 196.78 103.26C196.7 103.46 196.71 103.72 196.88 104.16C197.01 104.51 197.13 104.98 197.16 105.23L197.23 105.67L196.29 105.7H196.28ZM205.86 105.54L204.58 105.56C203.87 105.57 203.1 105.58 202.86 105.57C202.6 105.57 202.06 105.57 201.65 105.57C201.23 105.57 200.86 105.51 200.8 105.46C200.69 105.34 200.83 104.83 201.01 104.66C201.23 104.45 201.21 101.53 200.98 101.33C200.87 101.23 200.86 101.16 200.97 101.11C201.16 101.02 201.16 100.46 200.97 99.98C200.8 99.57 200.87 99.45 201.15 99.61C201.37 99.72 203.76 99.72 204.5 99.6C205.29 99.48 205.36 99.59 205.43 101.17C205.5 102.82 205.5 103.34 205.45 104.03C205.42 104.39 205.47 104.54 205.67 104.66C205.86 104.76 205.95 104.91 205.91 105.17L205.86 105.55V105.54ZM213.19 105.73C212.72 105.65 212.32 105.65 211.39 105.73C210.09 105.86 209.99 105.81 209.99 104.88C209.99 104.43 210.1 103.79 210.21 103.45C210.36 103.04 210.42 102.55 210.36 102.04C210.32 101.58 210.34 101.24 210.44 101.19C210.68 101.09 210.62 100.25 210.35 100.06C209.98 99.76 210.35 99.66 211.86 99.61L213.2 99.57V100.11C213.17 100.4 213.16 100.92 213.15 101.25C213.12 102.07 213.24 103.76 213.35 103.96C213.39 104.04 213.43 104.5 213.46 104.95C213.52 105.78 213.52 105.79 213.18 105.73H213.19ZM221.67 105.62C220.59 105.72 219.95 105.72 219 105.62C217.56 105.48 217.6 105.51 217.74 105C217.84 104.62 217.9 103.96 217.94 102.75C217.95 102.29 217.7 100.49 217.59 100.42C217.48 100.32 217.47 100.29 217.58 99.98C217.68 99.73 217.41 99.73 221.04 99.86C221.373 99.8733 221.54 100.07 221.54 100.45C221.54 100.75 221.62 101.04 221.69 101.08C221.8 101.12 221.79 101.22 221.68 101.37C221.5 101.62 221.57 102.49 221.82 102.83C222.14 103.3 222.36 103.82 222.38 104.27C222.39 104.54 222.46 104.93 222.53 105.15L222.63 105.54L221.67 105.62Z" fill="#30303D"/>
</svg>
