<svg width="43" height="40" viewBox="0 0 43 40" fill="none" xmlns="http://www.w3.org/2000/svg">
<g clip-path="url(#clip0_29_36397)">
<path d="M17.6464 24.975C17.6055 24.8621 17.5555 24.7665 17.5328 24.7665C17.4783 24.7665 17.5237 23.2718 17.5874 23.0024C17.6237 22.859 17.6192 22.7895 17.5601 22.7113C17.5056 22.6331 17.5056 22.5592 17.5374 22.4158C17.5646 22.2768 17.5601 22.1595 17.5146 21.9987C17.4601 21.8336 17.451 21.6468 17.4783 21.2166C17.4965 20.9038 17.5146 20.4736 17.5192 20.252C17.5192 20.0304 17.5374 19.7741 17.5601 19.6872C17.5874 19.5612 17.5783 19.4612 17.5192 19.3179C17.4328 19.105 17.4465 18.9094 17.5601 18.6878C17.6146 18.5836 17.6192 18.1143 17.5874 17.6624H17.5783V18.0317C17.501 18.0144 17.3919 18.0057 17.2738 18.0013C17.0966 18.0013 16.8966 18.0013 16.833 18.0013C16.7648 18.0013 16.6057 18.01 16.474 18.0317C16.3422 18.0491 16.1877 18.0622 16.1195 18.0578C15.2424 18.0448 14.6198 18.0144 14.5471 17.9883C14.4971 17.9709 14.438 17.9796 14.3926 18.01C14.3517 18.0448 14.2335 18.0622 14.1199 18.0578C13.7973 18.0404 13.67 18.0448 13.0701 18.0708C12.7384 18.0882 12.4703 18.0752 12.4203 18.0535C12.2976 17.9883 11.3887 17.9709 11.2523 18.0274C11.2023 18.0448 11.1342 18.0622 11.0115 18.0752C11.0069 18.3185 11.0251 18.5401 11.0706 18.627C11.1115 18.6965 11.0796 19.5699 11.0297 19.9913C10.9978 20.2303 11.0024 20.4084 11.0297 20.4867C11.1296 20.7604 11.1524 20.9559 11.1024 21.4252C11.0706 21.6989 11.0297 22.0074 10.9888 22.1073C10.9297 22.2985 10.9342 22.8025 10.9888 23.0285C11.0387 23.1806 11.0433 23.2892 11.0796 23.8758C11.116 24.597 11.1115 24.7143 11.0342 24.8534C10.8842 25.1228 10.8706 25.2922 10.966 25.4139C10.9933 25.44 11.0069 25.6442 11.0024 25.8614C10.9933 26.096 11.0115 26.2916 11.0524 26.3524C11.0887 26.4263 11.0933 26.4914 11.066 26.5436C11.0115 26.6522 10.9433 27.1084 10.9569 27.2605C10.9706 27.33 10.9933 27.4039 11.0115 27.43C11.0796 27.5125 11.0796 27.6993 11.0115 28.1643C10.9615 28.551 10.966 28.5901 11.0569 28.7682C11.1433 28.9333 11.1524 29.0159 11.1251 29.3722C11.1115 29.5981 11.0842 29.8545 11.066 29.9457C11.0387 30.05 11.0433 30.163 11.066 30.2281C11.0933 30.2933 11.116 30.5062 11.1205 30.6974C11.1296 30.9798 11.1115 31.0754 11.0433 31.1623C10.9888 31.2362 10.9615 31.3187 10.9615 31.4187H17.5146C17.5146 31.184 17.5192 30.8842 17.5237 30.4801C17.5328 29.9631 17.5237 29.5156 17.5101 29.4895C17.4874 29.4591 17.5101 29.3765 17.5465 29.3027C17.601 29.2027 17.6192 28.9985 17.6237 28.5075C17.6237 27.5733 17.6237 27.5864 17.5737 27.5255C17.5419 27.4908 17.5237 27.3952 17.5283 27.304C17.5283 27.2171 17.5192 27.0954 17.501 27.0346C17.4783 26.9737 17.4828 26.8999 17.5146 26.8695C17.5374 26.839 17.5692 26.7391 17.5692 26.6522C17.5692 26.4914 17.4965 25.9222 17.4465 25.7919C17.4328 25.7615 17.4828 25.6094 17.5555 25.4617C17.6873 25.1966 17.6873 25.1793 17.6192 24.975H17.6464ZM12.8702 18.892L13.1428 18.9094C13.2883 18.9181 13.5064 18.9529 13.6246 18.9789C13.7427 19.0094 13.8927 19.0398 13.9563 19.0485C14.0199 19.0615 14.2063 19.0876 14.3653 19.118C14.5744 19.1527 14.6925 19.1527 14.7925 19.118C14.9288 19.0658 15.197 19.0181 15.4424 19.0094H15.5878L15.5969 19.3092C15.5969 19.4786 15.615 19.7263 15.6241 19.861C15.6378 20.0608 15.6241 20.1086 15.5696 20.113C15.5242 20.1173 15.356 20.126 15.1879 20.1391C15.0197 20.1434 14.8198 20.1608 14.7425 20.1782C14.6652 20.1955 14.3244 20.2173 13.9836 20.226C13.6473 20.239 13.3019 20.2607 13.2201 20.2738C12.9611 20.3172 12.902 20.1651 12.8884 19.4699L12.8793 18.892H12.8702ZM12.8929 26.9129C12.9247 26.7521 13.0111 26.3567 13.0383 26.3176C13.0474 26.3003 13.1656 26.309 13.3019 26.322C13.4655 26.3437 13.6109 26.335 13.72 26.2916C13.8063 26.2612 13.8881 26.2307 13.8927 26.2307C13.9063 26.2307 14.0018 26.2785 14.1063 26.3307C14.2653 26.4132 14.3699 26.435 14.6153 26.4263C14.7789 26.4132 15.0833 26.4045 15.2742 26.4002L15.6287 26.3915L15.615 26.6783C15.615 26.839 15.6241 27.0215 15.6559 27.091C15.6878 27.1823 15.6832 27.317 15.6469 27.5429L15.5923 27.8731L15.4242 27.8471C15.3333 27.8254 15.206 27.7906 15.1424 27.7558C15.0152 27.695 13.5109 27.695 13.1565 27.7558L12.9792 27.7862V27.4778C12.9792 27.304 12.9611 27.1432 12.9293 27.1128C12.8974 27.0824 12.8838 26.9955 12.8974 26.9129H12.8929ZM15.2651 30.2977C14.8516 30.2803 14.4835 30.2455 14.1699 30.2021C14.0881 30.1934 13.9972 30.2021 13.9518 30.2281C13.9063 30.2499 13.6791 30.2803 13.4473 30.2933L13.0156 30.3107L12.9838 29.811C12.9702 29.5329 12.9429 29.2635 12.9293 29.2027C12.9111 29.1158 12.9293 29.0984 13.0292 29.0984C13.0974 29.0984 13.2292 29.1593 13.3246 29.2331C13.4882 29.3591 13.5337 29.3722 14.079 29.3982C14.3971 29.4113 14.7062 29.4504 14.7652 29.4764C14.8788 29.5416 15.2242 29.572 15.2242 29.5242C15.2242 29.4895 15.506 29.3809 15.6014 29.3809C15.6469 29.3809 15.6559 29.4721 15.6514 29.7198C15.6514 29.9066 15.6514 30.1195 15.6741 30.189L15.715 30.315L15.2697 30.2977H15.2651ZM15.6878 24.8621L15.6423 24.9968L15.2606 24.975C15.047 24.962 14.8289 24.9446 14.7789 24.9533C14.7289 24.9533 14.5834 24.9012 14.4517 24.8403C14.179 24.71 14.0472 24.6839 13.9609 24.7361C13.9336 24.7534 13.7973 24.7795 13.6609 24.7925C13.52 24.8012 13.3973 24.8273 13.3882 24.8534C13.3383 24.9229 13.161 25.0011 13.052 25.0011C12.9565 25.0011 12.9565 24.9881 12.9838 24.4536C13.002 24.1495 13.0247 23.8888 13.0383 23.8627C13.052 23.8453 13.1065 23.8497 13.1656 23.8671C13.2246 23.8931 13.3292 23.9018 13.3928 23.8888C13.4564 23.8801 13.6246 23.9105 13.77 23.9627C14.0427 24.0669 14.2153 24.0887 14.2608 24.0235C14.2881 23.9887 14.4426 23.9931 14.9288 24.0452C15.0743 24.0582 15.2515 24.0452 15.3924 24.0018L15.615 23.9322V24.0539C15.615 24.1234 15.6378 24.3016 15.6787 24.4536C15.7332 24.6535 15.7332 24.7621 15.6969 24.8621H15.6878ZM15.4378 22.6765C15.3333 22.6635 15.1606 22.6765 15.0515 22.7026C14.8925 22.7461 14.8243 22.7417 14.688 22.6722C14.5016 22.5853 14.0517 22.5983 13.9336 22.6939C13.8972 22.72 13.82 22.7417 13.7564 22.7417C13.6973 22.733 13.4928 22.7417 13.311 22.7591L12.9792 22.7852L12.9247 22.5896C12.8702 22.3724 12.8884 21.6902 12.9656 21.5599C13.0201 21.4556 13.0929 21.4512 13.2746 21.5425C13.3701 21.5903 13.5382 21.6164 13.7427 21.612C13.92 21.6077 14.3153 21.625 14.6062 21.6511C15.0833 21.6989 15.1606 21.6989 15.2288 21.6337C15.3242 21.5512 15.5469 21.5903 15.5696 21.6989C15.5832 21.7467 15.5969 21.8988 15.6014 22.0378C15.6014 22.1812 15.6469 22.368 15.6832 22.4506C15.7787 22.6548 15.7196 22.7113 15.4378 22.6765Z" fill="#30303D"/>
<path d="M37.0832 24.975C37.0423 24.8621 36.9923 24.7665 36.9696 24.7665C36.9151 24.7665 36.9605 23.2718 37.0241 23.0024C37.0605 22.859 37.0559 22.7895 36.9969 22.7113C36.9423 22.6331 36.9423 22.5592 36.9741 22.4158C37.0014 22.2768 36.9969 22.1595 36.9514 21.9987C36.8969 21.8336 36.8878 21.6468 36.9151 21.2166C36.9332 20.9038 36.9514 20.4736 36.956 20.252C36.956 20.0304 36.9741 19.7741 36.9969 19.6872C37.0241 19.5612 37.015 19.4612 36.956 19.3179C36.8696 19.105 36.8832 18.9094 36.9969 18.6878C37.0514 18.5836 37.0559 18.1143 37.0241 17.6624H37.015V18.0317C36.9378 18.0144 36.8287 18.0057 36.7106 18.0013C36.5333 18.0013 36.3334 18.0013 36.2697 18.0013C36.2016 18.0013 36.0425 18.01 35.9107 18.0317C35.7789 18.0491 35.6244 18.0622 35.5563 18.0578C34.6792 18.0448 34.0566 18.0144 33.9839 17.9883C33.9339 17.9709 33.8748 17.9796 33.8293 18.01C33.7884 18.0448 33.6703 18.0622 33.5567 18.0578C33.234 18.0404 33.1068 18.0448 32.5069 18.0708C32.1752 18.0882 31.907 18.0752 31.857 18.0535C31.7343 17.9883 30.8254 17.9709 30.6891 18.0274C30.6391 18.0448 30.5709 18.0622 30.4482 18.0752C30.4437 18.3185 30.4619 18.5401 30.5073 18.627C30.5482 18.6965 30.5164 19.5699 30.4664 19.9913C30.4346 20.2303 30.4392 20.4084 30.4664 20.4867C30.5664 20.7604 30.5891 20.9559 30.5391 21.4252C30.5073 21.6989 30.4664 22.0074 30.4255 22.1073C30.3664 22.2985 30.371 22.8025 30.4255 23.0285C30.4755 23.1806 30.4801 23.2892 30.5164 23.8758C30.5528 24.597 30.5482 24.7143 30.471 24.8534C30.321 25.1228 30.3074 25.2922 30.4028 25.4139C30.4301 25.44 30.4437 25.6442 30.4392 25.8614C30.4301 26.096 30.4482 26.2916 30.4891 26.3524C30.5255 26.4263 30.53 26.4914 30.5028 26.5436C30.4482 26.6522 30.3801 27.1084 30.3937 27.2605C30.4073 27.33 30.4301 27.4039 30.4482 27.43C30.5164 27.5125 30.5164 27.6993 30.4482 28.1643C30.3983 28.551 30.4028 28.5901 30.4937 28.7682C30.58 28.9333 30.5891 29.0159 30.5619 29.3722C30.5482 29.5981 30.521 29.8545 30.5028 29.9457C30.4755 30.05 30.4801 30.163 30.5028 30.2281C30.53 30.2933 30.5528 30.5062 30.5573 30.6974C30.5664 30.9798 30.5482 31.0754 30.4801 31.1623C30.4255 31.2362 30.3983 31.3187 30.3983 31.4187H36.9514C36.9514 31.184 36.956 30.8842 36.9605 30.4801C36.9696 29.9631 36.9605 29.5156 36.9469 29.4895C36.9241 29.4591 36.9469 29.3765 36.9832 29.3027C37.0378 29.2027 37.0559 28.9985 37.0605 28.5075C37.0605 27.5733 37.0605 27.5864 37.0105 27.5255C36.9787 27.4908 36.9605 27.3952 36.965 27.304C36.965 27.2171 36.956 27.0954 36.9378 27.0346C36.9151 26.9737 36.9196 26.8999 36.9514 26.8695C36.9741 26.839 37.0059 26.7391 37.0059 26.6522C37.0059 26.4914 36.9332 25.9222 36.8832 25.7919C36.8696 25.7615 36.9196 25.6094 36.9923 25.4617C37.1241 25.1966 37.1241 25.1793 37.0559 24.975H37.0832ZM32.3069 18.892L32.5796 18.9094C32.725 18.9181 32.9432 18.9529 33.0613 18.9789C33.1795 19.0094 33.3295 19.0398 33.3931 19.0485C33.4567 19.0615 33.643 19.0876 33.8021 19.118C34.0111 19.1527 34.1293 19.1527 34.2293 19.118C34.3656 19.0658 34.6337 19.0181 34.8791 19.0094H35.0245L35.0336 19.3092C35.0336 19.4786 35.0518 19.7263 35.0609 19.861C35.0745 20.0608 35.0609 20.1086 35.0064 20.113C34.9609 20.1173 34.7928 20.126 34.6246 20.1391C34.4565 20.1434 34.2565 20.1608 34.1793 20.1782C34.102 20.1955 33.7612 20.2173 33.4203 20.226C33.0841 20.239 32.7387 20.2607 32.6569 20.2738C32.3978 20.3172 32.3388 20.1651 32.3251 19.4699L32.316 18.892H32.3069ZM32.3297 26.9129C32.3615 26.7521 32.4478 26.3567 32.4751 26.3176C32.4842 26.3003 32.6023 26.309 32.7387 26.322C32.9023 26.3437 33.0477 26.335 33.1568 26.2916C33.2431 26.2612 33.3249 26.2307 33.3295 26.2307C33.3431 26.2307 33.4385 26.2785 33.543 26.3307C33.7021 26.4132 33.8066 26.435 34.052 26.4263C34.2156 26.4132 34.5201 26.4045 34.711 26.4002L35.0655 26.3915L35.0518 26.6783C35.0518 26.839 35.0609 27.0215 35.0927 27.091C35.1245 27.1823 35.12 27.317 35.0836 27.5429L35.0291 27.8731L34.8609 27.8471C34.7701 27.8254 34.6428 27.7906 34.5792 27.7558C34.4519 27.695 32.9477 27.695 32.5932 27.7558L32.416 27.7862V27.4778C32.416 27.304 32.3978 27.1432 32.366 27.1128C32.3342 27.0824 32.3206 26.9955 32.3342 26.9129H32.3297ZM34.7019 30.2977C34.2883 30.2803 33.9202 30.2455 33.6067 30.2021C33.5249 30.1934 33.434 30.2021 33.3885 30.2281C33.3431 30.2499 33.1159 30.2803 32.8841 30.2933L32.4524 30.3107L32.4206 29.811C32.4069 29.5329 32.3797 29.2635 32.366 29.2027C32.3478 29.1158 32.366 29.0984 32.466 29.0984C32.5342 29.0984 32.666 29.1593 32.7614 29.2331C32.925 29.3591 32.9704 29.3722 33.5158 29.3982C33.8339 29.4113 34.1429 29.4504 34.202 29.4764C34.3156 29.5416 34.661 29.572 34.661 29.5242C34.661 29.4895 34.9427 29.3809 35.0382 29.3809C35.0836 29.3809 35.0927 29.4721 35.0882 29.7198C35.0882 29.9066 35.0882 30.1195 35.1109 30.189L35.1518 30.315L34.7064 30.2977H34.7019ZM35.1245 24.8621L35.0791 24.9968L34.6973 24.975C34.4838 24.962 34.2656 24.9446 34.2156 24.9533C34.1656 24.9533 34.0202 24.9012 33.8884 24.8403C33.6158 24.71 33.484 24.6839 33.3976 24.7361C33.3704 24.7534 33.234 24.7795 33.0977 24.7925C32.9568 24.8012 32.8341 24.8273 32.825 24.8534C32.775 24.9229 32.5978 25.0011 32.4887 25.0011C32.3933 25.0011 32.3933 24.9881 32.4206 24.4536C32.4387 24.1495 32.4615 23.8888 32.4751 23.8627C32.4887 23.8453 32.5433 23.8497 32.6023 23.8671C32.6614 23.8931 32.7659 23.9018 32.8296 23.8888C32.8932 23.8801 33.0613 23.9105 33.2068 23.9627C33.4794 24.0669 33.6521 24.0887 33.6976 24.0235C33.7248 23.9887 33.8793 23.9931 34.3656 24.0452C34.511 24.0582 34.6883 24.0452 34.8291 24.0018L35.0518 23.9322V24.0539C35.0518 24.1234 35.0745 24.3016 35.1154 24.4536C35.17 24.6535 35.17 24.7621 35.1336 24.8621H35.1245ZM34.8746 22.6765C34.7701 22.6635 34.5974 22.6765 34.4883 22.7026C34.3292 22.7461 34.2611 22.7417 34.1247 22.6722C33.9384 22.5853 33.4885 22.5983 33.3704 22.6939C33.334 22.72 33.2567 22.7417 33.1931 22.7417C33.134 22.733 32.9295 22.7417 32.7478 22.7591L32.416 22.7852L32.3615 22.5896C32.3069 22.3724 32.3251 21.6902 32.4024 21.5599C32.4569 21.4556 32.5296 21.4512 32.7114 21.5425C32.8068 21.5903 32.975 21.6164 33.1795 21.612C33.3567 21.6077 33.7521 21.625 34.0429 21.6511C34.5201 21.6989 34.5974 21.6989 34.6655 21.6337C34.761 21.5512 34.9836 21.5903 35.0064 21.6989C35.02 21.7467 35.0336 21.8988 35.0382 22.0378C35.0382 22.1812 35.0836 22.368 35.12 22.4506C35.2154 22.6548 35.1563 22.7113 34.8746 22.6765Z" fill="#30303D"/>
<path d="M24.504 11.8444C24.2858 11.8835 24.0995 11.9357 24.0995 11.9531C24.0995 12.0052 21.191 11.9748 20.6684 11.9183C20.3912 11.8879 20.2549 11.8922 20.1003 11.9444C19.9504 11.9965 19.8049 12.0009 19.5277 11.9661C19.2551 11.9444 19.0278 11.9487 18.7143 11.9922C18.3916 12.0443 18.0281 12.0573 17.1919 12.0313C16.5829 12.0182 15.7467 12.0052 15.315 12.0009C14.8833 12.0009 14.3834 11.9878 14.2152 11.9661C13.9698 11.94 13.7744 11.9531 13.4972 12.0052C13.0836 12.0921 12.7019 12.0791 12.2702 11.9704C12.0657 11.9183 11.1522 11.9183 10.2751 11.9531V11.9618H10.9932C10.9614 12.0356 10.9432 12.1399 10.9341 12.2529C10.9341 12.4223 10.9296 12.6135 10.9296 12.6743C10.9205 12.7395 10.9477 12.8916 10.9932 13.0176C11.0295 13.1436 11.0523 13.2913 11.0477 13.3565C11.0295 14.1951 10.9659 14.7903 10.9159 14.8599C10.8841 14.9077 10.8977 14.9641 10.9614 15.0076C11.0295 15.0467 11.0659 15.1597 11.0568 15.264C11.025 15.5724 11.0341 15.6941 11.0886 16.2676C11.125 16.5848 11.1022 16.8412 11.0613 16.889C10.9341 17.0063 10.9068 17.8753 11.0204 18.0056C11.0568 18.0534 11.0886 18.1186 11.1113 18.2359C11.5885 18.2359 12.0202 18.2185 12.1838 18.1751C12.3202 18.136 14.0198 18.1577 14.8378 18.2012C15.3014 18.2272 15.6513 18.2229 15.8013 18.1925C16.333 18.0925 16.7147 18.0708 17.6281 18.1143C18.1598 18.1403 18.7597 18.1794 18.9551 18.2185C19.3278 18.275 20.3094 18.2663 20.7457 18.2055C21.0411 18.1577 21.2546 18.149 22.3953 18.1099C23.7996 18.0708 24.0268 18.0752 24.2995 18.1447C24.8221 18.2837 25.1538 18.3011 25.3901 18.2055C25.4401 18.1794 25.84 18.1664 26.2627 18.1708C26.7171 18.1751 27.0989 18.1577 27.217 18.123C27.3624 18.0882 27.4851 18.0839 27.5897 18.1099C27.8033 18.1621 28.6894 18.2229 28.9848 18.2099C29.1212 18.1968 29.262 18.1751 29.312 18.1534C29.4711 18.0839 29.8346 18.0839 30.739 18.149C31.4934 18.1925 31.5661 18.1881 31.9115 18.1012C32.2341 18.0187 32.3932 18.0056 33.084 18.0317C33.5248 18.0404 34.0201 18.0665 34.2019 18.0839C34.4064 18.1099 34.6245 18.1012 34.7518 18.0795C34.879 18.0534 35.2926 18.0317 35.6652 18.023C36.2151 18.0143 36.4014 18.0274 36.5696 18.0925C36.7105 18.1447 36.8741 18.1708 37.0695 18.1664L37.0422 11.9009C36.5832 11.9009 36.0015 11.9009 35.2153 11.9009C34.211 11.9009 33.3384 11.9009 33.2885 11.9227C33.2294 11.9444 33.0703 11.9227 32.9249 11.8922C32.7295 11.8444 32.3341 11.8227 31.3798 11.8227C29.562 11.8314 29.5892 11.8227 29.4711 11.8749C29.4029 11.9053 29.2166 11.9227 29.0394 11.9183C28.8712 11.9183 28.6349 11.927 28.5167 11.9444C28.3986 11.9661 28.2532 11.9618 28.1941 11.9313C28.135 11.9096 27.9396 11.8835 27.7714 11.8792C27.4579 11.8792 26.3536 11.9574 26.0991 12.0009C26.04 12.0139 25.7446 11.9704 25.4583 11.9009C24.9402 11.7793 24.9084 11.7793 24.513 11.8401L24.504 11.8444ZM12.6928 16.4588L12.7246 16.1981C12.7428 16.0591 12.8064 15.8505 12.8564 15.7376C12.9155 15.6246 12.9746 15.4812 12.9882 15.4204C13.0155 15.3595 13.0655 15.1814 13.12 15.0293C13.1882 14.8295 13.1882 14.7165 13.12 14.6209C13.02 14.4905 12.9246 14.2342 12.9064 13.9996L12.8973 13.8605L13.4881 13.8518C13.8199 13.8475 14.3016 13.8301 14.5606 13.8214C14.9514 13.8084 15.0423 13.8171 15.0514 13.8736C15.0605 13.917 15.0787 14.0778 15.1059 14.2385C15.115 14.3993 15.1514 14.5905 15.1832 14.6643C15.2196 14.7382 15.2605 15.0641 15.2786 15.39C15.3059 15.7115 15.3513 16.0417 15.3741 16.1199C15.4604 16.3676 15.165 16.4241 13.8108 16.4414L12.6883 16.4545L12.6928 16.4588ZM28.2941 16.3763C27.9805 16.3502 27.2125 16.2676 27.1352 16.2416C27.1034 16.2329 27.117 16.1199 27.1443 15.9896C27.1852 15.8288 27.167 15.6941 27.0852 15.5898C27.0261 15.5073 26.9671 15.4291 26.9671 15.4247C26.9671 15.4117 27.058 15.3204 27.1625 15.2205C27.3215 15.0684 27.3624 14.9685 27.3443 14.7339C27.317 14.5774 27.2988 14.2863 27.2897 14.1038L27.2716 13.7649L27.8305 13.7736C28.1441 13.7736 28.4986 13.7606 28.6349 13.7345C28.8121 13.7041 29.0757 13.7084 29.512 13.7389L30.1528 13.791L30.1028 13.9518C30.0619 14.0387 29.9937 14.1603 29.9255 14.2255C29.8074 14.3472 29.8119 15.7854 29.9346 16.1243L29.9937 16.2937H29.3938C29.0575 16.2937 28.744 16.3154 28.6849 16.3459C28.6258 16.3763 28.4577 16.3893 28.2941 16.3763ZM34.8699 14.0821C34.8381 14.4775 34.77 14.8295 34.6882 15.1293C34.67 15.2075 34.6882 15.2944 34.7382 15.3378C34.7791 15.3813 34.8427 15.5985 34.8654 15.8201L34.9018 16.2329L33.9292 16.2676C33.3884 16.2807 32.8658 16.3111 32.7477 16.3241C32.5795 16.3415 32.5432 16.3241 32.5432 16.2285C32.5432 16.1634 32.6613 16.0374 32.8022 15.9418C33.0476 15.781 33.0703 15.7419 33.1203 15.2205C33.143 14.9164 33.2203 14.6209 33.2703 14.5644C33.3975 14.4558 33.4521 14.1256 33.3612 14.1256C33.293 14.1256 33.0794 13.8562 33.0794 13.7693C33.0794 13.7258 33.2566 13.7128 33.7384 13.7215C34.1019 13.7215 34.5155 13.7128 34.6518 13.6954L34.8972 13.6563L34.8654 14.0821H34.8699ZM24.2949 13.7215L24.5585 13.7606L24.5176 14.1299C24.4949 14.3341 24.4585 14.5427 24.4767 14.5905C24.4767 14.6383 24.3767 14.7773 24.2586 14.9033C24.0041 15.1684 23.9541 15.2944 24.0586 15.3726C24.0904 15.3986 24.1449 15.529 24.1677 15.6593C24.1858 15.794 24.2358 15.9114 24.2858 15.92C24.4222 15.9635 24.5721 16.1373 24.5767 16.2416C24.5767 16.3328 24.5539 16.3328 23.5133 16.3111C22.9225 16.2981 22.4135 16.2763 22.3635 16.2676C22.3317 16.2546 22.3362 16.2025 22.3726 16.146C22.4226 16.0895 22.4408 15.9896 22.4135 15.9287C22.3953 15.8679 22.4544 15.7071 22.5544 15.5681C22.7543 15.3074 22.7998 15.1423 22.6725 15.0988C22.6044 15.0728 22.6134 14.925 22.7134 14.4601C22.7361 14.3211 22.7134 14.1516 22.6271 14.0169L22.4907 13.804H22.7271C22.8634 13.804 23.2088 13.7823 23.5042 13.7389C23.895 13.6867 24.104 13.6824 24.2995 13.7171L24.2949 13.7215ZM20.0458 13.9778C20.0231 14.0778 20.0458 14.2429 20.1003 14.3472C20.1867 14.4949 20.1776 14.5644 20.0413 14.6948C19.8731 14.8729 19.9004 15.3031 20.0867 15.416C20.1367 15.4508 20.1821 15.5246 20.1821 15.5855C20.164 15.642 20.1912 15.8375 20.2185 16.0113L20.2685 16.3285L19.8867 16.3806C19.4641 16.4371 18.1371 16.4197 17.8826 16.3502C17.6781 16.2981 17.669 16.2285 17.8463 16.0547C17.9372 15.9635 17.9872 15.8027 17.9781 15.6072C17.969 15.4377 18.0008 15.0597 18.0508 14.7817C18.1417 14.3254 18.1417 14.2516 18.0144 14.1864C17.8554 14.0951 17.9281 13.8822 18.1417 13.8605C18.2326 13.8475 18.5325 13.8344 18.8006 13.8301C19.0778 13.8258 19.4414 13.7867 19.605 13.7475C20.0004 13.6563 20.114 13.7128 20.0458 13.9778Z" fill="#30303D"/>
<path d="M24.504 31.1579C24.2858 31.1971 24.0995 31.2492 24.0995 31.2666C24.0995 31.3187 21.191 31.2883 20.6684 31.2318C20.3912 31.2014 20.2549 31.2057 20.1003 31.2579C19.9504 31.31 19.8049 31.3144 19.5277 31.2796C19.2551 31.2579 19.0278 31.2622 18.7143 31.3057C18.3916 31.3578 18.0281 31.3709 17.1919 31.3448C16.5829 31.3317 15.7467 31.3187 15.315 31.3144C14.8833 31.3144 14.3834 31.3013 14.2152 31.2796C13.9698 31.2535 13.7744 31.2666 13.4972 31.3187C13.0836 31.4056 12.7019 31.3926 12.2702 31.284C12.0657 31.2318 11.1522 31.2318 10.2751 31.2666V31.2753H10.9932C10.9614 31.3491 10.9432 31.4534 10.9341 31.5664C10.9341 31.7358 10.9296 31.927 10.9296 31.9878C10.9205 32.053 10.9477 32.2051 10.9932 32.3311C11.0295 32.4571 11.0523 32.6048 11.0477 32.67C11.0295 33.5086 10.9659 34.1039 10.9159 34.1734C10.8841 34.2212 10.8977 34.2777 10.9614 34.3211C11.0295 34.3602 11.0659 34.4732 11.0568 34.5775C11.025 34.886 11.0341 35.0076 11.0886 35.5812C11.125 35.8983 11.1022 36.1547 11.0613 36.2025C10.9341 36.3198 10.9068 37.1888 11.0204 37.3191C11.0568 37.3669 11.0886 37.4321 11.1113 37.5494C11.5885 37.5494 12.0202 37.5321 12.1838 37.4886C12.3202 37.4495 14.0198 37.4712 14.8378 37.5147C15.3014 37.5407 15.6513 37.5364 15.8013 37.506C16.333 37.406 16.7147 37.3843 17.6281 37.4278C18.1598 37.4538 18.7597 37.4929 18.9551 37.5321C19.3278 37.5885 20.3094 37.5798 20.7457 37.519C21.0411 37.4712 21.2546 37.4625 22.3953 37.4234C23.7996 37.3843 24.0268 37.3887 24.2995 37.4582C24.8221 37.5972 25.1538 37.6146 25.3901 37.519C25.4401 37.4929 25.84 37.4799 26.2627 37.4843C26.7171 37.4886 27.0989 37.4712 27.217 37.4365C27.3624 37.4017 27.4851 37.3974 27.5897 37.4234C27.8033 37.4756 28.6894 37.5364 28.9848 37.5234C29.1212 37.5103 29.262 37.4886 29.312 37.4669C29.4711 37.3974 29.8346 37.3974 30.739 37.4625C31.4934 37.506 31.5661 37.5016 31.9115 37.4147C32.2341 37.3322 32.3932 37.3191 33.084 37.3452C33.5248 37.3539 34.0201 37.38 34.2019 37.3974C34.4064 37.4234 34.6245 37.4147 34.7518 37.393C34.879 37.3669 35.2926 37.3452 35.6652 37.3365C36.2151 37.3278 36.4014 37.3409 36.5696 37.406C36.7105 37.4582 36.8741 37.4843 37.0695 37.4799L37.0422 31.2144C36.5832 31.2144 36.0015 31.2144 35.2153 31.2144C34.211 31.2144 33.3384 31.2144 33.2885 31.2362C33.2294 31.2579 33.0703 31.2362 32.9249 31.2057C32.7295 31.158 32.3341 31.1362 31.3798 31.1362C29.562 31.1449 29.5892 31.1362 29.4711 31.1884C29.4029 31.2188 29.2166 31.2362 29.0394 31.2318C28.8712 31.2318 28.6349 31.2405 28.5167 31.2579C28.3986 31.2796 28.2532 31.2753 28.1941 31.2449C28.135 31.2231 27.9396 31.1971 27.7714 31.1927C27.4579 31.1927 26.3536 31.2709 26.0991 31.3144C26.04 31.3274 25.7446 31.284 25.4583 31.2144C24.9402 31.0928 24.9084 31.0928 24.513 31.1536L24.504 31.1579ZM12.6928 35.7723L12.7246 35.5116C12.7428 35.3726 12.8064 35.164 12.8564 35.0511C12.9155 34.9381 12.9746 34.7947 12.9882 34.7339C13.0155 34.6731 13.0655 34.4949 13.12 34.3428C13.1882 34.143 13.1882 34.03 13.12 33.9344C13.02 33.804 12.9246 33.5477 12.9064 33.3131L12.8973 33.174L13.4881 33.1653C13.8199 33.161 14.3016 33.1436 14.5606 33.1349C14.9514 33.1219 15.0423 33.1306 15.0514 33.1871C15.0605 33.2305 15.0787 33.3913 15.1059 33.552C15.115 33.7128 15.1514 33.904 15.1832 33.9778C15.2196 34.0517 15.2605 34.3776 15.2786 34.7035C15.3059 35.025 15.3513 35.3552 15.3741 35.4334C15.4604 35.6811 15.165 35.7376 13.8108 35.755L12.6883 35.768L12.6928 35.7723ZM28.2941 35.6898C27.9805 35.6637 27.2125 35.5812 27.1352 35.5551C27.1034 35.5464 27.117 35.4334 27.1443 35.3031C27.1852 35.1423 27.167 35.0076 27.0852 34.9033C27.0261 34.8208 26.9671 34.7426 26.9671 34.7382C26.9671 34.7252 27.058 34.6339 27.1625 34.534C27.3215 34.3819 27.3624 34.282 27.3443 34.0474C27.317 33.891 27.2988 33.5998 27.2897 33.4173L27.2716 33.0784L27.8305 33.0871C28.1441 33.0871 28.4986 33.0741 28.6349 33.048C28.8121 33.0176 29.0757 33.022 29.512 33.0524L30.1528 33.1045L30.1028 33.2653C30.0619 33.3522 29.9937 33.4738 29.9255 33.539C29.8074 33.6607 29.8119 35.0989 29.9346 35.4378L29.9937 35.6072H29.3938C29.0575 35.6072 28.744 35.6289 28.6849 35.6594C28.6258 35.6898 28.4577 35.7028 28.2941 35.6898ZM34.8699 33.3956C34.8381 33.791 34.77 34.143 34.6882 34.4428C34.67 34.521 34.6882 34.6079 34.7382 34.6513C34.7791 34.6948 34.8427 34.912 34.8654 35.1336L34.9018 35.5464L33.9292 35.5812C33.3884 35.5942 32.8658 35.6246 32.7477 35.6376C32.5795 35.655 32.5432 35.6376 32.5432 35.542C32.5432 35.4769 32.6613 35.3509 32.8022 35.2553C33.0476 35.0945 33.0703 35.0554 33.1203 34.534C33.143 34.2299 33.2203 33.9344 33.2703 33.8779C33.3975 33.7693 33.4521 33.4391 33.3612 33.4391C33.293 33.4391 33.0794 33.1697 33.0794 33.0828C33.0794 33.0393 33.2566 33.0263 33.7384 33.035C34.1019 33.035 34.5155 33.0263 34.6518 33.0089L34.8972 32.9698L34.8654 33.3956H34.8699ZM24.2949 33.035L24.5585 33.0741L24.5176 33.4434C24.4949 33.6476 24.4585 33.8562 24.4767 33.904C24.4767 33.9518 24.3767 34.0908 24.2586 34.2168C24.0041 34.4819 23.9541 34.6079 24.0586 34.6861C24.0904 34.7122 24.1449 34.8425 24.1677 34.9729C24.1858 35.1075 24.2358 35.2249 24.2858 35.2336C24.4222 35.277 24.5721 35.4508 24.5767 35.5551C24.5767 35.6463 24.5539 35.6463 23.5133 35.6246C22.9225 35.6116 22.4135 35.5898 22.3635 35.5812C22.3317 35.5681 22.3362 35.516 22.3726 35.4595C22.4226 35.403 22.4408 35.3031 22.4135 35.2422C22.3953 35.1814 22.4544 35.0206 22.5544 34.8816C22.7543 34.6209 22.7998 34.4558 22.6725 34.4123C22.6044 34.3863 22.6134 34.2386 22.7134 33.7736C22.7361 33.6346 22.7134 33.4651 22.6271 33.3304L22.4907 33.1175H22.7271C22.8634 33.1175 23.2088 33.0958 23.5042 33.0524C23.895 33.0002 24.104 32.9959 24.2995 33.0306L24.2949 33.035ZM20.0458 33.2913C20.0231 33.3913 20.0458 33.5564 20.1003 33.6607C20.1867 33.8084 20.1776 33.8779 20.0413 34.0083C19.8731 34.1864 19.9004 34.6166 20.0867 34.7295C20.1367 34.7643 20.1821 34.8382 20.1821 34.899C20.164 34.9555 20.1912 35.151 20.2185 35.3248L20.2685 35.642L19.8867 35.6941C19.4641 35.7506 18.1371 35.7332 17.8826 35.6637C17.6781 35.6116 17.669 35.542 17.8463 35.3682C17.9372 35.277 17.9872 35.1162 17.9781 34.9207C17.969 34.7513 18.0008 34.3732 18.0508 34.0952C18.1417 33.6389 18.1417 33.5651 18.0144 33.4999C17.8554 33.4087 17.9281 33.1958 18.1417 33.174C18.2326 33.161 18.5325 33.148 18.8006 33.1436C19.0778 33.1393 19.4414 33.1002 19.605 33.0611C20.0004 32.9698 20.114 33.0263 20.0458 33.2913Z" fill="#30303D"/>
<path d="M28.8849 30.4323C29.5075 29.4764 29.1848 29.4721 29.3666 28.9072C29.3257 28.8898 29.4848 28.4771 29.4257 28.4771C29.7074 27.204 29.4484 27.7645 29.5893 27.469C30.2391 26.0743 30.6163 25.5181 31.039 25.0576C31.3344 24.7273 31.5707 24.232 31.7706 23.489C32.0479 22.4853 32.1297 22.368 32.7341 21.9118C33.0931 21.6511 33.3885 21.36 33.3658 21.2905C33.3658 21.2122 33.4703 21.0862 33.6203 20.9993C33.7611 20.9298 33.8838 20.6517 33.9066 20.3737C33.9202 20.1086 34.3792 19.0311 34.9063 17.9709L35.8789 16.0634C36.6787 15.8679 36.4651 13.8822 36.4015 13.8475C36.3379 13.8127 36.3742 12.6743 36.2424 12.3007C35.8471 11.1319 33.0567 11.4534 32.0479 11.662C31.7297 11.7271 31.4071 11.8662 31.3616 11.9618C31.3026 12.0704 30.9208 12.3007 30.5027 12.4745C29.2348 13.0263 28.7031 13.4999 28.2305 14.4862C27.9442 15.0728 27.2489 15.9765 26.2354 17.1019C25.1584 18.2707 24.4449 19.2092 23.9496 20.126C22.409 22.8981 22.0409 23.1718 21.5501 21.864C21.3683 21.386 21.1456 20.9472 21.0456 20.8994C20.9457 20.8516 20.832 20.6822 20.8002 20.5084C20.7502 20.3302 20.5048 20.0174 20.2503 19.8349C19.9868 19.6307 19.5596 19.1527 19.2869 18.7704C19.0142 18.388 18.6598 18.0056 18.4962 17.9274C18.1099 17.7232 17.4191 16.8499 16.9738 16.0113C16.6511 15.3682 16.0694 14.799 15.2787 14.3472C15.106 14.2472 14.6106 13.6085 14.1653 13.3217C12.8383 12.4701 11.5022 11.9965 11.2114 11.7966C10.1661 11.0754 9.94798 11.3926 8.91184 14.1343C8.52556 15.1553 9.17087 17.8666 9.53898 18.6878C9.75257 19.144 10.0843 19.6133 10.2979 19.7132C10.5115 19.8132 10.8887 20.2694 11.1705 20.7126C11.4249 21.1645 11.6658 21.4947 11.6976 21.4338C11.7203 21.386 11.8203 21.4729 11.893 21.6467C11.9839 21.8249 12.1066 21.9422 12.1975 21.9292C12.2702 21.9074 12.4747 22.0639 12.6656 22.2898C12.8292 22.5244 13.2155 22.8851 13.4972 23.0936C13.7926 23.3109 14.2562 24.0408 14.6106 24.8142C14.9515 25.5659 15.1923 25.9874 15.4832 26.2524C16.3148 26.8998 17.3282 26.7174 17.9554 27.2344C20.3231 29.1897 18.8188 29.0202 20.473 30.328C20.473 30.328 21.7682 31.297 24.1223 32.5787C26.4354 33.8388 26.6263 33.4651 26.6308 33.5129C26.6308 33.5173 26.6308 33.5216 26.6399 33.5216C26.7308 33.5086 27.4125 33.4043 27.726 32.909C27.9851 32.5049 28.185 31.5186 28.8849 30.4367V30.4323Z" fill="#00CE6B"/>
</g>
<defs>
<clipPath id="clip0_29_36397">
<rect width="43" height="40" fill="white"/>
</clipPath>
</defs>
</svg>
