<?xml version="1.0" encoding="UTF-8"?>
<svg id="Camada_2" data-name="Camada 2" xmlns="http://www.w3.org/2000/svg" viewBox="0 0 216.43 105.09">
  <defs>
    <style>
      .cls-1 {
        fill: none;
        stroke: #1d1d1b;
        stroke-miterlimit: 10;
      }

      .cls-2 {
        fill: #ffdb08;
      }

      .cls-3 {
        fill: #010101;
      }
    </style>
  </defs>
  <g id="Camada_2-2" data-name="Camada 2">
    <g>
      <g>
        <circle class="cls-2" cx="140.6" cy="13.67" r="7.74"/>
        <polygon class="cls-2" points="157 67.44 157 76 129.97 76 129.58 69.21 134.64 65.89 131.92 35.75 128.03 35.75 128.03 28.36 154.47 26.42 155.05 34.97 150.58 34.97 151.17 63.92 157 67.44"/>
        <path class="cls-2" d="M104.04,76.19c-31.88,0-26.56-48.41-26.56-48.41h11.52s-3.82,36.55,14.27,36.36c18.08-.2,9.91-36.36,9.91-36.36h11.86s8.73,48.41-21,48.41Z"/>
        <polygon class="cls-2" points="197.24 52.25 202.85 76.19 163.88 75.91 160.38 64.76 179.63 35.09 162.91 35.09 166.02 23.82 204.13 23.82 175.74 62.81 197.24 52.25"/>
        <g>
          <polygon class="cls-2" points="79.86 78.15 90.09 64.44 74.88 54.47 64.97 66.78 79.86 78.15"/>
          <path class="cls-2" d="M42.47,2.45C22.54,2.45,6.37,18.61,6.37,38.54s16.16,36.1,36.1,36.1c8.51,0,16.32-2.94,22.49-7.86h0s0,0,0,0l9.91-12.31c2.36-4.8,3.69-10.21,3.69-15.92C78.57,18.61,62.41,2.45,42.47,2.45Zm19.38,43.34l-7.85-5.35-8.36,10.08,7.28,5.69c-3.46,2.14-7.53,3.38-11.9,3.38-12.48,0-22.6-10.12-22.6-22.6S28.55,14.39,41.03,14.39s22.6,10.12,22.6,22.6c0,3.12-.63,6.09-1.77,8.8Z"/>
        </g>
      </g>
      <g>
        <path class="cls-1" d="M47.05,54.26c-3.46,2.14-7.53,3.38-11.89,3.38-12.48,0-22.6-10.12-22.6-22.6S22.67,12.44,35.15,12.44s22.6,10.12,22.6,22.6c0,3.12-.63,6.09-1.78,8.8"/>
        <path class="cls-1" d="M59.09,64.84c-6.17,4.92-13.99,7.86-22.49,7.86C16.66,72.7,.5,56.54,.5,36.6S16.66,.5,36.6,.5s36.1,16.16,36.1,36.1c0,5.72-1.33,11.12-3.69,15.92"/>
        <polyline class="cls-1" points="47.05 54.26 39.77 48.57 48.13 38.49 55.98 43.84"/>
        <polyline class="cls-1" points="69.01 52.52 84.22 62.49 73.99 76.21 59.09 64.83"/>
        <path class="cls-1" d="M72.7,25.27h11.52s-3.81,36.55,14.27,36.36c18.08-.19,9.92-36.36,9.92-36.36h11.86s8.73,48.41-21,48.41c-31.88,0-26.56-48.41-26.56-48.41"/>
        <polygon class="cls-1" points="123.18 25.07 123.18 32.45 127.06 32.45 129.79 62.59 124.73 65.91 125.12 72.7 152.14 72.7 152.14 64.14 146.31 60.63 145.73 31.68 150.2 31.68 149.62 23.12 123.18 25.07"/>
        <polygon class="cls-1" points="159.92 20.33 156.81 31.6 173.53 31.6 154.28 61.26 157.78 72.42 196.75 72.7 191.13 48.76 169.64 59.32 198.03 20.33 159.92 20.33"/>
        <circle class="cls-1" cx="136.14" cy="12.58" r="7.74"/>
      </g>
    </g>
    <g id="TEXTS">
      <g>
        <path class="cls-3" d="M32.18,88.65s0-.03,0-.05c-.02-.27-.06-.54-.12-.81,0-.04-.01-.08-.03-.12h0s0-.03,0-.04c-.08-.3-.36-.46-.66-.41-.2,0-.48,.02-.71,.03-1.06,.05-2.14,.07-3.21,.08-.48,.05-2.23-.08-2.82,.14h0c-.1,0-.21,.05-.26,.16-.11,1.12,.01,2.27,.03,3.39,.06,1.43,.11,2.86,.15,4.3,.04,1.85,.03,3.69,0,5.54-.28-.26-.56-.52-.84-.78-1.55-1.5-3.05-3.09-4.55-4.65-2.41-2.41-4.73-4.92-7.11-7.36-.81-.88-1.21-.76-2.32-.67-.25,.03-.5,.05-.75,.06-1.09-.03-2.18-.1-3.26-.09-.44,.04-.94-.05-1.35,.13-.49,.41-.22,1.54-.27,2.15,.17,3.62-.3,7.21-.28,10.82,0,1.1,.04,2.2,.1,3.3-.03,.75,.35,.85,1.01,.9,1.77,.1,3.53-.15,5.29-.19,1.47-.05,1.82,.18,1.74-1.53-.05-1.39,.01-2.82,.02-4.22,.01-.77,.02-1.54,.02-2.32,.59,.56,1.18,1.13,1.78,1.7,1.68,1.5,3.39,2.96,5.03,4.5,.49,.45,1,1,1.48,1.5,.64,.68,1.06,.98,2.02,.94,1.13,.06,2.26-.03,3.39-.08,1.85-.03,3.71,.08,5.56-.08,.42-.05,1.15,0,1.17-.58,.12-1.2,.07-2.41,.09-3.62,.05-2.88,.17-5.77-.02-8.66-.05-1.14-.18-2.28-.32-3.41h0Zm-26.91,4.31c0-1.26-.04-2.52,0-3.78-.01-.18,.16-.35,.35-.29,.13,.04,.21,.18,.18,.31-.02,.23-.01,.45,0,.68,0,.77,.01,1.54,.01,2.32-.05,.3,.17,1.03-.27,1.04-.15,0-.26-.13-.26-.27Zm.54,1.7c-.14,0-.26-.13-.26-.27,0-.15,.13-.26,.27-.26s.26,.13,.26,.27c0,.15-.13,.26-.27,.26Zm.98-2.06c-.04-1.17-.14-2.34-.16-3.5,.09-.29,.54-.21,.51,.09h0v-.03c.07,1.13,.12,2.26,.17,3.39,.03,.34-.49,.39-.52,.05h0Zm15.5,10.39c.15-.25,1.08-.16,1.36-.21,.31-.01,.63-.03,.94-.05,.14,0,.27,.09,.29,.23,.01,.14-.09,.28-.23,.29-.33,.01-.65,.04-.97,.05-.37,.01-.69,.02-1.05,.06-.08,.04-.18,.03-.26-.02-.12-.08-.15-.24-.08-.36h0Zm3.28,1.32c-.76,.04-1.52,.1-2.28,.09-.24,0-.48-.02-.72-.02-.11,.04-.24,0-.31-.1-.09-.12-.05-.28,.06-.37,.09-.07,.22-.06,.32-.06,.43,.02,.86,.03,1.3,.01,.53-.02,1.06-.06,1.58-.08,.14,0,.27,.09,.29,.23,.01,.14-.09,.28-.23,.29h0Zm.23-12.11c-.06-1.03-.06-2.05-.15-3.08-.05-.21,.16-.41,.36-.32,.21,.09,.15,.32,.18,.5,.03,.4,.05,.8,.06,1.19,.02,.51,.04,1.03,.06,1.54,.03,.17-.03,.37-.23,.39-.14,.01-.28-.09-.29-.23h0Zm.57,11.04c-.14,0-.26-.13-.26-.27,0-.15,.13-.26,.27-.26s.26,.13,.26,.27c0,.15-.13,.26-.27,.26Zm.26-9.71c-.14,0-.26-.13-.26-.27,0-.15,.13-.26,.27-.26s.26,.13,.26,.27c0,.15-.13,.26-.27,.26Zm.54-2.01c-.04-.82-.16-1.64-.17-2.46,.09-.37,.6-.23,.52,.14,.05,.75,.13,1.51,.17,2.26,.03,.34-.49,.39-.52,.05Zm4.71,12.74s-.07,.01-.1,.01c.04-.01,.07-.02,.1-.04v.02h0Z"/>
        <path class="cls-3" d="M53.52,87.39c-1.85-.3-3.73-.52-5.61-.54-.7-.01-1.47,.1-2.18,.08-1.8-.04-3.62,.16-5.3,.85-1.96,.72-3.6,2.17-4.54,4.04-.89,1.88-1.41,4.01-1.19,6.09,.31,3.15,2.56,5.23,5.53,6.02,2.27,.62,4.64,.72,6.98,.85,2.01,.06,4.01,.17,6.02,.21,2.48,0,5.07-.23,7.35-1.3,1.3-.65,2.16-1.94,2.64-3.28,1.12-3.41,.04-7.54-2.48-10.06-1.89-1.94-4.64-2.53-7.22-2.95h0Zm6.71,12.15c.21-.27,.62,.04,.42,.31-.38,.54-.89,.98-1.48,1.3-.26,.11-.95,.54-1.08,.12-.08-.29,.26-.35,.46-.41,.42-.15,.8-.41,1.13-.7,.19-.19,.39-.39,.54-.62h0Zm-22.29-7.45c-.06,.17-.22,.32-.4,.23-.4-.21,.14-.76,.27-1.02,.46-.69,1.07-1.27,1.77-1.72,.31-.18,.62-.42,.98-.46,.32,.01,.33,.49,.01,.52-.87,.39-1.63,1.03-2.2,1.78-.16,.22-.3,.44-.43,.68Zm1.04,1.11c-.14,0-.26-.13-.26-.27,0-.15,.13-.26,.27-.26s.26,.13,.26,.27c0,.15-.13,.26-.27,.26Zm.57-1.72c.51-.55,1.32-1.28,2.07-1.4,.32,.03,.3,.52-.02,.52-.38,.14-.72,.38-1.04,.62-.15,.13-.3,.27-.43,.4-.14,.15-.33,.4-.55,.22-.1-.09-.13-.27-.03-.37h0Zm12.31,6.77c-1.52,.66-3.09,1.22-4.68,1.71-1.51,.48-3.06,.92-4.65,.94-1.51,.04-3.48-.78-2.78-2.6,.37-.74,1.02-1.3,1.66-1.8,1.96-1.36,4.12-2.42,6.36-3.22,1.97-.71,3.98-1.38,6.07-1.65,1.3-.16,2.75-.17,3.93,.52,1.8,1.09,.51,2.77-.85,3.51-1.61,1.02-3.34,1.81-5.07,2.59h0Zm5,3.37c0-.14,.12-.26,.26-.26s.26,.12,.26,.26-.12,.26-.26,.26-.26-.12-.26-.26Zm4.39-.91c.06-.21,.36-.23,.48-.04,.16,.25-.34,.75-.49,.95-.64,.75-1.54,1.2-2.47,1.45-.39,.11-.79,.18-1.19,.22-.14,.02-.28-.08-.3-.22-.02-.14,.08-.28,.22-.3,.39-.04,.77-.11,1.15-.22,1.06-.28,2.05-.89,2.61-1.85Z"/>
        <path class="cls-3" d="M68.18,88.95h0s-.01,.03-.02,.04c0,0,0-.01,0-.01,0-.01,0-.02,.01-.03Z"/>
        <path class="cls-3" d="M85.83,102.84c-1.51-1.33-3.05-2.66-4.73-3.78,2.75-.45,5.23-2.38,5.08-5.4-.07-1.49-.71-2.96-1.73-4.04-1.42-1.49-3.54-1.98-5.51-2.29-2.33-.35-4.69-.19-7.03-.1-2.02,.11-4.06,.09-6.05,.51-.21,.06-.3,.2-.29,.34-.09,.2-.03,.48-.06,.69-.18,3.77-.1,7.55,.03,11.33,.04,1.11,.07,2.22,.23,3.31,.21,.54,.95,.4,1.41,.44,1.44-.09,2.9,.01,4.34-.16,.54-.15,.46-.82,.46-1.26,0-.54-.01-1.08,0-1.61,.01-.48,.05-.96,.05-1.44,.88,.05,1.75,.1,2.63,.19,.66,.05,1.31,.12,1.96,.16,1.47,1.2,2.91,2.43,4.3,3.72,.5,.41,1.36,1.47,1.98,1.53,1.18-.1,2.4-.17,3.51-.6,.85-.43-.24-1.14-.59-1.53Zm-18.11-14.12c.17-.23,.51-.04,.47,.2-.01,1.26,.15,2.52,.16,3.78,0,.34-.51,.35-.53,.01-.01-1-.09-1.99-.15-2.99,.01-.32-.09-.69,.04-.99h0Zm-1.2,.5c-.03-.2,.04-.47,.3-.45,.14,.01,.26,.15,.23,.3-.03,.93,.04,1.86,.01,2.79,0,.34-.51,.35-.53,.01,.03-.89-.04-1.77-.01-2.66h0Zm.04,3.94c0-.14,.12-.27,.26-.27s.27,.11,.27,.26-.12,.27-.26,.27-.27-.11-.27-.26Zm3.2,9.5c-.05,.05-.11,.07-.18,.08-.79,.09-1.57,.14-2.36,.15-.35,.02-.38-.51-.03-.53,.79,0,1.58-.06,2.37-.14,.23-.02,.36,.29,.19,.45h0Zm.16-1.05c-.2,0-.4,0-.61-.01-.66,0-1.31-.03-1.97-.01-.15,.06-.36-.04-.38-.21-.04-.27,.26-.33,.47-.32,.37-.01,.73,0,1.1,0,.46,0,.91,.03,1.37,.02,.34,0,.35,.51,.01,.53h0Zm.68,1.05c-.14,0-.27-.11-.27-.26s.12-.27,.26-.27,.27,.11,.27,.26-.12,.27-.26,.27Zm13.95-8.28c.09-.22,.08-.48,.21-.68,.11-.12,.33-.09,.41,.05,.09,.2-.04,.42-.07,.62-.21,.77-.68,1.45-1.24,2.01-.24,.19-.66,.71-.92,.35-.17-.33,.29-.45,.46-.64,.5-.48,.93-1.06,1.15-1.72h0Zm-1.64,.21c.13-.15,.25-.31,.36-.47,.22-.32,.36-.68,.56-1,.15-.17,.45-.06,.45,.17,0,.08-.03,.15-.08,.21-.15,.32-.32,.64-.5,.91-.19,.23-.5,.92-.85,.62-.14-.13-.07-.33,.06-.44Zm-.73,.85c.14,0,.27,.11,.27,.26s-.12,.27-.26,.27-.27-.11-.27-.26,.12-.27,.26-.27Zm-2.01-1.14c-1.23,.99-3.06,1.66-4.71,1.92-.36-.01-.71-.05-1.07-.13-.93-.19-.97-.99-1.14-1.4,.05-.31,.15-.62,.28-.89,.63-1,1.74-1.57,2.78-2.06,1.16-.51,2.52-1.03,3.82-.8,1.52,.46,1.58,2.15,.05,3.35h0Z"/>
        <path class="cls-3" d="M107.69,88.06c-1.69-.59-3.49-.77-5.28-.83-2.75-.09-5.5-.16-8.24-.07-1.76,.04-3.53,.17-5.29,.23h-.05s-.01,0-.02,0c-.23-.08-.46,.19-.34,.41,.01,.02,.03,.04,.05,.06-.07,.27,0,.59-.02,.86-.02,1.6,.02,3.2,.04,4.81-.03,3.22,.2,6.44,.39,9.65,0,.06,.03,.11,.05,.14,0,.14,.09,.27,.27,.28,.82,0,1.6-.03,2.42-.04,1.13,0,2.26,.05,3.39,.01,2.96-.07,5.92-.27,8.87-.5,2.48-.21,5.36-.6,6.81-2.89,.87-1.49,1.29-3.22,1.52-4.91,.39-3.08-1.57-6.3-4.58-7.21h0Zm-17.8,4.18c-.14,0-.26-.12-.27-.26-.01-.85-.08-1.65-.15-2.47,.02-.3-.22-.97,.29-.9,.11,.03,.19,.13,.19,.23,.03,.44,.05,.82,.09,1.25,.05,.63,.09,1.26,.1,1.9,0,.14-.12,.27-.26,.27h0Zm.91-1.61c-.06-.53-.1-1.06-.17-1.58,0-.12-.07-.26-.03-.37,.17-.32,.54-.14,.53,.19,.08,.56,.12,1.12,.18,1.68,.01,.14-.08,.28-.22,.3-.14,.02-.28-.08-.3-.22h0Zm.38,1.49c-.14,0-.27-.11-.27-.26s.12-.27,.26-.27,.27,.11,.27,.26-.12,.27-.26,.27Zm17.26,5.15c.08-.14,.1-.32,.24-.41,.17-.1,.4,.02,.4,.22-.2,.62-.57,1.21-1.04,1.66-.22,.16-.52,.64-.8,.33-.19-.26,.14-.44,.31-.59,.39-.33,.68-.75,.9-1.21h0Zm-2.06,2.86c-.14,0-.27-.11-.27-.26s.12-.27,.26-.27,.27,.11,.27,.26-.12,.27-.26,.27Zm-1.94-4.56c-1.21,.96-2.66,1.67-4.04,2.37-1.02,.52-2.02,1.08-3.04,1.58-.61,.3-1.22,.59-1.85,.86-.28,.09-.57,.15-.85,.17-.79,.03-1.52-.5-1.44-1.34,.1-.76,.72-1.31,1.21-1.85,1.3-1.33,2.84-2.36,4.4-3.35,1.67-1.09,3.41-2.13,5.34-2.69,1.13-.3,2.91-.75,3.43,.68,.05,.17,.05,.36,.02,.53-.24,.35-.53,.66-.84,.96-.77,.71-1.53,1.43-2.34,2.09h0Zm5.98,2.14c-.14,.46-.36,.9-.64,1.29-.51,.64-1.09,1.26-1.82,1.66-.26,.14-.52,.26-.79,.37-.13,.05-.29,0-.35-.14-.05-.13,0-.29,.14-.35,.37-.16,.75-.33,1.09-.55,.79-.61,1.55-1.41,1.86-2.38,.02-.18,.19-.31,.37-.24,.14,.05,.2,.21,.15,.33h0Z"/>
        <path class="cls-3" d="M133.1,100.13c-.59-.07-1.18-.07-1.77-.09-4.16-.08-8.31-.19-12.47-.27-.06-.16-.1-.33-.12-.5,1.09-.09,2.19-.14,3.28-.23,2.22-.22,4.45-.44,6.67-.6,1.55-.15,3.14-.2,4.64-.67,.26-.05,.4-.28,.43-.53,.08-.45,.1-.92,.09-1.38-.09-1.25-.21-2.81-.79-4.02-.97-2.85-3.77-4.54-6.64-5.11-2.37-.5-4.98-.57-7.21,.51-1.74,.86-3.21,2.27-4.26,3.89-.85,1.26-1.29,2.72-1.52,4.21-.53,3.23-.87,7.21,2.98,8.39,1.12,.38,2.3,.46,3.48,.57,1.78,.11,3.57,.16,5.35,.17,2.41,.01,4.8-.1,7.22-.16,.38-.06,1.03,.1,1.28-.24,.37-.95,.36-2.05,.18-3.05-.08-.5-.28-.85-.83-.88h0Zm-.17-2.86s0,0,0,0h-.01s0,0,0,0h0Zm-.86-1.96c.14,0,.27,.11,.27,.26s-.12,.27-.26,.27-.27-.11-.27-.26,.12-.27,.26-.27Zm.08,1.16c.17-.03,.36,.07,.36,.25,0,.14-.12,.26-.26,.27-.5,.02-.99,.03-1.49,.05-.4,.02-.8,.01-1.2,.01-.24,0-.66,.12-.68-.24,0-.32,.37-.27,.59-.28,.4-.01,.8,0,1.2-.01,.49-.02,.99-.03,1.48-.05h0Zm-1.36-1.16c.14,0,.27,.11,.27,.26s-.12,.27-.26,.27c-.7,0-1.38,.07-2.06,.12,.02,0,.05,0,.07-.02-.08,.04-.16,.04-.24,0-.12-.07-.17-.24-.1-.36,.1-.17,.31-.13,.47-.15,.22-.01,.43-.03,.64-.05,.4-.03,.8-.05,1.21-.05h0Zm-7.86-7.93c.14,0,.27,.11,.27,.26s-.12,.27-.26,.27-.27-.11-.27-.26,.12-.27,.26-.27Zm.03,1.33c.14-.02,.28,.08,.3,.22,.03,.37-.45,.31-.69,.39-1.04,.21-2,.66-2.92,1.17-.23,.12-.46,.24-.67,.39-.14,.1-.31,.26-.48,.12-.26-.24,0-.44,.22-.57,.33-.21,.68-.39,1.02-.57,.81-.45,1.67-.81,2.58-1.01,.22-.05,.44-.09,.65-.13h0Zm-3.25-.36c.51-.26,1.07-.43,1.62-.58,.33-.09,.47,.41,.14,.5-.3,.08-.6,.17-.9,.27-.76,.3-1.5,.69-2.15,1.18-.04,.04-.09,.08-.11,.13-.06,.13-.24,.17-.36,.1-.65-.5,1.39-1.4,1.74-1.61h0Zm-2.87,6.97s.01-.06,.03-.09c.02-.05,.04-.09,.05-.13,.03-.06,.06-.12,.1-.18,.06-.09,.13-.18,.21-.27,.13-.15,.28-.29,.42-.42,.27-.24,.57-.45,.86-.66,.53-.35,1.08-.66,1.64-.94,.83-.41,1.69-.77,2.57-1.08h0s.01,0,.01,0c.8-.27,1.61-.51,2.45-.69h0s0,0,.01,0c.56-.12,1.12-.21,1.7-.26,.32-.02,.64-.03,.97-.02,.17,.01,.33,.03,.5,.06,.1,.02,.19,.04,.29,.08,.05,.02,.1,.04,.16,.06,.04,.02,.08,.04,.11,.06,.02,.01,.04,.03,.06,.05,.02,.01,.03,.03,.05,.05,0,.01,.02,.02,.03,.03,0,.01,.02,.03,.03,.04,0,.01,.01,.02,.01,.03,0,.01,0,.03,.01,.04,0,.01,0,.03,0,.04v.05s0,.05-.01,.08c0,.03-.01,.05-.02,.08-.01,.04-.03,.08-.05,.13-.03,.06-.07,.13-.11,.19-.07,.1-.14,.19-.22,.28-.13,.15-.28,.29-.43,.42-.28,.24-.57,.45-.87,.66-.52,.34-1.07,.65-1.62,.93-.02,.01-.05,.02-.07,.04h-.01s0,0,0,0c-.81,.4-1.64,.74-2.5,1.04-.81,.28-1.64,.52-2.48,.7h-.01c-.55,.11-1.11,.2-1.67,.25-.31,.02-.62,.03-.93,.02h-.03c-.17-.01-.34-.03-.5-.06-.1-.02-.19-.04-.29-.07-.05-.02-.11-.04-.16-.06-.04-.02-.08-.04-.11-.06-.02-.02-.05-.03-.07-.05-.01-.01-.03-.03-.04-.04s-.03-.03-.04-.04c0-.01-.01-.02-.02-.04s-.01-.03-.02-.04c0-.01,0-.02-.01-.03,0-.02,0-.03,0-.05v-.05s0-.04,0-.06h0Zm-1.26,6.98c-.14,0-.27-.11-.27-.26s.12-.27,.26-.27,.27,.11,.27,.26-.12,.27-.26,.27Zm2.81,.95c-.35,0-.7-.04-1.04-.11-.34-.07-.67-.21-.99-.33-.32-.13-.13-.61,.19-.49,.49,.21,1.06,.38,1.59,.4,.15,0,.31,.01,.46,0,.14,0,.27,.12,.27,.26,0,.26-.28,.28-.48,.27h0Zm.28-1.09c-.7,0-1.38-.16-2.02-.46-.26-.14-.67-.23-.77-.53-.04-.27,.3-.4,.47-.21,.36,.21,.77,.37,1.16,.5,.37,.13,.77,.15,1.16,.17,.34,0,.35,.51,.01,.53h0Zm10.94-.24c.73-.02,1.46,.07,2.19,.12,.34,.04,.28,.55-.06,.52-.74-.05-1.48-.14-2.22-.11-.13,.03-.27-.05-.31-.18-.06-.26,.19-.36,.4-.35h0Zm2.81,1.58c-.4,.01-.81,.03-1.21,.02-.48-.01-.95-.02-1.39-.04-.23-.03-.64,.07-.67-.27,.03-.41,.57-.23,.84-.24,.81,.03,1.61,.05,2.42,.02,.14,0,.27,.12,.27,.26s-.12,.26-.26,.27h0Zm.22-.95c-.14,0-.27-.11-.27-.26s.12-.27,.26-.27,.27,.11,.27,.26-.12,.27-.26,.27Z"/>
        <path class="cls-3" d="M153.6,91.41c-1.74-.37-3.55-.32-5.32-.31-1.33,.01-2.72,.21-4.08,.06-.04-.3,.32-.44,.75-.52,1.09-.14,2.35-.08,3.25-.15,.87-.03,1.74-.08,2.61-.12,1.15,.04,2.3,0,3.45,0,.77,.01,1.55,.01,2.32-.03,.38-.05,.96,.06,1.13-.38,.21-1.12,.05-2.27-.03-3.4-.04-.42-.04-.85-.09-1.26-.03-.54-.67-.59-1.09-.61-3.62,.08-7.24,.21-10.85,.47-2.01,.17-4.02,0-5.98,.59-1.03,.29-2.08,.67-2.81,1.49-1,1.18-1.69,3.11-.9,4.57,.72,1.28,2.07,2.19,3.51,2.45,.94,.26,1.94,.28,2.92,.23,1.12-.06,2.23-.11,3.35-.1,1.11,0,2.22,.1,3.33,.2,.85,.08,1.65,.1,2.5,.29,1.04,.18,1.3,1.32,.24,1.71-1.67,.62-3.5,.31-5.24,.32-1.79-.03-3.57,.05-5.35,.18-1.11,.1-2.23,.19-3.35,.25-.4,.01-.93,.02-.93,.56,0,.72,.24,1.43,.32,2.15,.17,1.09,.29,2.19,.39,3.29,.05,1.34,.17,1.25,1.42,1.29,4.08-.06,8.19-.17,12.27-.27,4.22-.24,7.72-1.49,8.24-6.22,.3-3.45-2.89-6.07-6.01-6.73h.01Zm3-5.43c.16,.69,.07,1.41,.06,2.1,0,.07-.03,.14-.08,.19-.15,.16-.46,.05-.45-.18,.01-.63,.07-1.27-.02-1.9-.24-.45,.36-.72,.49-.22h0Zm-.3,2.89c.14,0,.27,.11,.27,.26s-.12,.27-.26,.27-.27-.11-.27-.26,.12-.27,.26-.27Zm-1.5-2.68c.05-.13,.21-.2,.34-.15,.06,.01,.12,.1,.16,.24v-.05s0,.04,0,.05c.21,.63,.29,2.27,.29,2.58,0,.34-.51,.35-.53,.01-.01-.63-.05-1.2-.15-1.8-.03-.32-.16-.6-.12-.89h0Zm-13.94,.41c.14,0,.27,.11,.27,.26s-.12,.27-.26,.27-.27-.11-.27-.26,.12-.27,.26-.27Zm-2.36,2.04c-.1,.14-.13,.36-.35,.36-.14,0-.27-.12-.27-.26,.15-.6,.73-1,1.19-1.36,.21-.13,.57-.43,.74-.1,.12,.29-.24,.38-.41,.51-.33,.25-.67,.51-.91,.85h0Zm2.99-.43c-.2,.09-.4,.17-.59,.27-.4,.2-.77,.45-1.11,.75-.26,.16-.53,.79-.86,.5-.27-.31,.25-.59,.42-.81,.56-.53,1.22-.9,1.93-1.19,.32-.13,.52,.34,.21,.48h0Zm-2.75,10.66c0-.14,.12-.27,.26-.27s.27,.11,.27,.26-.12,.27-.26,.27-.27-.11-.27-.26Zm.3,4.26c-.02-.93-.04-1.88-.14-2.78-.01-.1-.03-.2-.03-.31,.03-.3,.48-.31,.52,0,.03,.22,.06,.44,.07,.67,.06,.81,.09,1.61,.1,2.42,0,.34-.51,.35-.53,.01h0Zm1.99-.09c-.13,.18-.45,.1-.47-.12-.08-1.29-.19-2.55-.57-3.78-.1-.19,.1-.42,.3-.36,.15,.03,.2,.18,.23,.32,.25,.86,.39,1.74,.47,2.63,.04,.37,.05,.74,.08,1.11,0,.08,0,.15-.05,.21h0Zm14.49-.91c-.14,0-.27-.11-.27-.26s.12-.27,.26-.27,.27,.11,.27,.26-.12,.27-.26,.27Zm-.25-.97c-.25,.1-.61,.49-.84,.17-.27-.55,.92-.31,1.74-1.98,.17-.36,.24-.68,.27-1.06-.01-.17,0-.41,.19-.46,.67-.14,.16,1.44,.01,1.73-.31,.63-.78,1.22-1.38,1.6h0Zm2.9-2.53c-.14,.73-.45,1.44-.9,2.03-.15,.19-.33,.37-.51,.54-.12,.15-.34,.21-.46,.04-.23-.31,.34-.58,.49-.82,.21-.25,.36-.51,.51-.8,.15-.32,.28-.66,.35-1,.02-.1,.04-.19,.1-.27,.19-.21,.55,.04,.42,.29h0Z"/>
        <path class="cls-3" d="M155.29,86.37s.02-.06,.02-.09h0s0,.06-.01,.09h0Z"/>
      </g>
      <path class="cls-3" d="M193.11,85.79c-.14-.23-.46-.28-.8-.32-.23,.01-.47,.02-.71,.02-.37-.05-.76-.04-1.13-.06-.65,0-1.3,0-1.95-.02-2.63-.12-5.25-.19-7.88-.28-5.3-.21-10.63-.3-15.92,.11-1.02,.06-2.04,.09-3.06,.14-.49,0-.71,.12-.74,.64-.02,.21-.03,.41-.03,.62-.06,1.08-.12,2.16-.21,3.24-.02,.57-.11,1.23,.2,1.74,.23,.29,.91,.12,1.27,.17,.5,0,1.01,.02,1.52,.03,2.15,.1,4.3,.08,6.45,.07v.13c-.15,3.76-.14,7.53-.02,11.29,.07,1.06,1.38,.96,2.16,.99,.92,.02,1.84,.05,2.76,.06,1.36,.01,2.72,0,4.08-.06,.59,.02,1.18,.05,1.76,.07,.63,0,1.29,.11,1.89-.08,.5-.19,.59-.75,.59-1.22,.03-.57,.05-1.14,.08-1.71,.15-2.58-.05-5.16-.19-7.74-.02-.49-.06-.99-.1-1.48,.52-.08,1.05-.1,1.58-.07,1.06,0,2.12,0,3.18,.09,.57,.05,1.15,.04,1.72,.07,.67,.03,1.35,.08,2.02,.11,.19,.02,.39,.04,.58,.05,.74,.18,.64-.45,.69-.97,.03-.59,.09-1.19,.13-1.79,.07-1.11,.17-2.21,.14-3.33,0-.28-.01-.44-.09-.54h0Zm-31.02,4.29c.02,.27-.37,.3-.39,.03,.06-1.13,.19-2.27,.19-3.4,.02-.24,.39-.21,.39,.02,0,1.11-.12,2.24-.19,3.35h0Zm1.12-3.28c.1,0,.19,.08,.2,.19,0,.1-.08,.2-.19,.2s-.19-.08-.2-.19c0-.1,.08-.2,.19-.2Zm.28,1.47c-.01,.6-.05,1.21-.07,1.8,0,.25-.38,.26-.39,0,.01-.57,.06-1.09,.06-1.65,0-.13-.02-.3,.11-.38,.14-.09,.34,.06,.28,.22h0Zm8.34,8.52c-.02,.38-.02,.76-.04,1.15-.01,.39-.04,.78-.05,1.17,0,.1-.09,.19-.19,.19-.1,0-.2-.09-.19-.19,.02-.4,.04-.8,.06-1.2,.01-.4,.01-.79,.04-1.19,0-.16,.06-.39,.26-.34,.19,.05,.13,.26,.12,.41Zm-.06-1.09c-.1,0-.19-.09-.19-.19s.09-.19,.19-.19,.19,.09,.19,.19-.09,.19-.19,.19Zm.85,3.29c-.1,0-.19-.09-.19-.19,0-.4,0-.8,0-1.2s0-.79,0-1.19c-.02-.14,.03-.3,.19-.3,.1,0,.19,.09,.19,.19,0,.37,0,.73,0,1.1v1.17c0,.16,.03,.41-.19,.41h0Zm7.89,4.16c-.59-.01-1.18-.02-1.76-.04-.19,0-.39-.02-.58-.02-.11,0-.23,.01-.32-.05-.17-.12-.02-.4,.17-.34,.39,.01,.78,.04,1.17,.04,.44,0,.88,.02,1.33,.03,.25,0,.25,.39,0,.39h0Zm.73-.79c-1.09-.04-2.18-.14-3.27-.13-.14,.04-.28-.1-.24-.24,.06-.19,.29-.15,.44-.15,1.02,.02,2.04,.09,3.06,.13,.25,0,.25,.39,0,.39h0Zm.42,.77c-.1,0-.19-.09-.19-.19s.09-.19,.19-.19,.19,.09,.19,.19-.09,.19-.19,.19Zm9.59-16.05c-.06,.57-.09,1.13-.09,1.7,0,.36,.02,.72,.01,1.09,0,.16,.02,.4-.2,.4-.32-.02-.15-.51-.19-.72-.02-.57-.02-1.14,.01-1.71,.03-.3,.02-.61,.09-.9,.1-.23,.45-.09,.36,.14h0Zm.55,3.44c-.1,0-.19-.09-.19-.19s.09-.19,.19-.19,.19,.09,.19,.19-.09,.19-.19,.19Zm.41-2.96c-.03,.51-.04,1.02-.08,1.53,0,.05-.02,.1-.06,.14-.11,.12-.34,.03-.33-.14,.03-.51,.05-1.02,.08-1.53,.05-.21-.09-.67,.24-.66,.29,.06,.12,.45,.14,.66h0Z"/>
      <path class="cls-3" d="M215.48,99.83c-.59-.07-1.18-.07-1.77-.09-4.16-.08-8.31-.19-12.47-.27-.06-.16-.1-.33-.12-.5,1.09-.09,2.19-.14,3.28-.23,2.22-.22,4.45-.44,6.67-.6,1.55-.15,3.14-.2,4.64-.67,.26-.05,.4-.28,.43-.53,.08-.45,.1-.92,.09-1.38-.09-1.25-.21-2.81-.79-4.02-.97-2.85-3.77-4.54-6.64-5.11-2.37-.5-4.98-.57-7.21,.51-1.74,.86-3.21,2.27-4.26,3.89-.85,1.26-1.29,2.72-1.52,4.21-.53,3.23-.87,7.21,2.98,8.39,1.12,.38,2.3,.46,3.48,.57,1.78,.11,3.57,.16,5.35,.17,2.41,.01,4.8-.1,7.22-.16,.38-.06,1.03,.1,1.28-.24,.37-.95,.36-2.05,.18-3.05-.08-.5-.28-.85-.83-.88h0Zm-.17-2.86s0,0,0,0h-.01s0,0,0,0h0Zm-.86-1.96c.14,0,.27,.11,.27,.26s-.12,.27-.26,.27-.27-.11-.27-.26,.12-.27,.26-.27Zm.08,1.16c.17-.03,.36,.07,.36,.25,0,.14-.12,.26-.26,.27-.5,.02-.99,.03-1.49,.05-.4,.02-.8,.01-1.2,.01-.24,0-.66,.12-.68-.24,0-.32,.37-.27,.59-.28,.4-.01,.8,0,1.2-.01,.49-.02,.99-.03,1.48-.05h0Zm-1.36-1.16c.14,0,.27,.11,.27,.26s-.12,.27-.26,.27c-.7,0-1.38,.07-2.06,.12,.02,0,.05,0,.07-.02-.08,.04-.16,.04-.24,0-.12-.07-.17-.24-.1-.36,.1-.17,.31-.13,.47-.15,.22-.01,.43-.03,.64-.05,.4-.03,.8-.05,1.21-.05h0Zm-7.86-7.93c.14,0,.27,.11,.27,.26s-.12,.27-.26,.27-.27-.11-.27-.26,.12-.27,.26-.27Zm.03,1.33c.14-.02,.28,.08,.3,.22,.03,.37-.45,.31-.69,.39-1.04,.21-2,.66-2.92,1.17-.23,.12-.46,.24-.67,.39-.14,.1-.31,.26-.48,.12-.26-.24,0-.44,.22-.57,.33-.21,.68-.39,1.02-.57,.81-.45,1.67-.81,2.58-1.01,.22-.05,.44-.09,.65-.13h0Zm-3.25-.36c.51-.26,1.07-.43,1.62-.58,.33-.09,.47,.41,.14,.5-.3,.08-.6,.17-.9,.27-.76,.3-1.5,.69-2.15,1.18-.04,.04-.09,.08-.11,.13-.06,.13-.24,.17-.36,.1-.65-.5,1.39-1.4,1.74-1.61h0Zm-2.87,6.97s.01-.06,.03-.09c.02-.05,.04-.09,.05-.13,.03-.06,.06-.12,.1-.18,.06-.09,.13-.18,.21-.27,.13-.15,.28-.29,.42-.42,.27-.24,.57-.45,.86-.66,.53-.35,1.08-.66,1.64-.94,.83-.41,1.69-.77,2.57-1.08h0s.01,0,.01,0c.8-.27,1.61-.51,2.45-.69h0s0,0,.01,0c.56-.12,1.12-.21,1.7-.26,.32-.02,.64-.03,.97-.02,.17,.01,.33,.03,.5,.06,.1,.02,.19,.04,.29,.08,.05,.02,.1,.04,.16,.06,.04,.02,.08,.04,.11,.06,.02,.01,.04,.03,.06,.05,.02,.01,.03,.03,.05,.05,0,.01,.02,.02,.03,.03,0,.01,.02,.03,.03,.04,0,.01,.01,.02,.01,.03,0,.01,0,.03,.01,.04,0,.01,0,.03,0,.04v.05s0,.05-.01,.08c0,.03-.01,.05-.02,.08-.01,.04-.03,.08-.05,.13-.03,.06-.07,.13-.11,.19-.07,.1-.14,.19-.22,.28-.13,.15-.28,.29-.43,.42-.28,.24-.57,.45-.87,.66-.52,.34-1.07,.65-1.62,.93-.02,.01-.05,.02-.07,.04h-.01s0,0,0,0c-.81,.4-1.64,.74-2.5,1.04-.81,.28-1.64,.52-2.48,.7h-.01c-.55,.11-1.11,.2-1.67,.25-.31,.02-.62,.03-.93,.02h-.03c-.17-.01-.34-.03-.5-.06-.1-.02-.19-.04-.29-.07-.05-.02-.11-.04-.16-.06-.04-.02-.08-.04-.11-.06-.02-.02-.05-.03-.07-.05-.01-.01-.03-.03-.04-.04-.01-.01-.03-.03-.04-.04,0-.01-.01-.02-.02-.04s-.01-.03-.02-.04c0-.01,0-.02-.01-.03,0-.02,0-.03,0-.05v-.05s0-.04,0-.06h0Zm-1.26,6.98c-.14,0-.27-.11-.27-.26s.12-.27,.26-.27,.27,.11,.27,.26-.12,.27-.26,.27Zm2.81,.95c-.35,0-.7-.04-1.04-.11s-.67-.21-.99-.33c-.32-.13-.13-.61,.19-.49,.49,.21,1.06,.38,1.59,.4,.15,0,.31,.01,.46,0,.14,0,.27,.12,.27,.26,0,.26-.28,.28-.48,.27h0Zm.28-1.09c-.7,0-1.38-.16-2.02-.46-.26-.14-.67-.23-.77-.53-.04-.27,.3-.4,.47-.21,.36,.21,.77,.37,1.16,.5,.37,.13,.77,.15,1.16,.17,.34,0,.35,.51,.01,.53h0Zm10.94-.24c.73-.02,1.46,.07,2.19,.12,.34,.04,.28,.55-.06,.52-.74-.05-1.48-.14-2.22-.11-.13,.03-.27-.05-.31-.18-.06-.26,.19-.36,.4-.35h0Zm2.81,1.58c-.4,.01-.81,.03-1.21,.02-.48-.01-.95-.02-1.39-.04-.23-.03-.64,.07-.67-.27,.03-.41,.57-.23,.84-.24,.81,.03,1.61,.05,2.42,.02,.14,0,.27,.12,.27,.26s-.12,.26-.26,.27h0Zm.22-.95c-.14,0-.27-.11-.27-.26s.12-.27,.26-.27,.27,.11,.27,.26-.12,.27-.26,.27Z"/>
    </g>
  </g>
</svg>